<?xml version="1.0" encoding="utf-8"?>
<!-- Generator: Adobe Illustrator 22.0.1, SVG Export Plug-In . SVG Version: 6.00 Build 0)  -->
<svg version="1.1" id="Capa_1" xmlns="http://www.w3.org/2000/svg" xmlns:xlink="http://www.w3.org/1999/xlink" x="0px" y="0px"
	 viewBox="0 0 1096.8 595.3" style="enable-background:new 0 0 1096.8 595.3;" xml:space="preserve">
<style type="text/css">
	.st0{fill:#D5F7F7;}
	.st1{fill:#FFFFFF;}
	.st2{fill:#55514B;}
	.st3{fill:#42403C;}
	.st4{fill:#F2C4A5;}
	.st5{fill:#64431F;}
	.st6{fill:#6C7C9E;}
	.st7{fill:#CABA9F;}
	.st8{fill:#B1B1B1;}
	.st9{fill:#3C3C3B;}
	.st10{fill:#1D1D1B;}
	.st11{fill:#3A2612;}
	.st12{fill:#C5CF83;}
	.st13{fill:#D9D9D9;}
	.st14{opacity:0.65;fill:#575756;}
	.st15{fill:#ECECEC;}
	.st16{opacity:0.56;fill:#D9D9D9;}
	.st17{fill:#9C9B9B;}
	.st18{fill:#6F6F6E;}
	.st19{fill:#575756;}
	.st20{fill:#422918;}
	.st21{fill:#35A8E0;}
	.st22{fill:#F5F5F5;}
	.st23{fill:none;stroke:#A37648;stroke-width:5;stroke-miterlimit:10;}
	.st24{fill:#997047;}
	.st25{fill:#7F5E40;}
	.st26{fill:#B17F49;}
	.st27{fill:#A8182A;}
	.st28{fill:#BD1622;}
	.st29{fill:#D3AC2F;}
	.st30{fill:#C19C33;}
	.st31{fill:#2E7099;}
	.st32{fill:#C69C73;}
	.st33{fill:none;}
	.st34{fill:none;stroke:#71AAA6;stroke-width:10;stroke-linecap:round;stroke-miterlimit:10;}
</style>
<rect class="st0" width="1096.8" height="595.3"/>
<g>
	<polygon class="st1" points="230.5,426.6 230.5,428.5 229.3,428.4 215.5,428 211.2,427.9 211.2,427.8 216.4,426.2 218.1,426.2 
		229.3,426.6 	"/>
	<polygon class="st1" points="252.2,427.5 252.2,427.9 249.3,428 235.6,428.4 234.2,428.5 234.1,426.6 235.6,426.6 246.8,426.2 
		248,426.2 	"/>
	<path class="st2" d="M230.5,428.5v17.7l-31.8,0.9c-7-1.4-8.7-10.8-2.5-14.5l15-4.7v0.1l4.3,0.1l13.8,0.4L230.5,428.5z"/>
	<path class="st2" d="M265.7,447l-31.8-0.9v-19.5h0.1l0,1.9l1.5-0.1l13.7-0.5l2.9-0.1l0-0.4l16.1,5
		C274.4,436.3,272.8,445.6,265.7,447z"/>
	<path class="st3" d="M211.2,427.9l2,0.1c-2,3.3-14.5,19.1-14.5,19.1c-7-1.4-8.7-10.8-2.5-14.5L211.2,427.9L211.2,427.9z"/>
	<path class="st2" d="M230.5,428.5v17.7l-0.9,0c-0.6-1.6-1-3.3-1.4-4.9c-0.6-3-1-6.2-1.1-9.3c0-1.2,0-2.4,0-3.6l2.2,0.1L230.5,428.5
		z"/>
	<polygon class="st3" points="234,446.1 234,426.6 234.1,426.6 234.2,428.5 235.6,428.4 249.3,428 252.2,427.9 252.2,427.5 	"/>
	<path class="st4" d="M273.4,311.2c1.1,17.2-8.3,27.2-12.4,25.3c-3.5-1.7,1.3-9.8,2.7-12.1c0.5-0.8,0-2-0.9-2.1
		c-0.2,0-0.4,0-0.6,0.1c-8,2.8,0.6-11,1-14.9c1.4-12.3-1.6-39.7-4.2-59.3c-0.3-2.1-3.2-2.4-3.9-0.4c-0.4,1.2-0.7,2.6-0.8,4
		l-1.6,42.5l-0.8,17l-5.2,114.9l0,0.2c0,0.5,1.1,1,2.5,1.5l-13.7,0.5V326.7c0-1.6-1.3-2.9-2.9-2.9c-0.1,0-0.1,0-0.2,0c0,0,0,0,0,0
		c-0.1,0-0.2,0-0.3,0c-1.6,0-2.9,1.3-2.9,2.9v101.7l-13.8-0.4c1.4-0.5,2.6-1.1,2.6-1.6l0-0.2l-5.2-114.9l-0.8-17l-1.6-42.5v-0.1
		c-0.1-2.5-3.7-2.6-4.1-0.2c-2.5,19.3-5.1,44.3-3.8,56c0.4,3.9,9,17.7,1,14.9c-0.2-0.1-0.4-0.1-0.6-0.1c-1,0.1-1.5,1.2-0.9,2.1
		c1.4,2.2,6.3,10.4,2.7,12.1c-4.1,1.9-13.6-8.1-12.4-25.3c0,0,0-0.1,0-0.1c0,0-0.7-53.1-0.5-78.2c0.1-7.3,5.6-13.3,12.8-14l17.1-1.6
		c0.9,0,1.6-2.2,2.1-4.2c0.4-1.5-0.3-3-1.7-3.7c-8.3-3.6-14.6-12-16.2-22.2c-0.7,0.7-1.5,1-2.4,1c-2.5,0-4.6-3.2-4.6-7.1
		c0-3.9,2.1-7.1,4.6-7.1c0.9,0,1.8,0.4,2.5,1.2c0.1-0.5,0.2-1,0.3-1.5v0c3-12.6,13.1-21.8,25.1-21.8c11.9,0,21.9,9.1,25,21.5
		c0.1,0.5,0.2,1,0.3,1.5c0.7-0.6,1.4-0.9,2.3-0.9c2.5,0,4.6,3.2,4.6,7.1c0,3.9-2,7.1-4.6,7.1c-0.8,0-1.5-0.3-2.1-0.8
		c-1.7,9.8-7.5,17.8-15.3,21.6c-1.4,0.7-2.1,2.4-1.6,3.9c0.7,2,1.6,4.3,2.5,4.3c0,0,8.8,0.2,17,0.9c8.1,0.7,14.3,7.6,14.2,15.7
		l-0.7,77.2C273.4,311.2,273.4,311.2,273.4,311.2z"/>
	<path class="st5" d="M257.2,174.7c0,2-0.6,17.5-1.2,15.2c-1.8-6.1-0.8-22.6-9.2-18.5c-4.6,2.2-2.9,0.8-9,0.8
		c-6.3,0-9.2-7.1-14.5-7.3c-13.2-0.6-12.8,17.1-14.2,22.3c-0.5,1.8-2-11-2-12.2c0-6.4-3.4-24.2,3.1-24.4c2.1-0.1,9.1-4.8,9.4-3
		c0.1,0.9,0.9,1.4,1.7,1.4c0.6,0,1.1-0.3,1.5-0.8c0,0,7.4-3.8,8.1-2.7l4.7,4.4c0.7,1.1,4.9-3.3,4.9-3.3c0.6-1.1,15.1,8.3,15.1,8.3
		C259.4,158.8,257.2,167.1,257.2,174.7z"/>
	<polygon class="st6" points="253.9,311.3 252.2,427.5 252.2,427.9 249.3,428 235.6,428.4 234.2,428.5 234.1,426.6 232.1,327.8 
		231.2,428.5 230.5,428.5 229.3,428.4 215.5,428 211.2,427.9 211.2,311.3 	"/>
	<path class="st4" d="M201.9,324.4c0.3,0.5,0.8,1.4,1.4,2.4c1.8,3.3,4.1,8.4,1.3,9.7c-0.7,0.3-1.6,0.3-2.5-0.1
		c-4.4-1.7-10.4-10.4-10-23.9l10.2-5.4c0,0.1,0,0.2,0,0.3c0.2,1.4,1.3,4.1,2.4,6.8c1.9,4.8,3.6,9.7-1,8.3c-0.1,0-0.3-0.1-0.4-0.1
		c-0.2-0.1-0.4-0.1-0.6-0.1C201.8,322.4,201.4,323.5,201.9,324.4z"/>
	<path class="st4" d="M263.7,324.5c-0.3,0.5-0.8,1.4-1.4,2.4c-1.8,3.3-4.1,8.4-1.3,9.7c0.7,0.3,1.6,0.3,2.5-0.1
		c4.4-1.7,10.4-10.4,10-23.9l-10.2-5.4c0,0.1,0,0.2,0,0.3c-0.2,1.4-1.3,4.1-2.4,6.8c-1.9,4.8-3.6,9.7,1,8.3c0.1,0,0.3-0.1,0.4-0.1
		c0.2-0.1,0.4-0.1,0.6-0.1C263.8,322.5,264.2,323.7,263.7,324.5z"/>
	<polygon class="st7" points="231.5,217.3 224.8,217.3 215.2,221.6 219,301 247.1,301.5 246.1,218.5 	"/>
	<rect x="209.8" y="301.5" class="st2" width="42.5" height="9.8"/>
	<g>
		<path class="st8" d="M224.1,210.3L213,226.1l16.7-8.9C229.7,217.3,225.4,217.5,224.1,210.3z"/>
	</g>
	<g>
		<path class="st8" d="M240.3,210.3l10.7,15.4l-16.3-8.4C234.6,217.3,239,217.5,240.3,210.3z"/>
	</g>
	<polygon class="st5" points="229.6,226.5 226.1,243.4 227.9,282.4 232.5,291.2 237.1,282.8 238.6,243.4 234.9,226.5 	"/>
	<path d="M232.9,309.1h-3.3c-1.5,0-2.7-1.2-2.7-2.7v-0.4c0-1.5,1.2-2.7,2.7-2.7h3.3c1.5,0,2.7,1.2,2.7,2.7v0.4
		C235.6,307.9,234.4,309.1,232.9,309.1z"/>
	<path class="st9" d="M213.8,214.1l-11.6,3.5c-6.1,1.8-10.3,7.3-10.4,13.6l-2.4,83.1l15.3-8.1l3.1-50.3l-1.8,53.2l-9.3,74.4h28.2
		l-3.4-110.4L213.8,214.1z"/>
	<path class="st9" d="M252.1,214.1l9.8,3c7.1,2.2,12.1,8.6,12.3,16.1l2.3,81.2l-15.3-8.1l-3.1-50.3l1.7,53.2l9.2,74.4H241l4-110.2
		L252.1,214.1z"/>
	<g>
		<path class="st10" d="M220.2,214.6c-1.5,3-2.1,7.6-1.9,13.9c0.4,11.2,2.3,31.1,3,45.8c0.2,4.7-15.3-35.2-15.3-35.2l6.6-9.3
			l-11.2-4.1c0,0,3.8-8.6,8.8-11.1h0c4.8-2.3,11.3-2.4,11.3-2.4S221.2,212.7,220.2,214.6z"/>
	</g>
	<g>
		<path class="st10" d="M244.8,215.3c1.5,3,3.2,6.4,3,12.8c-0.4,11.2,1.3,27.3-2.7,46.3c-1,4.6,13-36.5,13-36.5l-6.9-8.8l11.2-4.1
			c0,0-3.8-8.6-8.8-11.1h0c-4.8-2.3-12.7-2.2-12.7-2.2S243.9,213.4,244.8,215.3z"/>
	</g>
	<path class="st5" d="M234.4,227.5h-4.8c-1.5,0-2.7-1.2-2.7-2.7V220c0-1.5,1.2-2.7,2.7-2.7h4.8c1.5,0,2.7,1.2,2.7,2.7v4.8
		C237.1,226.3,235.9,227.5,234.4,227.5z"/>
	<path class="st11" d="M234.4,227.5h-0.7c0.4,6.5-0.4,13.1-0.9,19.6c-1.1,13.8-1.1,27.7,0,41.5c0,0.5,0.1,1.1,0.3,1.6l-0.5,0.9
		l-4.5-8.8l-1.8-39l3.3-15.9l0.2-1h5.2l0.2,0.9C234.9,227.5,234.6,227.5,234.4,227.5z"/>
	<path class="st11" d="M235.1,227.4c-0.2,0-0.4,0.1-0.6,0.1h-4.8c-0.1,0-0.1,0-0.2,0c-1.4-0.1-2.5-1.3-2.5-2.7V220
		c0-1.5,1.2-2.7,2.7-2.7h3.4c0,3,0.5,6.1,0.7,9.2v0.1h1.2L235.1,227.4z"/>
	<path class="st7" d="M224.1,210.3l-11.4,14l17-7C229.7,217.3,225.4,217.5,224.1,210.3z"/>
	<path class="st7" d="M240.3,210.3l11.4,14l-17-7C234.6,217.3,239,217.5,240.3,210.3z"/>
	<path class="st9" d="M222.6,213.2c-1.5,3-3.5,8-3.3,14.3c0.4,11.2,1.3,30.9,2,45.6c0.2,4.7-13.6-35.5-13.6-35.5l5.8-8.8l-11.2-4.1
		c0,0,3.8-8.6,8.8-11.1h0c4.8-2.3,12.4-3.2,12.4-3.2S223.6,211.3,222.6,213.2z"/>
	<path class="st9" d="M241.3,213c1.5,3,3.5,8,3.3,14.3c-0.4,11.2,1.1,31.3,0.4,46c-0.2,4.7,11.2-35.9,11.2-35.9l-5.8-8.8l11.2-4.1
		c0,0-3.8-8.6-8.8-11.1h0c-4.8-2.3-12.4-3.2-12.4-3.2S240.4,211.1,241.3,213z"/>
	<path class="st11" d="M227.4,152.9c0,2.9,1.4,5.5,2,8.3c0.5,2.3,0.3,4.5-0.2,6.7c-1.9-1.5-3.7-2.9-5.9-3
		c-13.2-0.6-12.8,17.2-14.2,22.3c-0.5,1.8-2-11-2-12.2c0-6.4-3.4-24.2,3-24.4c2.1-0.1,9.2-4.8,9.4-3c0.2,0.9,0.9,1.4,1.7,1.4
		c0.6,0,1.1-0.3,1.5-0.8c0,0,7.4-3.8,8.1-2.7l0.2,0.2C228.9,147.6,227.5,150,227.4,152.9z"/>
	<g>
		<path class="st12" d="M231.7,186.2C231.7,186.2,231.7,186.2,231.7,186.2L231.7,186.2C231.8,186.2,231.8,186.2,231.7,186.2z"/>
		<polygon class="st12" points="231.7,186.2 231.7,186.2 231.7,186.2 		"/>
		<path class="st12" d="M231.7,186.2c0,0.1-0.1,0.2-0.1,0.2C231.8,186.6,232,186.2,231.7,186.2z"/>
		<path class="st12" d="M231.7,186.7L231.7,186.7c0,0.1,0,0.1,0,0.2c0,0.1-0.1,0.7,0.1,0.6c0.1,0,0.2-0.4,0.1-0.6
			C231.9,186.8,231.7,186.7,231.7,186.7z"/>
		<path class="st12" d="M235.5,188.3l0.1-0.1c0,0-0.5,0.1-0.3,0.4C235.4,188.9,235.9,188.3,235.5,188.3z"/>
		<path class="st12" d="M237.6,188.6c0-0.1,0-0.1-0.1-0.2c0,0-0.1,0-0.1,0c-0.2,0-0.4,0.2-0.3,0.4
			C237.1,188.9,237.5,188.7,237.6,188.6z"/>
		<path class="st12" d="M237.4,188.4C237.3,188.4,237.3,188.4,237.4,188.4c0.1,0,0.1,0,0.1,0L237.4,188.4z"/>
		<path class="st12" d="M240.8,200c-0.1,0-0.1,0.2-0.1,0.3c-0.1,0.1-0.2,0.2-0.3,0.3c-0.3,0.2-1.1,0.5-1,1c0,0.2,0.1,0.3,0,0.6
			c-0.1,0.2-0.4,0.6-0.3,0.8c0.2,0.7,0.8,0.2,1-0.2c0.2-0.5,0.2-1,0.5-1.3C241.1,200.9,240.8,200.5,240.8,200L240.8,200z"/>
		<path class="st1" d="M245.1,195.9l-0.1-1.3c-0.1-0.6-0.2-1-0.3-1.5c-1.4-4.2-4.4-4.3-6.3-5c-1.9-0.7-5.6-1.8-6.1-1.9
			c0,0,0,0-0.1,0c-0.5,0.1-4.1,1.3-6.1,1.9c-1.9,0.7-4.9,0.8-6.3,5c-0.1,0.4-0.2,0.9-0.3,1.5l-0.1,1.3c0,2.8,0.6,6.4,1.5,8.2
			c0.4,0.7,1,1.6,1.8,2.5l0.9,1c0.9,0.9,1.8,1.8,2.4,2.3c1.4,1,5.6,3.4,6.2,3.7c0,0,0,0,0,0c0,0,0,0,0,0c0.5-0.3,4.8-2.7,6.2-3.7
			c0.7-0.5,1.6-1.4,2.4-2.3l0.9-1c0.8-0.9,1.4-1.8,1.8-2.5C244.5,202.3,245.1,198.7,245.1,195.9z"/>
		<g>
			<path class="st13" d="M234.2,205.6c-0.2,0-0.3-0.1-0.3-0.3c0-0.2,0.1-0.3,0.3-0.4l5-0.7c0.2,0,0.3,0.1,0.4,0.3
				c0,0.2-0.1,0.3-0.3,0.4L234.2,205.6C234.3,205.6,234.2,205.6,234.2,205.6z"/>
		</g>
		<g>
			<path class="st13" d="M234.2,203.7c-0.1,0-0.2-0.1-0.2-0.2c0-0.1,0.1-0.2,0.2-0.2l5-0.7c0.1,0,0.2,0.1,0.2,0.2
				c0,0.1-0.1,0.2-0.2,0.2L234.2,203.7C234.2,203.7,234.2,203.7,234.2,203.7z"/>
		</g>
		<g>
			<path class="st13" d="M234.2,201.6C234.1,201.6,234.1,201.5,234.2,201.6c-0.1-0.1-0.1-0.2,0-0.2l5-0.7c0.1,0,0.1,0,0.1,0.1
				c0,0.1,0,0.1-0.1,0.1L234.2,201.6C234.2,201.6,234.2,201.6,234.2,201.6z"/>
		</g>
		<path class="st14" d="M220.7,190.9c-3.2,4.3-2.9,16.2,7.3,20.3C233,213.2,225.9,183.9,220.7,190.9z"/>
		<path class="st15" d="M232.3,186.2C232.3,186.2,232.2,186.2,232.3,186.2c-0.6,0.1-4.2,1.3-6.1,1.9c-1.9,0.7-4.9,0.8-6.3,5
			c-0.1,0.4-0.2,0.9-0.3,1.5l-0.1,1.3c0,2.8,0.6,6.4,1.5,8.2c0.4,0.7,1,1.6,1.8,2.5l0.9,1c0.9,0.9,1.8,1.8,2.4,2.3
			c1.4,1,5.6,3.4,6.2,3.7c0,0,0,0,0,0c0,0,0,0,0,0C232.3,209.4,232.3,191,232.3,186.2z"/>
		<g>
			<path class="st13" d="M230.6,205.6C230.6,205.6,230.5,205.6,230.6,205.6l-5-0.7c-0.2,0-0.3-0.2-0.3-0.4c0-0.2,0.2-0.3,0.4-0.3
				l5,0.7c0.2,0,0.3,0.2,0.3,0.4C230.9,205.5,230.7,205.6,230.6,205.6z"/>
		</g>
		<g>
			<path class="st13" d="M230.5,203.7C230.5,203.7,230.5,203.7,230.5,203.7l-5-0.7c-0.1,0-0.2-0.1-0.2-0.2c0-0.1,0.1-0.2,0.2-0.2
				l5,0.7c0.1,0,0.2,0.1,0.2,0.2C230.7,203.6,230.6,203.7,230.5,203.7z"/>
		</g>
		<g>
			<path class="st13" d="M230.5,201.6C230.5,201.6,230.5,201.6,230.5,201.6l-5-0.7c-0.1,0-0.1-0.1-0.1-0.1c0-0.1,0.1-0.1,0.1-0.1
				l5,0.7C230.6,201.4,230.6,201.5,230.5,201.6C230.6,201.5,230.6,201.6,230.5,201.6z"/>
		</g>
		<path class="st8" d="M237.7,192.8c0,0-4.2-2.2-5.5-2.2c-1.3,0-5.5,2.2-5.5,2.2s-1.2,0.3-0.6-0.9c0.6-1.1,4.8-2.8,6-2.8
			c1.4,0,5.4,1.7,6,2.8C238.9,193.2,237.7,192.8,237.7,192.8z"/>
		<g>
			<path class="st13" d="M232.2,212.7c0,0-0.1,0-0.1,0l0,0c-0.1-0.1-0.3-0.2-0.6-0.3c-0.1,0-0.1-0.1-0.1-0.2c0-0.1,0.1-0.1,0.2-0.1
				c0.3,0.1,0.5,0.3,0.6,0.3l0.3-0.1c0.1,0,0.2,0,0.2,0.1c0,0.1,0,0.2-0.1,0.2l-0.3,0.2C232.3,212.7,232.3,212.7,232.2,212.7z
				 M232.1,212.7L232.1,212.7L232.1,212.7z M233.6,212c0,0-0.1,0-0.1-0.1c0-0.1,0-0.2,0.1-0.2c0.3-0.2,0.6-0.4,1-0.6
				c0.1,0,0.2,0,0.2,0.1c0,0.1,0,0.2-0.1,0.2C234.3,211.6,233.9,211.8,233.6,212C233.6,212,233.6,212,233.6,212z M230.6,211.8
				C230.6,211.8,230.6,211.8,230.6,211.8c-0.4-0.2-0.7-0.4-1-0.6c-0.1,0-0.1-0.1-0.1-0.2c0-0.1,0.1-0.1,0.2-0.1
				c0.3,0.2,0.7,0.4,1,0.6c0.1,0,0.1,0.1,0.1,0.2C230.7,211.8,230.7,211.8,230.6,211.8z M235.5,210.8c0,0-0.1,0-0.1-0.1
				c0-0.1,0-0.2,0-0.2c0.3-0.2,0.7-0.4,1-0.6c0.1,0,0.2,0,0.2,0c0,0.1,0,0.2,0,0.2C236.2,210.4,235.9,210.6,235.5,210.8
				C235.5,210.8,235.5,210.8,235.5,210.8z M228.7,210.6C228.7,210.6,228.6,210.6,228.7,210.6c-0.4-0.2-0.8-0.4-1-0.6
				c-0.1,0-0.1-0.1,0-0.2c0-0.1,0.1-0.1,0.2,0c0.3,0.2,0.6,0.4,1,0.6c0.1,0,0.1,0.1,0,0.2C228.8,210.6,228.7,210.6,228.7,210.6z
				 M237.4,209.6c0,0-0.1,0-0.1-0.1c0-0.1,0-0.2,0-0.2c0.2-0.2,0.4-0.3,0.6-0.4c0.1-0.1,0.2-0.2,0.3-0.2c0.1-0.1,0.1,0,0.2,0
				s0,0.1,0,0.2c-0.1,0.1-0.2,0.2-0.3,0.2C237.9,209.3,237.7,209.4,237.4,209.6C237.5,209.6,237.4,209.6,237.4,209.6z M226.8,209.4
				C226.8,209.4,226.7,209.4,226.8,209.4c-0.2-0.1-0.3-0.2-0.4-0.3c-0.2-0.1-0.4-0.3-0.6-0.5c-0.1-0.1-0.1-0.1,0-0.2
				c0.1-0.1,0.1-0.1,0.2,0c0.2,0.2,0.4,0.3,0.6,0.5c0.1,0.1,0.2,0.1,0.3,0.2c0.1,0,0.1,0.1,0,0.2
				C226.9,209.4,226.8,209.4,226.8,209.4z M239.1,208.2c0,0-0.1,0-0.1,0c-0.1-0.1-0.1-0.1,0-0.2c0.3-0.2,0.5-0.5,0.8-0.8
				c0.1-0.1,0.1-0.1,0.2,0c0.1,0.1,0.1,0.1,0,0.2C239.8,207.7,239.5,207.9,239.1,208.2C239.2,208.2,239.2,208.2,239.1,208.2z
				 M225.1,208C225,208,225,208,225.1,208c-0.4-0.3-0.6-0.6-0.9-0.8c-0.1-0.1-0.1-0.1,0-0.2c0.1-0.1,0.1-0.1,0.2,0
				c0.3,0.3,0.5,0.5,0.8,0.8c0.1,0.1,0.1,0.1,0,0.2C225.2,208,225.1,208,225.1,208z M240.7,206.6
				C240.7,206.6,240.6,206.6,240.7,206.6c-0.2-0.1-0.2-0.2-0.1-0.2l0.4-0.4c0.1-0.1,0.2-0.3,0.3-0.4c0-0.1,0.1-0.1,0.2,0
				c0.1,0,0.1,0.1,0,0.2c-0.1,0.1-0.2,0.3-0.3,0.4l-0.4,0.5C240.8,206.6,240.7,206.6,240.7,206.6z M223.6,206.3c0,0-0.1,0-0.1,0
				l-0.2-0.2c-0.2-0.2-0.4-0.5-0.6-0.7c0-0.1,0-0.2,0-0.2c0.1,0,0.2,0,0.2,0c0.2,0.2,0.4,0.4,0.6,0.7l0.2,0.2
				C223.7,206.2,223.7,206.2,223.6,206.3C223.6,206.3,223.6,206.3,223.6,206.3z M242.1,204.9C242.1,204.9,242,204.8,242.1,204.9
				c-0.1-0.1-0.2-0.2-0.1-0.2c0.2-0.3,0.4-0.7,0.6-0.9c0-0.1,0.1-0.1,0.2-0.1c0.1,0,0.1,0.1,0.1,0.2c-0.2,0.3-0.4,0.6-0.6,1
				C242.2,204.8,242.1,204.9,242.1,204.9z M222.2,204.6c0,0-0.1,0-0.1-0.1c-0.2-0.3-0.3-0.5-0.4-0.7c0-0.1-0.1-0.2-0.1-0.3
				c0-0.1,0-0.2,0.1-0.2c0.1,0,0.2,0,0.2,0.1c0,0.1,0.1,0.2,0.1,0.3c0.1,0.2,0.2,0.4,0.4,0.7C222.3,204.4,222.3,204.5,222.2,204.6
				C222.2,204.6,222.2,204.6,222.2,204.6z M243.1,202.9C243.1,202.9,243.1,202.9,243.1,202.9c-0.1,0-0.2-0.1-0.1-0.2
				c0.1-0.3,0.2-0.7,0.3-1.1c0-0.1,0.1-0.1,0.2-0.1c0.1,0,0.1,0.1,0.1,0.2c-0.1,0.4-0.2,0.8-0.3,1.1
				C243.3,202.8,243.2,202.9,243.1,202.9z M221.2,202.5c-0.1,0-0.1,0-0.1-0.1c-0.1-0.3-0.2-0.7-0.3-1.1c0-0.1,0-0.2,0.1-0.2
				c0.1,0,0.2,0,0.2,0.1c0.1,0.4,0.2,0.7,0.3,1.1C221.4,202.4,221.3,202.5,221.2,202.5C221.2,202.5,221.2,202.5,221.2,202.5z
				 M243.7,200.7C243.7,200.7,243.7,200.7,243.7,200.7c-0.1,0-0.2-0.1-0.1-0.2c0.1-0.4,0.1-0.7,0.2-1.1c0-0.1,0.1-0.1,0.2-0.1
				c0.1,0,0.1,0.1,0.1,0.2c-0.1,0.4-0.1,0.8-0.2,1.1C243.8,200.7,243.8,200.7,243.7,200.7z M220.7,200.4c-0.1,0-0.1,0-0.1-0.1
				c-0.1-0.4-0.1-0.7-0.2-1.1c0-0.1,0-0.1,0.1-0.2c0.1,0,0.1,0,0.2,0.1c0,0.4,0.1,0.7,0.2,1.1C220.8,200.3,220.8,200.3,220.7,200.4
				C220.7,200.4,220.7,200.4,220.7,200.4z M244,198.5C244,198.5,244,198.5,244,198.5c-0.1,0-0.1-0.1-0.1-0.2c0-0.4,0.1-0.8,0.1-1.1
				c0-0.1,0.1-0.1,0.1-0.1c0.1,0,0.1,0.1,0.1,0.1c0,0.4,0,0.7-0.1,1.1C244.2,198.4,244.1,198.5,244,198.5z M220.4,198.1
				c-0.1,0-0.1-0.1-0.1-0.1c0-0.4-0.1-0.8-0.1-1.1c0-0.1,0.1-0.1,0.1-0.1c0.1,0,0.1,0.1,0.1,0.1c0,0.4,0,0.7,0.1,1.1
				C220.5,198.1,220.5,198.1,220.4,198.1C220.4,198.1,220.4,198.1,220.4,198.1z M244.1,196.3c-0.1,0-0.1-0.1-0.1-0.1l-0.1-1.1
				c0-0.1,0.1-0.1,0.1-0.2c0.1,0,0.1,0.1,0.2,0.1l0.1,1.1C244.3,196.2,244.2,196.3,244.1,196.3C244.1,196.3,244.1,196.3,244.1,196.3
				z M220.4,195.9C220.4,195.9,220.4,195.9,220.4,195.9c-0.1,0-0.1-0.1-0.1-0.2l0.1-0.9c0-0.1,0-0.2,0-0.3c0-0.1,0.1-0.1,0.2-0.1
				c0.1,0,0.1,0.1,0.1,0.2c0,0.1,0,0.2,0,0.3l-0.1,0.8C220.5,195.8,220.4,195.9,220.4,195.9z M243.9,194.1c-0.1,0-0.1,0-0.1-0.1
				c0-0.1-0.1-0.3-0.1-0.4c-0.1-0.2-0.2-0.5-0.3-0.7c0-0.1,0-0.2,0.1-0.2c0.1,0,0.2,0,0.2,0.1c0.1,0.2,0.2,0.5,0.3,0.7
				c0,0.1,0.1,0.2,0.1,0.4C244.1,194,244,194,243.9,194.1C243.9,194.1,243.9,194.1,243.9,194.1z M220.7,193.7
				C220.7,193.7,220.7,193.7,220.7,193.7c-0.1,0-0.2-0.1-0.1-0.2c0.1-0.4,0.3-0.7,0.4-1.1c0-0.1,0.1-0.1,0.2-0.1
				c0.1,0,0.1,0.1,0.1,0.2c-0.2,0.3-0.3,0.7-0.4,1C220.8,193.6,220.8,193.7,220.7,193.7z M243,192c0,0-0.1,0-0.1-0.1
				c-0.2-0.3-0.4-0.6-0.7-0.9c-0.1-0.1-0.1-0.1,0-0.2c0.1-0.1,0.1-0.1,0.2,0c0.3,0.3,0.5,0.6,0.7,0.9
				C243.2,191.9,243.1,191.9,243,192C243.1,192,243,192,243,192z M221.7,191.7C221.7,191.7,221.6,191.7,221.7,191.7
				c-0.1-0.1-0.2-0.2-0.1-0.2c0.2-0.3,0.5-0.6,0.8-0.8c0.1-0.1,0.1,0,0.2,0c0.1,0.1,0,0.1,0,0.2c-0.3,0.2-0.5,0.5-0.7,0.8
				C221.8,191.7,221.7,191.7,221.7,191.7z M241.4,190.4C241.4,190.4,241.4,190.4,241.4,190.4c-0.4-0.2-0.7-0.4-1-0.5
				c-0.1,0-0.1-0.1-0.1-0.2s0.1-0.1,0.2-0.1c0.4,0.2,0.7,0.3,1,0.5c0.1,0,0.1,0.1,0,0.2C241.5,190.4,241.5,190.4,241.4,190.4z
				 M223.4,190.2c0,0-0.1,0-0.1-0.1c0-0.1,0-0.2,0.1-0.2c0.3-0.2,0.7-0.3,1-0.5c0.1,0,0.2,0,0.2,0.1c0,0.1,0,0.2-0.1,0.2
				C224.1,189.9,223.7,190,223.4,190.2C223.4,190.2,223.4,190.2,223.4,190.2z M239.4,189.5C239.4,189.5,239.4,189.5,239.4,189.5
				c-0.2-0.1-0.4-0.1-0.6-0.2c-0.2,0-0.4-0.1-0.5-0.1c-0.1,0-0.1-0.1-0.1-0.2c0-0.1,0.1-0.1,0.2-0.1c0.2,0,0.3,0.1,0.5,0.1
				c0.2,0.1,0.4,0.1,0.6,0.2c0.1,0,0.1,0.1,0.1,0.2C239.5,189.5,239.5,189.5,239.4,189.5z M225.5,189.4c-0.1,0-0.1,0-0.1-0.1
				c0-0.1,0-0.2,0.1-0.2l0.2-0.1c0.3-0.1,0.6-0.2,0.9-0.3c0.1,0,0.2,0,0.2,0.1c0,0.1,0,0.2-0.1,0.2c-0.3,0.1-0.6,0.2-0.9,0.3
				L225.5,189.4C225.5,189.4,225.5,189.4,225.5,189.4z M237.3,188.9C237.2,188.9,237.2,188.9,237.3,188.9c-0.4-0.1-0.7-0.2-1.1-0.4
				c-0.1,0-0.1-0.1-0.1-0.2c0-0.1,0.1-0.1,0.2-0.1c0.4,0.1,0.8,0.2,1.1,0.4c0.1,0,0.1,0.1,0.1,0.2
				C237.4,188.8,237.3,188.9,237.3,188.9z M227.6,188.7c-0.1,0-0.1,0-0.1-0.1c0-0.1,0-0.2,0.1-0.2c0.3-0.1,0.7-0.2,1.1-0.3
				c0.1,0,0.2,0,0.2,0.1c0,0.1,0,0.2-0.1,0.2C228.3,188.5,228,188.6,227.6,188.7C227.6,188.7,227.6,188.7,227.6,188.7z M235.1,188.2
				C235.1,188.2,235.1,188.2,235.1,188.2c-0.4-0.1-0.8-0.2-1.1-0.3c-0.1,0-0.1-0.1-0.1-0.2s0.1-0.1,0.2-0.1c0.3,0.1,0.7,0.2,1.1,0.3
				c0.1,0,0.1,0.1,0.1,0.2C235.2,188.1,235.2,188.2,235.1,188.2z M229.7,188c-0.1,0-0.1,0-0.1-0.1c0-0.1,0-0.2,0.1-0.2
				c0.4-0.1,0.7-0.2,1.1-0.3c0.1,0,0.2,0,0.2,0.1c0,0.1,0,0.2-0.1,0.2C230.5,187.8,230.2,187.9,229.7,188
				C229.8,188,229.8,188,229.7,188z M233,187.5C233,187.5,232.9,187.5,233,187.5c-0.4-0.1-0.6-0.2-0.7-0.2c-0.1,0-0.2,0-0.3,0.1
				c-0.1,0-0.2,0-0.2-0.1c0-0.1,0-0.2,0.1-0.2c0.2,0,0.3-0.1,0.3-0.1c0,0,0,0,0.1,0c0,0,0.1,0,0.1,0c0.1,0,0.4,0.1,0.7,0.2
				c0.1,0,0.1,0.1,0.1,0.2C233.1,187.5,233,187.5,233,187.5z"/>
		</g>
		<path class="st16" d="M231.4,190.5c-0.2,0-0.3-0.1-0.4-0.3c-0.1-0.2,0-0.5,0.3-0.5c0.1,0,0.6-0.2,1-0.2c0.4,0,0.9,0.2,0.9,0.2
			c0.2,0.1,0.3,0.3,0.3,0.5c-0.1,0.2-0.3,0.3-0.5,0.3c-0.1-0.1-0.4-0.1-0.6-0.1c-0.3,0-0.6,0.1-0.7,0.1
			C231.5,190.5,231.4,190.5,231.4,190.5z"/>
	</g>
	<g>
		<path class="st1" d="M206.4,175.3c2.4,2.9,4.7,5.8,7,8.7c1.2,1.4,2.4,2.9,3.4,4.4c1.1,1.5,2.1,3.1,3,4.7l-0.1,0.1
			c-1.3-1.3-2.5-2.7-3.7-4.2c-1.2-1.4-2.2-3-3.3-4.5C210.6,181.4,208.4,178.4,206.4,175.3L206.4,175.3z"/>
	</g>
	<g>
		<path class="st1" d="M206.4,187.8c2.3,2.2,4.7,4.5,7,6.8c1.2,1.1,2.4,2.2,3.4,3.4c1.1,1.2,2.1,2.5,3,3.8l-0.1,0.1
			c-1.3-1-2.5-2.1-3.7-3.2c-1.2-1.1-2.2-2.4-3.3-3.6C210.6,192.7,208.4,190.3,206.4,187.8L206.4,187.8z"/>
	</g>
	<g>
		<path class="st1" d="M257.2,175.1c-2,3.1-4.1,6.1-6.1,9.1c-1,1.5-2,3.1-3.1,4.5c-1.1,1.4-2.3,2.9-3.6,4.2l-0.1-0.1
			c0.8-1.6,1.8-3.2,2.8-4.7c1-1.5,2.2-2.9,3.3-4.4C252.6,180.8,254.8,177.9,257.2,175.1L257.2,175.1z"/>
	</g>
	<g>
		<path class="st1" d="M257.4,187.5c-2.1,2.5-4.1,4.9-6.2,7.4c-1,1.2-2,2.5-3.2,3.6c-1.1,1.1-2.3,2.3-3.6,3.3l-0.1-0.1
			c0.9-1.4,1.9-2.6,2.9-3.9c1-1.2,2.2-2.3,3.3-3.5C252.7,192,255,189.7,257.4,187.5L257.4,187.5z"/>
	</g>
	<g>
		<path class="st17" d="M163.9,445.9h-13.7c-4.6,0-8.3-3.7-8.3-8.3v-64c0-4.6,3.7-8.3,8.3-8.3h13.7c4.6,0,8.3,3.7,8.3,8.3v64
			C172.2,442.1,168.5,445.9,163.9,445.9z"/>
		<path class="st18" d="M147.1,374.9h-3.5c-1.9,0-3.4-1.5-3.4-3.4V368c0-1.9,1.5-3.4,3.4-3.4h3.5c1.9,0,3.4,1.5,3.4,3.4v3.5
			C150.6,373.3,149,374.9,147.1,374.9z"/>
		<path class="st18" d="M170.2,374.9h-3.5c-1.9,0-3.4-1.5-3.4-3.4V368c0-1.9,1.5-3.4,3.4-3.4h3.5c1.9,0,3.4,1.5,3.4,3.4v3.5
			C173.6,373.3,172.1,374.9,170.2,374.9z"/>
		<path class="st18" d="M147.2,446.7h-3.5c-1.9,0-3.4-1.5-3.4-3.4v-3.5c0-1.9,1.5-3.4,3.4-3.4h3.5c1.9,0,3.4,1.5,3.4,3.4v3.5
			C150.6,445.2,149.1,446.7,147.2,446.7z"/>
		<path class="st18" d="M170.3,446.7h-3.5c-1.9,0-3.4-1.5-3.4-3.4v-3.5c0-1.9,1.5-3.4,3.4-3.4h3.5c1.9,0,3.4,1.5,3.4,3.4v3.5
			C173.7,445.2,172.2,446.7,170.3,446.7z"/>
		<path class="st19" d="M157.1,347.1L157.1,347.1c-1.7,0-3.1,1.4-3.1,3.1v15h5.9V350C160,348.4,158.7,347.1,157.1,347.1z"/>
		<g>
			<path class="st19" d="M157,365.2c0.2,6.6,0.3,13.2,0.4,19.7c0.1,6.6,0.1,13.2,0.1,19.7l-0.1,19.7l-0.1,9.9
				c-0.1,3.3-0.1,6.6-0.2,9.9c-0.1-3.3-0.2-6.6-0.2-9.9l-0.1-9.9l-0.1-19.7c0-6.6,0-13.2,0.1-19.7
				C156.7,378.4,156.8,371.8,157,365.2z"/>
		</g>
	</g>
</g>
<path class="st10" d="M497.9,167.9c0,0-6.1,42.3-3.4,62.4s53.8,8.7,53.8,8.7s5.9-70.6-1.9-77.6C538.5,154.3,497.9,167.9,497.9,167.9
	z"/>
<g>
	<path class="st10" d="M548,179.4c0,2.4,0.1,4.7,0.3,7c-0.1-0.1-0.2-0.1-0.3-0.2c-1.7,9.8-7.5,17.8-15.3,21.6
		c-0.9,0.5-1.6,1.3-1.7,2.3c-3.8-1-7.5-1.9-10.8-2c-1.9,0-4,0.3-6.2,0.7c-0.3-0.3-0.6-0.5-0.9-0.6c-8.3-3.7-14.6-12-16.2-22.2
		c-0.7,0.6-1.5,1-2.3,1c1.3-4.5,2.2-9.4,2.8-14.3c0.4-2.9,0.7-5.8,1-8.6c2.2-20.9,28.7-17.5,34.3-17.1c5.1,0.3,9.9,2.4,13.1,8.5
		c2.9,5.6,2.8,11.7,2.5,18.1C548.1,175.5,548,177.4,548,179.4z"/>
</g>
<path class="st4" d="M545.7,428.4c-1.1-0.4-11.1-2.4-11.1-3.6c0,0,6.2-50.5,10.5-83.5c1.2-9,7-14.4,6.8-19.8
	c0.3-0.1,0.6-0.1,0.9-0.3c0.2-0.1,0.4-0.1,0.6-0.1c1,0.1,1.5,1.2,1,2.1c-1.4,2.2-6.3,10.4-2.7,12.1c4.1,1.9,13.6-8.1,12.4-25.3
	c0,0,0-0.1,0-0.1l-2.6-58.6v0l-0.7-15.6c0.1-8.1-5.1-14.9-13.2-15.7c-5.4-0.5-9.7-2-12.1-3c-1.2-0.5-1.9-0.9-1.9-0.9
	c-0.9,0-1.8-2.3-2.5-4.3c-0.2-0.5-0.2-1.1-0.1-1.6c0.2-1,0.8-1.8,1.7-2.3c7.8-3.8,13.7-11.9,15.3-21.6c0.1,0.1,0.2,0.1,0.3,0.2
	c0.6,0.4,1.2,0.6,1.8,0.6c2.5,0,4.6-3.2,4.6-7.1c0-3.9-2-7.1-4.6-7.1c-0.7,0-1.4,0.2-1.9,0.7c-0.1,0.1-0.2,0.2-0.3,0.3
	c-0.1-0.5-0.2-1-0.3-1.5c0,2-1,9.4-1.6,7.2c-1.8-6.1-7.2-17-10.6-16.1c-5,1.2-2.4-1.8-8.5-1.8c-6.3,0-9.5-0.7-14.7,0.1
	c-4.3,0.7-11.8,11.4-13.2,16.5c-0.5,1.8-2.7,8.4-2,7.7c1.6,10.2,7.9,18.6,16.2,22.2c0.4,0.1,0.6,0.4,0.9,0.6c0.8,0.8,1.1,1.9,0.8,3
	c-0.5,1.9-1.2,4.2-2.1,4.2l-0.8,0.3l-13.3,4.4c-7.2,0.7-11.8,6.7-11.8,14c0,5.3-0.2,11.8-0.5,18.6c-0.9,25.5-3,56.6-3,56.6
	c0,0,0,0.1,0,0.1c-1.1,17.2,8.3,27.2,12.4,25.3c3.6-1.7-1.3-9.9-2.7-12.1c-0.5-0.8,0-2,1-2.1c0.2,0,0.4,0,0.6,0.1
	c1.7,0.6,2.6,0.5,3.1-0.2c0.9,5.3,4.4,11.6,5.4,20.3c3.8,33.7,9.1,83.5,9.1,83.5c0,1.2-10.3,3.1-11.4,3.6
	c-5.1,1.9-18.3,7.5-10.4,13.1c7.7,5.5,23.3,2.2,28.7,0.6c1.2-0.3,2.1-1.5,2.1-2.8l1.5-103l-1.5-10.9c0-1.6,0.3-2.9,1.9-2.9
	c0.1,0,0.2,0,0.3,0c0,0,0,0,0,0c0.1,0,0.1,0,0.2,0c1.6,0,2.9,1.3,2.9,2.9l-1.4,11.4l1.4,102.5c0,1.3,0.9,2.4,2.1,2.8
	c5.4,1.5,20,4.9,27.7-0.6C564,435.9,550.8,430.3,545.7,428.4z M545,250.6c0.1-1.4,0.3-2.7,0.8-4c0.7-2,3.7-1.8,3.9,0.4
	c0.6,4.4,1.2,9.3,1.8,14.3c2,17,3.5,35.5,2.4,45c-0.2,1.9-2.2,5.8-3.4,9.3c-0.9-2.3-2.1-4.9-3.5-7.6c-3.8-7.6-8.4-16.1-8.5-22
	C538.2,277,545,250.6,545,250.6z M497.4,317.2c-1.1-3.7-3.7-8.7-4-10.9c-1.1-9.2,0.4-26.7,2.2-43.1c0.5-4.4,1-8.8,1.6-12.8
	c0.3-2.5,3.9-2.3,4.1,0.2v0.1c0,0,7.7,26.3,7.6,35.5c-0.1,6.6-4.9,14.8-8.2,22C499.1,311.4,497.8,314.6,497.4,317.2z"/>
<path class="st20" d="M524.2,363.7l-20-1.5c-4.6-14.8-9.5-40.7-8.7-46.8c0.9-6.5,5.3-10.6,5.3-10.6h47.1c0,0,5,4.3,6.4,12.3
	c1,5.8-6.4,33.5-10.5,45.1L524.2,363.7"/>
<path class="st21" d="M545.1,297.3l5.6,10.8H498l4.9-12.4c1.2-6.4,1.4-13,0.4-19.5l-3-19.5l-1.9,9.4l-14.2-1.7l0.6-28.9
	c0.3-7.9,5.5-14.7,13.1-17l13.2-4.1l14.8,34.9l10.5-34.9l15.5,3.4c6.5,1.4,11.3,6.9,11.9,13.5l0.4,29.9l-14.3,1.7l-1.4-9.2l-3.8,19
	C543.1,280.8,543.2,289.2,545.1,297.3z"/>
<path class="st4" d="M493,323.3c1.4,2.2,6.3,10.4,2.7,12.1c-4.1,1.9-13.6-8.1-12.4-25.3c0,0,0-0.1,0-0.1c0,0,0-0.6,0.1-1.8h10.5
	c1.8,5.2,7.7,15.7,0.6,13.2c-0.2-0.1-0.4-0.1-0.6-0.1C492.9,321.2,492.5,322.4,493,323.3z"/>
<path class="st4" d="M551.7,335.3c-3.6-1.6,1.3-9.8,2.7-12.1c0.5-0.8,0-2-0.9-2.1c-0.2,0-0.4,0-0.6,0.1c-7.1,2.5-1.2-8,0.6-13.2
	h10.6l0.1,1.8c0,0,0,0.1,0,0.1C565.3,327.2,555.8,337.2,551.7,335.3z"/>
<circle class="st22" cx="526.1" cy="256.7" r="1.4"/>
<circle class="st15" cx="526.1" cy="270.2" r="1.4"/>
<circle class="st15" cx="526.1" cy="283.7" r="1.4"/>
<circle class="st15" cx="526.1" cy="298.7" r="1.4"/>
<g>
	<path class="st1" d="M496.4,185c2.3,2.2,4.7,4.5,7,6.8c1.2,1.1,2.4,2.2,3.4,3.4c1.1,1.2,2.1,2.5,3,3.8l-0.1,0.1
		c-1.3-1-2.5-2.1-3.7-3.2c-1.2-1.1-2.2-2.4-3.3-3.6C500.6,189.9,498.5,187.5,496.4,185L496.4,185z"/>
</g>
<g>
	<path class="st12" d="M522.4,184.8C522.4,184.8,522.4,184.8,522.4,184.8L522.4,184.8C522.4,184.8,522.4,184.8,522.4,184.8z"/>
	<polygon class="st12" points="522.3,184.8 522.3,184.8 522.3,184.8 	"/>
	<path class="st12" d="M522.3,184.8c0,0.1-0.1,0.2-0.1,0.2C522.5,185.3,522.6,184.8,522.3,184.8z"/>
	<path class="st12" d="M522.3,185.3L522.3,185.3c0,0.1,0,0.1,0,0.2c0,0.1-0.1,0.7,0.1,0.6c0.1,0,0.2-0.4,0.1-0.6
		C522.5,185.4,522.3,185.3,522.3,185.3z"/>
	<path class="st12" d="M526.1,187l0.1-0.1c0,0-0.5,0.1-0.3,0.4C526.1,187.5,526.5,187,526.1,187z"/>
	<path class="st12" d="M528.2,187.2c0-0.1,0-0.1-0.1-0.2c0,0-0.1,0-0.1,0c-0.2,0-0.4,0.2-0.3,0.4
		C527.8,187.6,528.2,187.4,528.2,187.2z"/>
	<path class="st12" d="M528,187C528,187,528,187,528,187c0.1,0,0.1,0,0.1,0L528,187z"/>
	<path class="st12" d="M531.4,198.6c-0.1,0-0.1,0.2-0.1,0.3c-0.1,0.1-0.2,0.2-0.3,0.3c-0.3,0.2-1.1,0.5-1,1c0,0.2,0.1,0.3,0,0.6
		c-0.1,0.2-0.4,0.6-0.3,0.8c0.2,0.7,0.8,0.2,1-0.2c0.2-0.5,0.2-1,0.5-1.3C531.7,199.5,531.4,199.2,531.4,198.6L531.4,198.6z"/>
	<path class="st1" d="M535.7,194.5l-0.1-1.3c-0.1-0.6-0.2-1-0.3-1.5c-1.4-4.2-4.4-4.3-6.3-5c-1.9-0.7-5.6-1.8-6.1-1.9c0,0,0,0-0.1,0
		c-0.5,0.1-4.1,1.3-6.1,1.9c-1.9,0.7-4.9,0.8-6.3,5c-0.1,0.4-0.2,0.9-0.3,1.5l-0.1,1.3c0,2.8,0.6,6.4,1.5,8.2c0.4,0.7,1,1.6,1.8,2.5
		l0.9,1c0.9,0.9,1.8,1.8,2.4,2.3c1.4,1,5.6,3.4,6.2,3.7c0,0,0,0,0,0c0,0,0,0,0,0c0.5-0.3,4.8-2.7,6.2-3.7c0.7-0.5,1.6-1.4,2.4-2.3
		l0.9-1c0.8-0.9,1.4-1.8,1.8-2.5C535.1,200.9,535.7,197.3,535.7,194.5z"/>
	<g>
		<path class="st13" d="M524.9,204.2c-0.2,0-0.3-0.1-0.3-0.3c0-0.2,0.1-0.3,0.3-0.4l5-0.7c0.2,0,0.3,0.1,0.4,0.3
			c0,0.2-0.1,0.3-0.3,0.4L524.9,204.2C524.9,204.2,524.9,204.2,524.9,204.2z"/>
	</g>
	<g>
		<path class="st13" d="M524.8,202.3c-0.1,0-0.2-0.1-0.2-0.2c0-0.1,0.1-0.2,0.2-0.2l5-0.7c0.1,0,0.2,0.1,0.2,0.2
			c0,0.1-0.1,0.2-0.2,0.2L524.8,202.3C524.8,202.3,524.8,202.3,524.8,202.3z"/>
	</g>
	<g>
		<path class="st13" d="M524.8,200.2C524.8,200.2,524.7,200.2,524.8,200.2c-0.1-0.1-0.1-0.2,0-0.2l5-0.7c0.1,0,0.1,0,0.1,0.1
			c0,0.1,0,0.1-0.1,0.1L524.8,200.2C524.8,200.2,524.8,200.2,524.8,200.2z"/>
	</g>
	<path class="st14" d="M511.3,189.6c-3.2,4.3-2.9,16.2,7.3,20.3C523.6,211.9,516.5,182.6,511.3,189.6z"/>
	<path class="st15" d="M522.9,184.8C522.9,184.8,522.8,184.8,522.9,184.8c-0.6,0.1-4.2,1.3-6.1,1.9c-1.9,0.7-4.9,0.8-6.3,5
		c-0.1,0.4-0.2,0.9-0.3,1.5l-0.1,1.3c0,2.8,0.6,6.4,1.5,8.2c0.4,0.7,1,1.6,1.8,2.5l0.9,1c0.9,0.9,1.8,1.8,2.4,2.3
		c1.4,1,5.6,3.4,6.2,3.7c0,0,0,0,0,0c0,0,0,0,0,0C522.9,208,522.9,189.7,522.9,184.8z"/>
	<g>
		<path class="st13" d="M521.2,204.2C521.2,204.2,521.2,204.2,521.2,204.2l-5-0.7c-0.2,0-0.3-0.2-0.3-0.4c0-0.2,0.2-0.3,0.4-0.3
			l5,0.7c0.2,0,0.3,0.2,0.3,0.4C521.5,204.1,521.4,204.2,521.2,204.2z"/>
	</g>
	<g>
		<path class="st13" d="M521.1,202.3C521.1,202.3,521.1,202.3,521.1,202.3l-5-0.7c-0.1,0-0.2-0.1-0.2-0.2c0-0.1,0.1-0.2,0.2-0.2
			l5,0.7c0.1,0,0.2,0.1,0.2,0.2C521.3,202.2,521.2,202.3,521.1,202.3z"/>
	</g>
	<g>
		<path class="st13" d="M521.1,200.2C521.1,200.2,521.1,200.2,521.1,200.2l-5-0.7c-0.1,0-0.1-0.1-0.1-0.1c0-0.1,0.1-0.1,0.1-0.1
			l5,0.7C521.2,200,521.2,200.1,521.1,200.2C521.2,200.2,521.2,200.2,521.1,200.2z"/>
	</g>
	<path class="st8" d="M528.3,191.5c0,0-4.2-2.2-5.5-2.2c-1.3,0-5.5,2.2-5.5,2.2s-1.2,0.3-0.6-0.9c0.6-1.1,4.8-2.8,6-2.8
		c1.4,0,5.4,1.7,6,2.8C529.5,191.8,528.3,191.5,528.3,191.5z"/>
	<g>
		<path class="st13" d="M522.9,211.3c0,0-0.1,0-0.1,0l0,0c-0.1-0.1-0.3-0.2-0.6-0.3c-0.1,0-0.1-0.1-0.1-0.2c0-0.1,0.1-0.1,0.2-0.1
			c0.3,0.1,0.5,0.3,0.6,0.3l0.3-0.1c0.1,0,0.2,0,0.2,0.1c0,0.1,0,0.2-0.1,0.2l-0.3,0.2C522.9,211.3,522.9,211.3,522.9,211.3z
			 M522.8,211.3L522.8,211.3L522.8,211.3z M524.2,210.6c0,0-0.1,0-0.1-0.1c0-0.1,0-0.2,0.1-0.2c0.3-0.2,0.6-0.4,1-0.6
			c0.1,0,0.2,0,0.2,0.1c0,0.1,0,0.2-0.1,0.2C524.9,210.2,524.5,210.4,524.2,210.6C524.2,210.6,524.2,210.6,524.2,210.6z
			 M521.2,210.4C521.2,210.4,521.2,210.4,521.2,210.4c-0.4-0.2-0.7-0.4-1-0.6c-0.1,0-0.1-0.1-0.1-0.2c0-0.1,0.1-0.1,0.2-0.1
			c0.3,0.2,0.7,0.4,1,0.6c0.1,0,0.1,0.1,0.1,0.2C521.3,210.4,521.3,210.4,521.2,210.4z M526.1,209.5c0,0-0.1,0-0.1-0.1
			c0-0.1,0-0.2,0-0.2c0.4-0.2,0.7-0.4,1-0.6c0.1,0,0.2,0,0.2,0c0,0.1,0,0.2,0,0.2C526.9,209,526.5,209.2,526.1,209.5
			C526.2,209.5,526.1,209.5,526.1,209.5z M519.3,209.3C519.3,209.3,519.3,209.3,519.3,209.3c-0.4-0.2-0.8-0.4-1-0.6
			c-0.1,0-0.1-0.1,0-0.2c0-0.1,0.1-0.1,0.2,0c0.3,0.2,0.6,0.4,1,0.6c0.1,0,0.1,0.1,0,0.2C519.4,209.3,519.4,209.3,519.3,209.3z
			 M528,208.3c0,0-0.1,0-0.1-0.1c0-0.1,0-0.2,0-0.2c0.2-0.2,0.4-0.3,0.6-0.4c0.1-0.1,0.2-0.2,0.3-0.2c0.1-0.1,0.1,0,0.2,0
			c0.1,0.1,0,0.1,0,0.2c-0.1,0.1-0.2,0.2-0.3,0.2C528.6,207.9,528.4,208.1,528,208.3C528.1,208.3,528.1,208.3,528,208.3z
			 M517.4,208.1C517.4,208.1,517.4,208.1,517.4,208.1c-0.2-0.1-0.3-0.2-0.4-0.3c-0.2-0.1-0.4-0.3-0.6-0.5c-0.1-0.1-0.1-0.1,0-0.2
			c0.1-0.1,0.1-0.1,0.2,0c0.2,0.2,0.4,0.3,0.6,0.5c0.1,0.1,0.2,0.1,0.3,0.2c0.1,0,0.1,0.1,0,0.2
			C517.5,208.1,517.5,208.1,517.4,208.1z M529.8,206.9c0,0-0.1,0-0.1,0c-0.1-0.1-0.1-0.1,0-0.2c0.3-0.2,0.5-0.5,0.8-0.8
			c0.1-0.1,0.1-0.1,0.2,0c0.1,0.1,0.1,0.1,0,0.2C530.4,206.3,530.1,206.6,529.8,206.9C529.8,206.8,529.8,206.9,529.8,206.9z
			 M515.7,206.6C515.7,206.6,515.6,206.6,515.7,206.6c-0.4-0.3-0.6-0.6-0.9-0.8c-0.1-0.1-0.1-0.1,0-0.2c0.1-0.1,0.1-0.1,0.2,0
			c0.3,0.3,0.5,0.5,0.8,0.8c0.1,0.1,0.1,0.1,0,0.2C515.8,206.6,515.7,206.6,515.7,206.6z M531.3,205.2
			C531.3,205.2,531.2,205.2,531.3,205.2c-0.2-0.1-0.2-0.2-0.1-0.2l0.4-0.4c0.1-0.1,0.2-0.3,0.3-0.4c0-0.1,0.1-0.1,0.2,0
			c0.1,0,0.1,0.1,0,0.2c-0.1,0.1-0.2,0.3-0.3,0.4l-0.4,0.5C531.4,205.2,531.4,205.2,531.3,205.2z M514.2,205c0,0-0.1,0-0.1,0
			l-0.2-0.2c-0.2-0.2-0.4-0.5-0.6-0.7c0-0.1,0-0.2,0-0.2c0.1,0,0.2,0,0.2,0c0.2,0.2,0.4,0.4,0.6,0.7l0.2,0.2
			C514.3,204.8,514.3,204.9,514.2,205C514.2,205,514.2,205,514.2,205z M532.7,203.5C532.7,203.5,532.7,203.5,532.7,203.5
			c-0.1-0.1-0.2-0.2-0.1-0.2c0.2-0.3,0.4-0.7,0.6-0.9c0-0.1,0.1-0.1,0.2-0.1c0.1,0,0.1,0.1,0.1,0.2c-0.2,0.3-0.4,0.6-0.6,1
			C532.8,203.5,532.8,203.5,532.7,203.5z M512.8,203.2c0,0-0.1,0-0.1-0.1c-0.2-0.3-0.3-0.5-0.4-0.7c0-0.1-0.1-0.2-0.1-0.3
			c0-0.1,0-0.2,0.1-0.2c0.1,0,0.2,0,0.2,0.1c0,0.1,0.1,0.2,0.1,0.3c0.1,0.2,0.2,0.4,0.4,0.7C513,203.1,512.9,203.1,512.8,203.2
			C512.9,203.2,512.8,203.2,512.8,203.2z M533.8,201.5C533.8,201.5,533.7,201.5,533.8,201.5c-0.1,0-0.2-0.1-0.1-0.2
			c0.1-0.3,0.2-0.7,0.3-1.1c0-0.1,0.1-0.1,0.2-0.1c0.1,0,0.1,0.1,0.1,0.2c-0.1,0.4-0.2,0.8-0.3,1.1
			C533.9,201.5,533.8,201.5,533.8,201.5z M511.8,201.2c-0.1,0-0.1,0-0.1-0.1c-0.1-0.3-0.2-0.7-0.3-1.1c0-0.1,0-0.2,0.1-0.2
			c0.1,0,0.2,0,0.2,0.1c0.1,0.4,0.2,0.7,0.3,1.1C512,201.1,512,201.2,511.8,201.2C511.9,201.2,511.9,201.2,511.8,201.2z
			 M534.3,199.4C534.3,199.4,534.3,199.4,534.3,199.4c-0.1,0-0.2-0.1-0.1-0.2c0.1-0.4,0.1-0.7,0.2-1.1c0-0.1,0.1-0.1,0.2-0.1
			c0.1,0,0.1,0.1,0.1,0.2c-0.1,0.4-0.1,0.8-0.2,1.1C534.5,199.3,534.4,199.4,534.3,199.4z M511.3,199c-0.1,0-0.1,0-0.1-0.1
			c-0.1-0.4-0.1-0.7-0.2-1.1c0-0.1,0-0.1,0.1-0.2c0.1,0,0.1,0,0.2,0.1c0,0.4,0.1,0.7,0.2,1.1C511.5,198.9,511.4,199,511.3,199
			C511.3,199,511.3,199,511.3,199z M534.7,197.1C534.7,197.1,534.7,197.1,534.7,197.1c-0.1,0-0.1-0.1-0.1-0.2c0-0.4,0.1-0.8,0.1-1.1
			c0-0.1,0.1-0.1,0.1-0.1c0.1,0,0.1,0.1,0.1,0.1c0,0.4,0,0.7-0.1,1.1C534.8,197.1,534.7,197.1,534.7,197.1z M511,196.8
			c-0.1,0-0.1-0.1-0.1-0.1c0-0.4-0.1-0.8-0.1-1.1c0-0.1,0.1-0.1,0.1-0.1c0.1,0,0.1,0.1,0.1,0.1c0,0.4,0,0.7,0.1,1.1
			C511.2,196.7,511.1,196.8,511,196.8C511,196.8,511,196.8,511,196.8z M534.8,194.9c-0.1,0-0.1-0.1-0.1-0.1l-0.1-1.1
			c0-0.1,0.1-0.1,0.1-0.2c0.1,0,0.1,0.1,0.2,0.1l0.1,1.1C534.9,194.9,534.9,194.9,534.8,194.9C534.8,194.9,534.8,194.9,534.8,194.9z
			 M511,194.5C511,194.5,511,194.5,511,194.5c-0.1,0-0.1-0.1-0.1-0.2l0.1-0.9c0-0.1,0-0.2,0-0.3c0-0.1,0.1-0.1,0.2-0.1
			c0.1,0,0.1,0.1,0.1,0.2c0,0.1,0,0.2,0,0.3l-0.1,0.8C511.1,194.5,511.1,194.5,511,194.5z M534.5,192.7c-0.1,0-0.1,0-0.1-0.1
			c0-0.1-0.1-0.3-0.1-0.4c-0.1-0.2-0.2-0.5-0.3-0.7c0-0.1,0-0.2,0.1-0.2c0.1,0,0.2,0,0.2,0.1c0.1,0.2,0.2,0.5,0.3,0.7
			c0,0.1,0.1,0.2,0.1,0.4C534.7,192.6,534.6,192.7,534.5,192.7C534.5,192.7,534.5,192.7,534.5,192.7z M511.3,192.3
			C511.3,192.3,511.3,192.3,511.3,192.3c-0.1,0-0.2-0.1-0.1-0.2c0.1-0.4,0.3-0.7,0.4-1.1c0-0.1,0.1-0.1,0.2-0.1
			c0.1,0,0.1,0.1,0.1,0.2c-0.2,0.3-0.3,0.7-0.4,1C511.4,192.3,511.4,192.3,511.3,192.3z M533.6,190.7c0,0-0.1,0-0.1-0.1
			c-0.2-0.3-0.4-0.6-0.7-0.9c-0.1-0.1-0.1-0.1,0-0.2c0.1-0.1,0.1-0.1,0.2,0c0.3,0.3,0.5,0.6,0.7,0.9
			C533.8,190.5,533.8,190.6,533.6,190.7C533.7,190.6,533.7,190.7,533.6,190.7z M512.3,190.3C512.3,190.3,512.3,190.3,512.3,190.3
			c-0.1-0.1-0.2-0.2-0.1-0.2c0.2-0.3,0.5-0.6,0.8-0.8c0.1-0.1,0.1,0,0.2,0c0.1,0.1,0,0.1,0,0.2c-0.3,0.2-0.5,0.5-0.7,0.8
			C512.4,190.3,512.4,190.3,512.3,190.3z M532.1,189.1C532,189.1,532,189.1,532.1,189.1c-0.4-0.2-0.7-0.4-1-0.5
			c-0.1,0-0.1-0.1-0.1-0.2s0.1-0.1,0.2-0.1c0.4,0.2,0.7,0.3,1,0.5c0.1,0,0.1,0.1,0,0.2C532.2,189,532.1,189.1,532.1,189.1z
			 M514,188.9c0,0-0.1,0-0.1-0.1c0-0.1,0-0.2,0.1-0.2c0.3-0.2,0.7-0.3,1-0.5c0.1,0,0.2,0,0.2,0.1c0,0.1,0,0.2-0.1,0.2
			C514.7,188.5,514.4,188.7,514,188.9C514,188.9,514,188.9,514,188.9z M530,188.2C530,188.2,530,188.2,530,188.2
			c-0.2-0.1-0.4-0.1-0.6-0.2c-0.2,0-0.4-0.1-0.5-0.1c-0.1,0-0.1-0.1-0.1-0.2c0-0.1,0.1-0.1,0.2-0.1c0.2,0,0.3,0.1,0.5,0.1
			c0.2,0.1,0.4,0.1,0.6,0.2c0.1,0,0.1,0.1,0.1,0.2C530.1,188.1,530.1,188.2,530,188.2z M516.1,188.1c-0.1,0-0.1,0-0.1-0.1
			c0-0.1,0-0.2,0.1-0.2l0.2-0.1c0.3-0.1,0.6-0.2,0.9-0.3c0.1,0,0.2,0,0.2,0.1c0,0.1,0,0.2-0.1,0.2c-0.3,0.1-0.6,0.2-0.9,0.3
			L516.1,188.1C516.1,188.1,516.1,188.1,516.1,188.1z M527.9,187.5C527.9,187.5,527.8,187.5,527.9,187.5c-0.4-0.1-0.7-0.2-1.1-0.4
			c-0.1,0-0.1-0.1-0.1-0.2c0-0.1,0.1-0.1,0.2-0.1c0.4,0.1,0.8,0.2,1.1,0.4c0.1,0,0.1,0.1,0.1,0.2C528,187.5,527.9,187.5,527.9,187.5
			z M518.2,187.4c-0.1,0-0.1,0-0.1-0.1c0-0.1,0-0.2,0.1-0.2c0.3-0.1,0.7-0.2,1.1-0.3c0.1,0,0.2,0,0.2,0.1c0,0.1,0,0.2-0.1,0.2
			C519,187.1,518.6,187.3,518.2,187.4C518.3,187.4,518.2,187.4,518.2,187.4z M525.7,186.8C525.7,186.8,525.7,186.8,525.7,186.8
			c-0.4-0.1-0.8-0.2-1.1-0.3c-0.1,0-0.1-0.1-0.1-0.2c0-0.1,0.1-0.1,0.2-0.1c0.3,0.1,0.7,0.2,1.1,0.3c0.1,0,0.1,0.1,0.1,0.2
			C525.9,186.8,525.8,186.8,525.7,186.8z M520.4,186.7c-0.1,0-0.1,0-0.1-0.1c0-0.1,0-0.2,0.1-0.2c0.4-0.1,0.7-0.2,1.1-0.3
			c0.1,0,0.2,0,0.2,0.1c0,0.1,0,0.2-0.1,0.2C521.2,186.4,520.8,186.6,520.4,186.7C520.4,186.7,520.4,186.7,520.4,186.7z
			 M523.6,186.1C523.6,186.1,523.6,186.1,523.6,186.1c-0.4-0.1-0.6-0.2-0.7-0.2c-0.1,0-0.2,0-0.3,0.1c-0.1,0-0.2,0-0.2-0.1
			c0-0.1,0-0.2,0.1-0.2c0.2,0,0.3-0.1,0.3-0.1c0,0,0,0,0.1,0c0,0,0.1,0,0.1,0c0.1,0,0.4,0.1,0.7,0.2c0.1,0,0.1,0.1,0.1,0.2
			C523.7,186.1,523.7,186.1,523.6,186.1z"/>
	</g>
	<path class="st16" d="M522,189.2c-0.2,0-0.3-0.1-0.4-0.3c-0.1-0.2,0-0.5,0.3-0.5c0.1,0,0.6-0.2,1-0.2c0.4,0,0.9,0.2,0.9,0.2
		c0.2,0.1,0.3,0.3,0.3,0.5c-0.1,0.2-0.3,0.3-0.5,0.3c-0.1-0.1-0.4-0.1-0.6-0.1c-0.3,0-0.6,0.1-0.7,0.1
		C522.1,189.2,522,189.2,522,189.2z"/>
</g>
<g>
	<path class="st1" d="M497,173.9c2.4,2.9,4.7,5.8,7,8.7c1.2,1.4,2.4,2.9,3.4,4.4c1.1,1.5,2.1,3.1,3,4.7l-0.1,0.1
		c-1.3-1.3-2.5-2.7-3.7-4.2c-1.2-1.4-2.2-3-3.3-4.5C501.2,180,499,177,497,173.9L497,173.9z"/>
</g>
<g>
	<path class="st1" d="M547.8,173.7c-2,3.1-4.1,6.1-6.1,9.1c-1,1.5-2,3.1-3.1,4.5c-1.1,1.4-2.3,2.9-3.6,4.2l-0.1-0.1
		c0.8-1.6,1.8-3.2,2.8-4.7c1-1.5,2.2-2.9,3.3-4.4C543.2,179.4,545.5,176.5,547.8,173.7L547.8,173.7z"/>
</g>
<g>
	<path class="st1" d="M548,186.1c-2.1,2.5-4.1,4.9-6.2,7.4c-1,1.2-2,2.5-3.2,3.6c-1.1,1.1-2.3,2.3-3.6,3.3l-0.1-0.1
		c0.9-1.4,1.9-2.6,2.9-3.9c1-1.2,2.2-2.3,3.3-3.5C543.4,190.6,545.6,188.3,548,186.1L548,186.1z"/>
</g>
<path class="st10" d="M497.3,172.7c-5.4,16.9-4.1,71-4.1,71c-0.1,3.7,4.5,5.4,6.9,2.7c0.3-0.3,0.6-0.7,0.8-1.1
	c2.3-3.1,3.5-1.1,4.2,1.1c0.3,1.2,1.9,1.4,2.5,0.4c0.4-0.6,0.8-1.2,1.2-1.5c1.3-1.2,2.6-0.7,3.7,0.4c1,1,2.7,0.2,2.6-1.2
	c0,0-25.8-76.7,7-85.2C527.3,158,503,155,497.3,172.7z"/>
<path class="st20" d="M510.2,423.9l11.7,3.3L523,444l-23.8,2.2c-4.9,0.5-9.6-2-11.9-6.3c-1.6-3.1-1.7-6.7,2.9-9.8
	C496.8,425.8,510.2,423.9,510.2,423.9z"/>
<path class="st20" d="M537.2,423.9l-11.7,3.3l-1.1,16.8l23.8,2.2c4.9,0.5,9.6-2,11.9-6.3c1.6-3.1,1.7-6.7-2.9-9.8
	C550.6,425.8,537.2,423.9,537.2,423.9z"/>
<path class="st23" d="M846.3,316.6c0,0,4,82,61.3,72.4"/>
<g>
	<path class="st24" d="M939.8,419.4c-1.6,0-3-1.3-3.1-2.9c-0.1-1.7,1.2-3.2,2.9-3.3c0.1,0,5.1-0.5,8.1-4.6c2.8-3.8,3.3-9.5,1.6-17
		c-0.4-1.7,0.7-3.4,2.4-3.8c1.7-0.4,3.4,0.7,3.8,2.4c2.1,9.5,1.2,16.9-2.8,22.2c-4.8,6.4-12.3,7-12.7,7
		C939.9,419.4,939.9,419.4,939.8,419.4z"/>
</g>
<ellipse class="st24" cx="890.4" cy="426.8" rx="13.9" ry="9.9"/>
<ellipse class="st24" cx="937.5" cy="426.8" rx="13.9" ry="9.9"/>
<path class="st25" d="M891.2,391.7L891.2,391.7c-3.9-1.3-6-5.6-4.7-9.5l7-20.5c1.3-3.9,5.6-6,9.5-4.7h0c3.9,1.3,6,5.6,4.7,9.5
	l-7,20.5C899.4,391,895.1,393.1,891.2,391.7z"/>
<path class="st25" d="M938.4,391.7L938.4,391.7c3.9-1.3,6-5.6,4.7-9.5l-7-20.5c-1.3-3.9-5.6-6-9.5-4.7l0,0c-3.9,1.3-6,5.6-4.7,9.5
	l7,20.5C930.2,391,934.5,393.1,938.4,391.7z"/>
<path class="st26" d="M941.5,421.4c0-16.8-12-40.1-26.8-40.1S888,404.7,888,421.4s12,20.6,26.8,20.6S941.5,438.2,941.5,421.4z"/>
<path class="st27" d="M776.8,313.4h13.5c3.2,0,5.9-2.6,5.9-5.9v-33.7c0-3.2-2.6-5.9-5.9-5.9h-13.5c-3.2,0-5.9,2.6-5.9,5.9v33.7
	C771,310.8,773.6,313.4,776.8,313.4z"/>
<path class="st28" d="M796.4,273v1.6c-17,14.2-24,18.8-27.7,22.5V273c0-3.5,2.9-6.4,6.4-6.4H790C793.6,266.6,796.4,269.5,796.4,273z
	"/>
<g>
	<path class="st29" d="M846.7,207.7c-9.7,9.5-23.8,0-34.5,0c-9.6,0-24.5,7.7-31.4-6c-0.5-1-0.3-2.7,0.3-3.5
		c6.5-9.2,7.9-22.6,9.2-34.6c2.2-21,28.7-17.5,34.3-17.1c5.1,0.3,9.9,2.4,13.1,8.5c3.8,7.3,2.4,15.6,2.3,24
		c-0.1,9.3,1.8,18.3,7.1,24.2C848.2,204.4,847.7,206.7,846.7,207.7z"/>
</g>
<g>
	<path class="st30" d="M814.9,146.1c-1.4,1.1-2.6,2.5-3.7,3.9c-2.9,3.8-4.6,8.4-5.7,13.1c-3.5,14.1-1.9,29.4,4.3,42.5
		c0.4,0.8,0.7,1.5,1.1,2.2c-9.6,0.6-23.4,7-29.9-6c-0.5-1-0.3-2.7,0.3-3.5c6.5-9.1,7.9-22.6,9.2-34.6
		C791.9,149.1,805.1,146.3,814.9,146.1z"/>
</g>
<path class="st4" d="M847.5,322.8c0.5-0.8,0-2-0.9-2.1c-0.2,0-0.4,0-0.6,0.1c-8,2.8,0.6-11,1-14.9c1.4-12.3-1.6-39.7-4.2-59.3
	c-0.3-2.1-3.2-2.4-3.9-0.4c-0.4,1.2-0.7,2.6-0.8,4c0,0-6.8,26.4-6.6,35.5c0.3,9.8,8,30.2,8.5,38.1c1.6,25.3-9.5,101-9.5,101
	c0,1.2,7.1,2.8,8.2,3.2c5.1,1.9,18.3,7.5,10.4,13.1c-7.7,5.5-22.3,2.2-27.7,0.6c-1.2-0.3-2.1-1.5-2.1-2.8V324.9
	c0-1.6-1.3-2.9-2.9-2.9c-0.1,0-0.1,0-0.2,0c0,0,0,0,0,0c-0.1,0-0.2,0-0.3,0c-1.6,0-2.9,1.3-2.9,2.9v113.9c0,1.3-0.9,2.4-2.1,2.8
	c-5.4,1.5-20,4.9-27.7-0.6c-7.8-5.6,5.3-11.2,10.4-13.1c1.1-0.4,8.2-2,8.2-3.2c0,0-9.7-75-8.5-100.1c0.4-8.1,8.4-29,8.5-39
	c0.1-9.2-7.6-35.5-7.6-35.5V250c-0.1-2.5-3.7-2.6-4.1-0.2c-2.5,19.3-5.1,44.3-3.8,56c0.4,3.9,9,17.7,1,14.9
	c-0.2-0.1-0.4-0.1-0.6-0.1c-1,0.1-1.5,1.2-0.9,2.1c1.4,2.2,6.3,10.4,2.7,12.1c-4.1,1.9-13.6-8.1-12.4-25.3c0,0,0-0.1,0-0.1
	c0,0,3.3-50.1,3.5-75.2c0.1-7.3,4.6-13.3,11.8-14l14.1-4.6c0.9,0,1.6-2.3,2.1-4.2c0.4-1.5-0.3-3-1.7-3.7c-8.3-3.7-14.5-12-16.2-22.3
	c-0.7,0.7-1.5,1-2.4,1c-2.5,0-4.6-3.2-4.6-7.1s2.1-7.1,4.6-7.1c0.9,0,1.8,0.4,2.5,1.2c0.1-0.5,0.2-1,0.3-1.5c0,1.2,1,7.5,1.5,5.7
	c1.4-5.2,8.9-15.9,13.2-16.5c5.2-0.8,8.4-0.1,14.7-0.1c6.1,0,3.5,3,8.5,1.7c3.4-0.8,8.8,10.1,10.6,16.1c0.7,2.2,1.6-5.2,1.6-7.2
	c0.1,0.5,0.2,1,0.3,1.5c0.7-0.6,1.4-0.9,2.3-0.9c2.5,0,4.6,3.2,4.6,7.1s-2,7.1-4.6,7.1c-0.8,0-1.5-0.3-2.1-0.8
	c-1.7,9.8-7.5,17.8-15.3,21.6c-1.4,0.7-2.1,2.4-1.6,3.9c0.7,2,1.6,4.3,2.5,4.3c0,0,5.8,3.2,14,3.9c8.1,0.7,13.3,7.6,13.2,15.7
	l3.3,74.2c0,0,0,0.1,0,0.1c1.1,17.2-8.3,27.2-12.4,25.3C841.2,333.2,846.1,325,847.5,322.8z"/>
<path class="st31" d="M792.9,304.4c0,0-4.4,4.1-5.3,10.6c-2.1,14.9,5.1,61.5,5.1,61.5c0,1.2,0,2.3,0.1,3.5l3.1,41.6h19.9V329
	l2.6,92.5h19.9l3.7-39.9c0.2-2,0.2-3.9,0.1-5.9c0,0,6.7-44.3,4.2-59c-1.3-7.9-6.3-12.3-6.3-12.3H792.9z"/>
<path class="st27" d="M801.8,423.9l11.7,3.3l1.1,16.8l-23.8,2.2c-4.9,0.5-9.6-2-11.9-6.3c-1.6-3.1-1.7-6.7,2.9-9.8
	C788.4,425.8,801.8,423.9,801.8,423.9z"/>
<path class="st27" d="M830.8,423.9l-11.7,3.3L818,444l23.8,2.2c4.9,0.5,9.6-2,11.9-6.3c1.6-3.1,1.7-6.7-2.9-9.8
	C844.2,425.8,830.8,423.9,830.8,423.9z"/>
<path class="st9" d="M803.1,213.8l-13.2,4.1c-7.5,2.3-12.7,9.1-13.1,17l-0.6,15.7l14.2,15l1.9-9.4l3,19.5c1,6.5,0.9,13.1-0.4,19.5
	l-6.8,17.2l56.7-0.6l-7.7-14.9c-1.9-8.1-2.1-16.5-0.4-24.7l3.8-19l1.4,9.2l15.3-15.3l-1.4-16.3c-0.6-6.6-5.4-12.1-11.9-13.6
	l-15.5-3.4l-10.5,34.9L803.1,213.8z"/>
<path class="st4" d="M786.1,322.8c1.4,2.2,6.3,10.4,2.7,12.1c-4.1,1.9-13.6-8.1-12.4-25.3c0,0,0-0.1,0-0.1c0,0,0-0.6,0.1-1.8H787
	c1.8,5.2,7.7,15.7,0.6,13.2c-0.2-0.1-0.4-0.1-0.6-0.1C786,320.7,785.5,321.9,786.1,322.8z"/>
<path class="st4" d="M844.8,334.8c-3.6-1.6,1.3-9.8,2.7-12.1c0.5-0.8,0-2-0.9-2.1c-0.2,0-0.4,0-0.6,0.1c-7.1,2.5-1.2-8,0.6-13.2
	h10.6l0.1,1.8c0,0,0,0.1,0,0.1C858.4,326.7,848.9,336.7,844.8,334.8z"/>
<path class="st29" d="M821.4,158.8c-4.8,8.7,18,25.7,18,25.7s-11-17.5-4.6-20.5C843.2,160.1,823.1,155.6,821.4,158.8z"/>
<g>
	<path class="st1" d="M789.8,185.5c2.3,2.2,4.7,4.5,7,6.8c1.2,1.1,2.4,2.2,3.4,3.4c1.1,1.2,2.1,2.5,3,3.8l-0.1,0.1
		c-1.3-1-2.5-2.1-3.7-3.2c-1.2-1.1-2.2-2.4-3.3-3.6C794.1,190.4,791.9,188,789.8,185.5L789.8,185.5z"/>
</g>
<g>
	<path class="st12" d="M815.8,185.3C815.8,185.3,815.8,185.3,815.8,185.3L815.8,185.3C815.9,185.3,815.8,185.3,815.8,185.3z"/>
	<polygon class="st12" points="815.8,185.3 815.8,185.3 815.8,185.3 	"/>
	<path class="st12" d="M815.8,185.3c0,0.1-0.1,0.2-0.1,0.2C815.9,185.8,816.1,185.3,815.8,185.3z"/>
	<path class="st12" d="M815.8,185.8L815.8,185.8c0,0.1,0,0.1,0,0.2c0,0.1-0.1,0.7,0.1,0.6c0.1,0,0.2-0.4,0.1-0.6
		C815.9,185.9,815.7,185.8,815.8,185.8z"/>
	<path class="st12" d="M819.5,187.4l0.1-0.1c0,0-0.5,0.1-0.3,0.4C819.5,188,819.9,187.4,819.5,187.4z"/>
	<path class="st12" d="M821.6,187.7c0-0.1,0-0.1-0.1-0.2c0,0-0.1,0-0.1,0c-0.2,0-0.4,0.2-0.3,0.4
		C821.2,188.1,821.6,187.9,821.6,187.7z"/>
	<path class="st12" d="M821.4,187.5C821.4,187.5,821.4,187.5,821.4,187.5c0.1,0,0.1,0,0.1,0L821.4,187.5z"/>
	<path class="st12" d="M824.9,199.1c-0.1,0-0.1,0.2-0.1,0.3c-0.1,0.1-0.2,0.2-0.3,0.3c-0.3,0.2-1.1,0.5-1,1c0,0.2,0.1,0.3,0,0.6
		c-0.1,0.2-0.4,0.6-0.3,0.8c0.2,0.7,0.8,0.2,1-0.2c0.2-0.5,0.2-1,0.5-1.3C825.1,200,824.9,199.6,824.9,199.1L824.9,199.1z"/>
	<path class="st1" d="M829.1,195l-0.1-1.3c-0.1-0.6-0.2-1-0.3-1.5c-1.4-4.2-4.4-4.3-6.3-5c-1.9-0.7-5.6-1.8-6.1-1.9c0,0,0,0-0.1,0
		c-0.5,0.1-4.1,1.3-6.1,1.9c-1.9,0.7-4.9,0.8-6.3,5c-0.1,0.4-0.2,0.9-0.3,1.5l-0.1,1.3c0,2.8,0.6,6.4,1.5,8.2c0.4,0.7,1,1.6,1.8,2.5
		l0.9,1c0.9,0.9,1.8,1.8,2.4,2.3c1.4,1,5.6,3.4,6.2,3.7c0,0,0,0,0,0c0,0,0,0,0,0c0.5-0.3,4.8-2.7,6.2-3.7c0.7-0.5,1.6-1.4,2.4-2.3
		l0.9-1c0.8-0.9,1.4-1.8,1.8-2.5C828.5,201.4,829.2,197.8,829.1,195z"/>
	<g>
		<path class="st13" d="M818.3,204.7c-0.2,0-0.3-0.1-0.3-0.3c0-0.2,0.1-0.3,0.3-0.4l5-0.7c0.2,0,0.3,0.1,0.4,0.3
			c0,0.2-0.1,0.3-0.3,0.4L818.3,204.7C818.3,204.7,818.3,204.7,818.3,204.7z"/>
	</g>
	<g>
		<path class="st13" d="M818.2,202.8c-0.1,0-0.2-0.1-0.2-0.2c0-0.1,0.1-0.2,0.2-0.2l5-0.7c0.1,0,0.2,0.1,0.2,0.2
			c0,0.1-0.1,0.2-0.2,0.2L818.2,202.8C818.3,202.8,818.2,202.8,818.2,202.8z"/>
	</g>
	<g>
		<path class="st13" d="M818.2,200.7C818.2,200.7,818.1,200.7,818.2,200.7c-0.1-0.1-0.1-0.2,0-0.2l5-0.7c0.1,0,0.1,0,0.1,0.1
			c0,0.1,0,0.1-0.1,0.1L818.2,200.7C818.2,200.7,818.2,200.7,818.2,200.7z"/>
	</g>
	<path class="st14" d="M804.7,190c-3.2,4.3-2.9,16.2,7.3,20.3C817,212.4,810,183.1,804.7,190z"/>
	<path class="st15" d="M816.3,185.3C816.3,185.3,816.3,185.3,816.3,185.3c-0.6,0.1-4.2,1.3-6.1,1.9c-1.9,0.7-4.9,0.8-6.3,5
		c-0.1,0.4-0.2,0.9-0.3,1.5l-0.1,1.3c0,2.8,0.6,6.4,1.5,8.2c0.4,0.7,1,1.6,1.8,2.5l0.9,1c0.9,0.9,1.8,1.8,2.4,2.3
		c1.4,1,5.6,3.4,6.2,3.7c0,0,0,0,0,0c0,0,0,0,0,0C816.3,208.5,816.3,190.1,816.3,185.3z"/>
	<g>
		<path class="st13" d="M814.6,204.7C814.6,204.7,814.6,204.7,814.6,204.7l-5-0.7c-0.2,0-0.3-0.2-0.3-0.4c0-0.2,0.2-0.3,0.4-0.3
			l5,0.7c0.2,0,0.3,0.2,0.3,0.4C814.9,204.6,814.8,204.7,814.6,204.7z"/>
	</g>
	<g>
		<path class="st13" d="M814.6,202.8C814.6,202.8,814.6,202.8,814.6,202.8l-5-0.7c-0.1,0-0.2-0.1-0.2-0.2c0-0.1,0.1-0.2,0.2-0.2
			l5,0.7c0.1,0,0.2,0.1,0.2,0.2C814.7,202.7,814.7,202.8,814.6,202.8z"/>
	</g>
	<g>
		<path class="st13" d="M814.6,200.7C814.6,200.7,814.6,200.7,814.6,200.7l-5-0.7c-0.1,0-0.1-0.1-0.1-0.1s0.1-0.1,0.1-0.1l5,0.7
			C814.6,200.5,814.7,200.6,814.6,200.7C814.7,200.7,814.6,200.7,814.6,200.7z"/>
	</g>
	<path class="st8" d="M821.7,192c0,0-4.2-2.2-5.5-2.2c-1.3,0-5.5,2.2-5.5,2.2s-1.2,0.3-0.6-0.9c0.6-1.1,4.8-2.8,6-2.8
		c1.4,0,5.4,1.7,6,2.8C823,192.3,821.7,192,821.7,192z"/>
	<g>
		<path class="st13" d="M816.3,211.8c0,0-0.1,0-0.1,0l0,0c-0.1-0.1-0.3-0.2-0.6-0.3c-0.1,0-0.1-0.1-0.1-0.2c0-0.1,0.1-0.1,0.2-0.1
			c0.3,0.1,0.5,0.3,0.6,0.3l0.3-0.1c0.1,0,0.2,0,0.2,0.1c0,0.1,0,0.2-0.1,0.2l-0.3,0.2C816.4,211.8,816.3,211.8,816.3,211.8z
			 M816.2,211.8L816.2,211.8L816.2,211.8z M817.6,211.1c0,0-0.1,0-0.1-0.1c0-0.1,0-0.2,0.1-0.2c0.3-0.2,0.6-0.4,1-0.6
			c0.1,0,0.2,0,0.2,0.1c0,0.1,0,0.2-0.1,0.2C818.3,210.7,818,210.9,817.6,211.1C817.7,211.1,817.6,211.1,817.6,211.1z M814.7,210.9
			C814.6,210.9,814.6,210.9,814.7,210.9c-0.4-0.2-0.7-0.4-1-0.6c-0.1,0-0.1-0.1-0.1-0.2c0-0.1,0.1-0.1,0.2-0.1
			c0.3,0.2,0.7,0.4,1,0.6c0.1,0,0.1,0.1,0.1,0.2C814.8,210.9,814.7,210.9,814.7,210.9z M819.5,210c0,0-0.1,0-0.1-0.1
			c0-0.1,0-0.2,0-0.2c0.3-0.2,0.7-0.4,1-0.6c0.1,0,0.2,0,0.2,0c0,0.1,0,0.2,0,0.2C820.3,209.5,820,209.7,819.5,210
			C819.6,210,819.6,210,819.5,210z M812.7,209.8C812.7,209.8,812.7,209.8,812.7,209.8c-0.4-0.2-0.8-0.4-1-0.6c-0.1,0-0.1-0.1,0-0.2
			c0-0.1,0.1-0.1,0.2,0c0.3,0.2,0.6,0.4,1,0.6c0.1,0,0.1,0.1,0,0.2C812.8,209.8,812.8,209.8,812.7,209.8z M821.5,208.8
			c0,0-0.1,0-0.1-0.1c0-0.1,0-0.2,0-0.2c0.2-0.2,0.4-0.3,0.6-0.4c0.1-0.1,0.2-0.2,0.3-0.2c0.1-0.1,0.1,0,0.2,0c0.1,0.1,0,0.1,0,0.2
			c-0.1,0.1-0.2,0.2-0.3,0.2C822,208.4,821.8,208.6,821.5,208.8C821.5,208.8,821.5,208.8,821.5,208.8z M810.8,208.6
			C810.8,208.6,810.8,208.6,810.8,208.6c-0.2-0.1-0.3-0.2-0.4-0.3c-0.2-0.1-0.4-0.3-0.6-0.5c-0.1-0.1-0.1-0.1,0-0.2
			c0.1-0.1,0.1-0.1,0.2,0c0.2,0.2,0.4,0.3,0.6,0.5c0.1,0.1,0.2,0.1,0.3,0.2c0.1,0,0.1,0.1,0,0.2
			C810.9,208.5,810.9,208.6,810.8,208.6z M823.2,207.4c0,0-0.1,0-0.1,0c-0.1-0.1-0.1-0.1,0-0.2c0.3-0.2,0.5-0.5,0.8-0.8
			c0.1-0.1,0.1-0.1,0.2,0c0.1,0.1,0.1,0.1,0,0.2C823.8,206.8,823.6,207.1,823.2,207.4C823.3,207.3,823.2,207.4,823.2,207.4z
			 M809.1,207.1C809.1,207.1,809.1,207.1,809.1,207.1c-0.4-0.3-0.6-0.6-0.9-0.8c-0.1-0.1-0.1-0.1,0-0.2c0.1-0.1,0.1-0.1,0.2,0
			c0.3,0.3,0.5,0.5,0.8,0.8c0.1,0.1,0.1,0.1,0,0.2C809.2,207.1,809.2,207.1,809.1,207.1z M824.7,205.7
			C824.7,205.7,824.7,205.7,824.7,205.7c-0.2-0.1-0.2-0.2-0.1-0.2l0.4-0.4c0.1-0.1,0.2-0.3,0.3-0.4c0-0.1,0.1-0.1,0.2,0
			c0.1,0,0.1,0.1,0,0.2c-0.1,0.1-0.2,0.3-0.3,0.4l-0.4,0.5C824.8,205.7,824.8,205.7,824.7,205.7z M807.6,205.5c0,0-0.1,0-0.1,0
			l-0.2-0.2c-0.2-0.2-0.4-0.5-0.6-0.7c0-0.1,0-0.2,0-0.2c0.1,0,0.2,0,0.2,0c0.2,0.2,0.4,0.4,0.6,0.7l0.2,0.2
			C807.8,205.3,807.8,205.4,807.6,205.5C807.7,205.5,807.6,205.5,807.6,205.5z M826.2,204C826.1,204,826.1,204,826.2,204
			c-0.1-0.1-0.2-0.2-0.1-0.2c0.2-0.3,0.4-0.7,0.6-0.9c0-0.1,0.1-0.1,0.2-0.1c0.1,0,0.1,0.1,0.1,0.2c-0.2,0.3-0.4,0.6-0.6,1
			C826.2,204,826.2,204,826.2,204z M806.2,203.7c0,0-0.1,0-0.1-0.1c-0.2-0.3-0.3-0.5-0.4-0.7c0-0.1-0.1-0.2-0.1-0.3
			c0-0.1,0-0.2,0.1-0.2c0.1,0,0.2,0,0.2,0.1c0,0.1,0.1,0.2,0.1,0.3c0.1,0.2,0.2,0.4,0.4,0.7C806.4,203.5,806.4,203.6,806.2,203.7
			C806.3,203.7,806.3,203.7,806.2,203.7z M827.2,202C827.2,202,827.2,202,827.2,202c-0.1,0-0.2-0.1-0.1-0.2c0.1-0.3,0.2-0.7,0.3-1.1
			c0-0.1,0.1-0.1,0.2-0.1c0.1,0,0.1,0.1,0.1,0.2c-0.1,0.4-0.2,0.8-0.3,1.1C827.3,202,827.3,202,827.2,202z M805.3,201.7
			c-0.1,0-0.1,0-0.1-0.1c-0.1-0.3-0.2-0.7-0.3-1.1c0-0.1,0-0.2,0.1-0.2c0.1,0,0.2,0,0.2,0.1c0.1,0.4,0.2,0.7,0.3,1.1
			C805.4,201.6,805.4,201.6,805.3,201.7C805.3,201.7,805.3,201.7,805.3,201.7z M827.8,199.8C827.8,199.8,827.8,199.8,827.8,199.8
			c-0.1,0-0.2-0.1-0.1-0.2c0.1-0.4,0.1-0.7,0.2-1.1c0-0.1,0.1-0.1,0.2-0.1c0.1,0,0.1,0.1,0.1,0.2c-0.1,0.4-0.1,0.8-0.2,1.1
			C827.9,199.8,827.8,199.8,827.8,199.8z M804.7,199.5c-0.1,0-0.1,0-0.1-0.1c-0.1-0.4-0.1-0.7-0.2-1.1c0-0.1,0-0.1,0.1-0.2
			c0.1,0,0.1,0,0.2,0.1c0,0.4,0.1,0.7,0.2,1.1C804.9,199.4,804.8,199.5,804.7,199.5C804.8,199.5,804.8,199.5,804.7,199.5z
			 M828.1,197.6C828.1,197.6,828.1,197.6,828.1,197.6c-0.1,0-0.1-0.1-0.1-0.2c0-0.4,0.1-0.8,0.1-1.1c0-0.1,0.1-0.1,0.1-0.1
			c0.1,0,0.1,0.1,0.1,0.1c0,0.4,0,0.7-0.1,1.1C828.2,197.6,828.2,197.6,828.1,197.6z M804.5,197.3c-0.1,0-0.1-0.1-0.1-0.1
			c0-0.4-0.1-0.8-0.1-1.1c0-0.1,0.1-0.1,0.1-0.1c0.1,0,0.1,0.1,0.1,0.1c0,0.4,0,0.7,0.1,1.1C804.6,197.2,804.5,197.3,804.5,197.3
			C804.5,197.3,804.5,197.3,804.5,197.3z M828.2,195.4c-0.1,0-0.1-0.1-0.1-0.1l-0.1-1.1c0-0.1,0.1-0.1,0.1-0.2
			c0.1,0,0.1,0.1,0.2,0.1l0.1,1.1C828.3,195.3,828.3,195.4,828.2,195.4C828.2,195.4,828.2,195.4,828.2,195.4z M804.4,195
			C804.4,195,804.4,195,804.4,195c-0.1,0-0.1-0.1-0.1-0.2l0.1-0.9c0-0.1,0-0.2,0-0.3c0-0.1,0.1-0.1,0.2-0.1c0.1,0,0.1,0.1,0.1,0.2
			c0,0.1,0,0.2,0,0.3l-0.1,0.8C804.6,195,804.5,195,804.4,195z M828,193.2c-0.1,0-0.1,0-0.1-0.1c0-0.1-0.1-0.3-0.1-0.4
			c-0.1-0.2-0.2-0.5-0.3-0.7c0-0.1,0-0.2,0.1-0.2c0.1,0,0.2,0,0.2,0.1c0.1,0.2,0.2,0.5,0.3,0.7c0,0.1,0.1,0.2,0.1,0.4
			C828.1,193.1,828.1,193.2,828,193.2C828,193.2,828,193.2,828,193.2z M804.7,192.8C804.7,192.8,804.7,192.8,804.7,192.8
			c-0.1,0-0.2-0.1-0.1-0.2c0.1-0.4,0.3-0.7,0.4-1.1c0-0.1,0.1-0.1,0.2-0.1c0.1,0,0.1,0.1,0.1,0.2c-0.2,0.3-0.3,0.7-0.4,1
			C804.9,192.8,804.8,192.8,804.7,192.8z M827.1,191.1c0,0-0.1,0-0.1-0.1c-0.2-0.3-0.4-0.6-0.7-0.9c-0.1-0.1-0.1-0.1,0-0.2
			c0.1-0.1,0.1-0.1,0.2,0c0.3,0.3,0.5,0.6,0.7,0.9C827.2,191,827.2,191.1,827.1,191.1C827.1,191.1,827.1,191.1,827.1,191.1z
			 M805.8,190.8C805.7,190.8,805.7,190.8,805.8,190.8c-0.1-0.1-0.2-0.2-0.1-0.2c0.2-0.3,0.5-0.6,0.8-0.8c0.1-0.1,0.1,0,0.2,0
			c0.1,0.1,0,0.1,0,0.2c-0.3,0.2-0.5,0.5-0.7,0.8C805.8,190.8,805.8,190.8,805.8,190.8z M825.5,189.6
			C825.5,189.6,825.4,189.5,825.5,189.6c-0.4-0.2-0.7-0.4-1-0.5c-0.1,0-0.1-0.1-0.1-0.2s0.1-0.1,0.2-0.1c0.4,0.2,0.7,0.3,1,0.5
			c0.1,0,0.1,0.1,0,0.2C825.6,189.5,825.5,189.6,825.5,189.6z M807.4,189.3c0,0-0.1,0-0.1-0.1c0-0.1,0-0.2,0.1-0.2
			c0.3-0.2,0.7-0.3,1-0.5c0.1,0,0.2,0,0.2,0.1c0,0.1,0,0.2-0.1,0.2C808.1,189,807.8,189.2,807.4,189.3
			C807.5,189.3,807.4,189.3,807.4,189.3z M823.5,188.7C823.4,188.7,823.4,188.7,823.5,188.7c-0.2-0.1-0.4-0.1-0.6-0.2
			c-0.2,0-0.4-0.1-0.5-0.1c-0.1,0-0.1-0.1-0.1-0.2c0-0.1,0.1-0.1,0.2-0.1c0.2,0,0.3,0.1,0.5,0.1c0.2,0.1,0.4,0.1,0.6,0.2
			c0.1,0,0.1,0.1,0.1,0.2C823.6,188.6,823.5,188.7,823.5,188.7z M809.5,188.5c-0.1,0-0.1,0-0.1-0.1c0-0.1,0-0.2,0.1-0.2l0.2-0.1
			c0.3-0.1,0.6-0.2,0.9-0.3c0.1,0,0.2,0,0.2,0.1c0,0.1,0,0.2-0.1,0.2c-0.3,0.1-0.6,0.2-0.9,0.3L809.5,188.5
			C809.5,188.5,809.5,188.5,809.5,188.5z M821.3,188C821.3,188,821.3,188,821.3,188c-0.4-0.1-0.7-0.2-1.1-0.4
			c-0.1,0-0.1-0.1-0.1-0.2c0-0.1,0.1-0.1,0.2-0.1c0.4,0.1,0.8,0.2,1.1,0.4c0.1,0,0.1,0.1,0.1,0.2C821.4,188,821.4,188,821.3,188z
			 M811.7,187.9c-0.1,0-0.1,0-0.1-0.1c0-0.1,0-0.2,0.1-0.2c0.3-0.1,0.7-0.2,1.1-0.3c0.1,0,0.2,0,0.2,0.1c0,0.1,0,0.2-0.1,0.2
			C812.4,187.6,812,187.7,811.7,187.9C811.7,187.9,811.7,187.9,811.7,187.9z M819.2,187.3C819.2,187.3,819.1,187.3,819.2,187.3
			c-0.4-0.1-0.8-0.2-1.1-0.3c-0.1,0-0.1-0.1-0.1-0.2c0-0.1,0.1-0.1,0.2-0.1c0.3,0.1,0.7,0.2,1.1,0.3c0.1,0,0.1,0.1,0.1,0.2
			C819.3,187.3,819.2,187.3,819.2,187.3z M813.8,187.2c-0.1,0-0.1,0-0.1-0.1c0-0.1,0-0.2,0.1-0.2c0.4-0.1,0.7-0.2,1.1-0.3
			c0.1,0,0.2,0,0.2,0.1c0,0.1,0,0.2-0.1,0.2C814.6,186.9,814.2,187.1,813.8,187.2C813.8,187.2,813.8,187.2,813.8,187.2z M817,186.6
			C817,186.6,817,186.6,817,186.6c-0.4-0.1-0.6-0.2-0.7-0.2c-0.1,0-0.2,0-0.3,0.1c-0.1,0-0.2,0-0.2-0.1c0-0.1,0-0.2,0.1-0.2
			c0.2,0,0.3-0.1,0.3-0.1c0,0,0,0,0.1,0c0,0,0.1,0,0.1,0c0.1,0,0.4,0.1,0.7,0.2c0.1,0,0.1,0.1,0.1,0.2
			C817.1,186.6,817.1,186.6,817,186.6z"/>
	</g>
	<path class="st16" d="M815.4,189.7c-0.2,0-0.3-0.1-0.4-0.3c-0.1-0.2,0-0.5,0.3-0.5c0.1,0,0.6-0.2,1-0.2c0.4,0,0.9,0.2,0.9,0.2
		c0.2,0.1,0.3,0.3,0.3,0.5c-0.1,0.2-0.3,0.3-0.5,0.3c-0.1-0.1-0.4-0.1-0.6-0.1c-0.3,0-0.6,0.1-0.7,0.1
		C815.5,189.7,815.5,189.7,815.4,189.7z"/>
</g>
<g>
	<path class="st1" d="M790.4,174.4c2.4,2.9,4.7,5.8,7,8.7c1.2,1.4,2.4,2.9,3.4,4.4c1.1,1.5,2.1,3.1,3,4.7l-0.1,0.1
		c-1.3-1.3-2.5-2.7-3.7-4.2c-1.2-1.4-2.2-3-3.3-4.5C794.6,180.5,792.5,177.5,790.4,174.4L790.4,174.4z"/>
</g>
<g>
	<path class="st1" d="M841.2,174.2c-2,3.1-4.1,6.1-6.1,9.1c-1,1.5-2,3.1-3.1,4.5c-1.1,1.4-2.3,2.9-3.6,4.2l-0.1-0.1
		c0.8-1.6,1.8-3.2,2.8-4.7c1-1.5,2.2-2.9,3.3-4.4C836.7,179.9,838.9,177,841.2,174.2L841.2,174.2z"/>
</g>
<g>
	<path class="st1" d="M841.4,186.6c-2.1,2.5-4.1,4.9-6.2,7.4c-1,1.2-2,2.5-3.2,3.6c-1.1,1.1-2.3,2.3-3.6,3.3l-0.1-0.1
		c0.9-1.4,1.9-2.6,2.9-3.9c1-1.2,2.2-2.3,3.3-3.5C836.8,191.1,839.1,188.8,841.4,186.6L841.4,186.6z"/>
</g>
<path class="st28" d="M792.6,217.6c1.5,9,7.2,46.5,1.5,50.4c-1.9,7.4-0.1,10.7,1.6,11.2c11.2-6.8,5.2-51.2,3.4-62.6
	c-0.2-1.5-1.7-2.4-3.2-2l-1.7,0.5C793.1,215.4,792.5,216.5,792.6,217.6z"/>
<circle class="st26" cx="914.8" cy="370.1" r="16.5"/>
<ellipse class="st32" cx="915.1" cy="381.6" rx="14.6" ry="9.6"/>
<path class="st9" d="M907.6,373c2.4,9.5,12.5,9.5,14.1,0C922.1,370.8,907.1,370.8,907.6,373z"/>
<path class="st9" d="M911.9,366.6c-1.2-7.7-6.3-7.7-7.1,0C904.7,368.4,912.2,368.4,911.9,366.6z"/>
<path class="st9" d="M924.1,366.6c-1.2-7.7-6.3-7.7-7.1,0C916.8,368.4,924.3,368.4,924.1,366.6z"/>
<path class="st33" d="M914.8,380.4c0,0,0.8,9.3-9.2,4.9"/>
<path class="st33" d="M914.8,380.6c0,0-0.8,9.3,9.2,4.9"/>
<path class="st26" d="M896.1,417.6c0,0,3.6,23.1,1,26.8c-2.6,3.7-4,5.2-1.9,5.6c2,0.4,4.1-0.4,5.4-0.8s3.3,0.9,3.3,0.9l3.1-1.1
	c0,0,1.1,1,3.2,1.1s-5.5-21.5,1.8-33.1"/>
<path class="st26" d="M931,417.6c0,0-3.6,23.1-1,26.8c2.6,3.7,4,5.2,1.9,5.6c-2,0.4-4.1-0.4-5.4-0.8c-1.2-0.4-3.3,0.9-3.3,0.9
	l-3.1-1.1c0,0-1.1,1-3.2,1.1c-2.1,0,5.5-21.5-1.8-33.1"/>
<g>
	<path class="st34" d="M324.4,334.7l-16.6-16.6c-2.6-2.6-2.6-6.8,0-9.3l16.6-16.6"/>
	<path class="st34" d="M439.4,334.7l16.6-16.6c2.6-2.6,2.6-6.8,0-9.3l-16.6-16.6"/>
	<line class="st34" x1="328.5" y1="313.4" x2="350" y2="313.4"/>
	<line class="st34" x1="371" y1="313.4" x2="392.5" y2="313.4"/>
	<line class="st34" x1="413.5" y1="313.4" x2="435" y2="313.4"/>
</g>
<g>
	<path class="st34" d="M611.4,334.7l-16.6-16.6c-2.6-2.6-2.6-6.8,0-9.3l16.6-16.6"/>
	<path class="st34" d="M726.5,334.7l16.6-16.6c2.6-2.6,2.6-6.8,0-9.3l-16.6-16.6"/>
	<line class="st34" x1="615.5" y1="313.4" x2="637" y2="313.4"/>
	<line class="st34" x1="658" y1="313.4" x2="679.5" y2="313.4"/>
	<line class="st34" x1="700.5" y1="313.4" x2="722" y2="313.4"/>
</g>
</svg>
