<?xml version="1.0" encoding="utf-8"?>
<!-- Generator: Adobe Illustrator 24.0.2, SVG Export Plug-In . SVG Version: 6.00 Build 0)  -->
<svg version="1.1" id="Capa_1" xmlns="http://www.w3.org/2000/svg" xmlns:xlink="http://www.w3.org/1999/xlink" x="0px" y="0px"
	 viewBox="0 0 841.9 595.3" style="enable-background:new 0 0 841.9 595.3;" xml:space="preserve">
<style type="text/css">
	.st0{fill:#E9EAD0;}
	.st1{fill:none;stroke:#BCBCA0;stroke-miterlimit:10;stroke-dasharray:7.0144,7.0144;}
	.st2{fill:#FFFFFF;}
	.st3{fill:#55514B;}
	.st4{fill:#42403C;}
	.st5{fill:#EADA9B;}
	.st6{fill:#64431F;}
	.st7{fill:#139EA8;}
	.st8{fill:#45BAC7;}
	.st9{fill:#C68355;}
	.st10{fill:#6C7C9E;}
	.st11{fill:#EBCFDE;}
	.st12{fill:#B1B1B1;}
	.st13{fill:#77A9D4;}
	.st14{fill:#C6C6C5;}
	.st15{fill:#6E9DBA;}
	.st16{fill:#E2CCD8;}
	.st17{fill:#D9D9D9;}
	.st18{fill:#868686;}
	.st19{fill:#3A2612;}
	.st20{fill:#C5CF83;}
	.st21{opacity:0.65;fill:#575756;enable-background:new    ;}
	.st22{fill:#ECECEC;}
	.st23{opacity:0.56;fill:#D9D9D9;enable-background:new    ;}
	.st24{fill:#E5332A;}
	.st25{fill:#D33333;}
	.st26{fill:#F2C4A5;}
	.st27{fill:#2F78CD;}
	.st28{fill:#468ADC;}
	.st29{fill:#3476B7;}
	.st30{fill:#1D1D1B;}
	.st31{fill:#3C3C3B;}
	.st32{fill:#67321C;}
	.st33{fill:#F5F5F5;}
	.st34{fill:#E20613;}
	.st35{fill:#F9F9F7;}
	.st36{fill:#E2D7C0;}
	.st37{fill:none;stroke:#E20613;stroke-miterlimit:10;}
</style>
<rect class="st0" width="841.9" height="595.3"/>
<path class="st1" d="M28.3,536.5V58.7C28.3,42,42,28.3,58.7,28.3h724.4c16.8,0,30.4,13.6,30.4,30.4v477.8
	c0,16.8-13.6,30.4-30.4,30.4H58.7C42,566.9,28.3,553.3,28.3,536.5z"/>
<g>
	<polygon class="st2" points="594.9,433 594.9,434.9 593.8,434.8 580,434.4 575.7,434.3 575.7,434.2 580.9,432.6 582.6,432.6 
		593.8,433 	"/>
	<polygon class="st2" points="616.7,433.9 616.7,434.3 613.8,434.4 600.1,434.8 598.6,434.9 598.6,433 600.1,433 611.2,432.6 
		612.5,432.6 	"/>
	<path class="st3" d="M594.9,434.9v17.7l-31.8,0.9c-7-1.4-8.7-10.8-2.5-14.5l15-4.7v0.1l4.3,0.1l13.8,0.4H594.9z"/>
	<path class="st3" d="M630.2,453.4l-31.8-0.9V433h0.1v1.9l1.5-0.1l13.7-0.5l2.9-0.1v-0.4l16.1,5C638.9,442.7,637.2,452,630.2,453.4z
		"/>
	<path class="st4" d="M575.7,434.3l2,0.1c-2,3.3-14.5,19.1-14.5,19.1c-7-1.4-8.7-10.8-2.5-14.5L575.7,434.3L575.7,434.3z"/>
	<path class="st3" d="M594.9,434.9v17.7H594c-0.6-1.6-1-3.3-1.4-4.9c-0.6-3-1-6.2-1.1-9.3c0-1.2,0-2.4,0-3.6l2.2,0.1L594.9,434.9z"
		/>
	<polygon class="st4" points="598.4,452.5 598.4,433 598.6,433 598.6,434.9 600.1,434.8 613.8,434.4 616.7,434.3 616.7,433.9 	"/>
	<path class="st5" d="M637.9,317.6c1.1,17.2-8.3,27.2-12.4,25.3c-3.5-1.6,1.3-9.8,2.7-12.1c0.5-0.8,0-2-1-2.1c-0.2,0-0.4,0-0.6,0.1
		c-8,2.8,0.6-11,1-14.9c1.4-12.3-1.6-39.7-4.2-59.3c-0.3-2.1-3.2-2.4-3.9-0.4c-0.4,1.2-0.7,2.6-0.8,4l-1.6,42.5l-0.8,17l-5.2,114.9
		v0.2c0,0.5,1.1,1,2.5,1.5l-13.7,0.5V333.1c0-1.6-1.3-2.9-2.9-2.9c-0.1,0-0.1,0-0.2,0l0,0c-0.1,0-0.2,0-0.3,0
		c-1.6,0-2.9,1.3-2.9,2.9v101.7l-13.8-0.4c1.4-0.5,2.6-1.1,2.6-1.5v-0.2l-5.2-114.9l-0.8-17l-1.6-42.5v-0.1
		c-0.1-2.5-3.7-2.6-4.1-0.2c-2.5,19.3-5.1,44.3-3.8,56c0.5,3.9,9,17.7,1,14.9c-0.2-0.1-0.4-0.1-0.6-0.1c-1,0.1-1.5,1.2-1,2.1
		c1.4,2.2,6.3,10.4,2.7,12.1c-4.1,1.9-13.6-8.1-12.4-25.3v-0.1c0,0-0.7-53.2-0.5-78.2c0.1-7.3,5.6-13.3,12.8-14l17.1-1.6
		c0.9,0,1.6-2.2,2.1-4.2c0.4-1.5-0.3-3-1.7-3.7c-8.3-3.6-14.6-12-16.2-22.2c-0.7,0.7-1.5,1-2.4,1c-2.5,0-4.6-3.2-4.6-7.1
		c0-3.9,2.1-7.1,4.6-7.1c0.9,0,1.8,0.4,2.5,1.2c0.1-0.5,0.2-1,0.3-1.5l0,0c0.1-0.4,0.2-0.8,0.3-1.2l0,0c3.4-12,13.2-20.6,24.8-20.6
		c11.9,0,21.9,9.1,25,21.5c0.1,0.5,0.2,1,0.3,1.5c0,0,0,0,0.1,0c0.6-0.6,1.4-0.9,2.2-0.9c2.5,0,4.6,3.2,4.6,7.1c0,3.9-2,7.1-4.6,7.1
		c-0.8,0-1.5-0.3-2.1-0.8c-1.7,9.8-7.5,17.8-15.3,21.6c-1.4,0.7-2.1,2.4-1.6,3.9c0.7,2,1.6,4.3,2.5,4.3c0,0,8.8,0.2,17,0.9
		c8.1,0.7,14.3,7.6,14.2,15.7l-0.7,77.2C637.9,317.6,637.9,317.6,637.9,317.6z"/>
	<path class="st6" d="M621.7,181.4c0,2.8-0.6,17.1-1.2,15c-1.8-6-0.8-22.5-9.2-18.5c-4.6,2.2-2.9,0.8-9,0.8c-6.3,0-9.2-7.1-14.5-7.3
		c-13.2-0.6-12.8,17.1-14.2,22.3c-0.5,1.8-2-11-2-12.2c0-0.7,0-1.5-0.1-2.4l0,0c3.4-12,13.2-20.6,24.8-20.6c11.9,0,21.9,9.1,25,21.5
		C621.4,180.4,621.5,180.9,621.7,181.4C621.6,181.4,621.6,181.4,621.7,181.4z"/>
	<polygon class="st7" points="618.4,317.7 616.7,433.9 616.7,434.3 613.8,434.4 600.1,434.8 598.6,434.9 598.6,433 596.6,334.2 
		595.7,434.9 594.9,434.9 593.8,434.8 580,434.4 575.7,434.3 575.7,317.7 	"/>
	<path class="st8" d="M585.2,222.7l-13.4,0.7c-9.6,0.5-17.2,8.4-17.2,18.1v16.7l16,9.7l2.2-8.1l2.8,59.5l42.7,0.8l2.5-63.4l2.4,7.7
		l16.6-12v-11.7c0-9.9-8.1-18-18-18H609l-11.8,31.6L585.2,222.7z"/>
	<path class="st7" d="M573.8,160.9l-2.7,19.3c0,0,19.2,2.4,25.4,2.3c6.3,0,24.7-2.6,24.7-2.6l-6.1-19c0,0-10.1-5.4-18.9-5.4
		C584.9,155.5,573.8,160.9,573.8,160.9z"/>
	<path class="st7" d="M570.8,181.7c1.1,1.2,2.1,2.6,2.9,3.9c0.9,1.4,1.7,2.7,2.5,4.2c0.8,1.4,1.4,2.9,2.1,4.4c0.6,1.5,1.2,3,1.6,4.6
		c-1.1-1.2-2.1-2.6-3-3.9c-0.9-1.4-1.7-2.7-2.5-4.2c-0.8-1.4-1.4-2.9-2.1-4.4C571.7,184.9,571.2,183.3,570.8,181.7z"/>
	<path class="st7" d="M570.6,193.6c1.2,1.2,2.2,2.5,3.2,3.8s1.9,2.7,2.7,4.1c0.8,1.4,1.6,2.9,2.3,4.3c0.7,1.5,1.4,3,1.8,4.6
		c-1.2-1.2-2.2-2.5-3.2-3.8s-1.9-2.7-2.7-4.1c-0.8-1.4-1.6-2.9-2.3-4.3C571.8,196.7,571.1,195.2,570.6,193.6z"/>
	<path class="st7" d="M621.7,181.7c-0.4,1.6-1,3.1-1.6,4.6s-1.3,3-2.1,4.4c-0.7,1.4-1.6,2.8-2.5,4.2s-1.8,2.7-3,3.9
		c0.4-1.6,0.9-3.1,1.6-4.6c0.6-1.5,1.3-3,2.1-4.4s1.6-2.8,2.5-4.2C619.6,184.3,620.6,182.9,621.7,181.7z"/>
	<path class="st7" d="M621.8,193.6c-0.5,1.6-1.1,3.1-1.8,4.6s-1.5,2.9-2.3,4.3c-0.8,1.4-1.7,2.8-2.7,4.1s-2,2.6-3.2,3.8
		c0.5-1.6,1.1-3.1,1.8-4.6s1.5-2.9,2.3-4.3c0.8-1.4,1.7-2.8,2.7-4.1S620.6,194.8,621.8,193.6z"/>
	<path class="st7" d="M578.1,197c0,0,3.3,6.4,3,8.7c-0.4,2.7-1.7,5.1-1.7,5.1s12.7,7.7,17.2,7.7c4.4,0,16.9-8.1,16.9-8.1
		s-1.3-2.3-1.7-5c-0.4-2.2,3.9-7.7,3.9-7.7s-15.5-3.4-18.5-3.4C593.7,194.3,578.1,197,578.1,197z"/>
</g>
<g>
	<polygon class="st2" points="243.2,433.9 243.2,435.7 242,435.7 228.3,435.3 223.9,435.1 223.9,435.1 229.1,433.4 230.9,433.5 
		242,433.9 	"/>
	<polygon class="st2" points="265,434.7 265,435.1 262,435.2 248.4,435.7 246.9,435.7 246.9,433.9 248.4,433.8 259.5,433.5 
		260.8,433.4 	"/>
	<path class="st3" d="M243.2,435.7v17.7l-31.8,0.9c-7-1.4-8.7-10.8-2.5-14.5l15-4.7v0.1l4.3,0.1l13.8,0.4H243.2z"/>
	<path class="st3" d="M278.5,454.3l-31.8-0.9v-19.5h0.1v1.9l1.5-0.1l13.7-0.5l2.9-0.1v-0.4l16.1,5
		C287.2,443.5,285.5,452.9,278.5,454.3z"/>
	<path class="st4" d="M223.9,435.1l2,0.1c-2,3.3-14.5,19.1-14.5,19.1c-7-1.4-8.7-10.8-2.5-14.5L223.9,435.1L223.9,435.1z"/>
	<path class="st3" d="M243.2,435.7v17.7h-0.9c-0.6-1.6-1-3.3-1.4-4.9c-0.6-3-1-6.2-1.1-9.3c0-1.2,0-2.4,0-3.6l2.2,0.1L243.2,435.7z"
		/>
	<polygon class="st4" points="246.7,453.4 246.7,433.9 246.9,433.9 246.9,435.7 248.4,435.7 262,435.2 265,435.1 265,434.7 	"/>
	<path class="st9" d="M286.2,318.5c1.1,17.2-8.3,27.2-12.4,25.3c-3.5-1.7,1.3-9.8,2.7-12.1c0.5-0.8,0-2-0.9-2.1
		c-0.2,0-0.4,0-0.6,0.1c-8,2.8,0.6-11,1-14.9c1.4-12.3-1.6-39.7-4.2-59.3c-0.3-2.1-3.2-2.4-3.9-0.4c-0.4,1.2-0.7,2.6-0.8,4
		l-1.6,42.5l-0.8,17l-5.2,114.9v0.2c0,0.5,1.1,1,2.5,1.5l-13.7,0.5V334c0-1.6-1.3-2.9-2.9-2.9c-0.1,0-0.1,0-0.2,0l0,0
		c-0.1,0-0.2,0-0.3,0c-1.6,0-2.9,1.3-2.9,2.9v101.7l-13.8-0.4c1.4-0.5,2.6-1.1,2.6-1.6v-0.2l-5.2-114.9l-0.8-17l-1.6-42.5V259
		c-0.1-2.5-3.7-2.6-4.1-0.2c-2.5,19.3-5.1,44.3-3.8,56c0.4,3.9,9,17.7,1,14.9c-0.2-0.1-0.4-0.1-0.6-0.1c-1,0.1-1.5,1.2-0.9,2.1
		c1.4,2.2,6.3,10.4,2.7,12.1c-4.1,1.9-13.6-8.1-12.4-25.3v-0.1c0,0-0.7-53.1-0.5-78.2c0.1-7.3,5.6-13.3,12.8-14l17.1-1.6
		c0.9,0,1.6-2.2,2.1-4.2c0.4-1.5-0.3-3-1.7-3.7c-8.3-3.6-14.6-12-16.2-22.2c-0.7,0.7-1.5,1-2.4,1c-2.5,0-4.6-3.2-4.6-7.1
		c0-3.9,2.1-7.1,4.6-7.1c0.9,0,1.8,0.4,2.5,1.2c0.1-0.5,0.2-1,0.3-1.5l0,0c3-12.6,13.1-21.8,25.1-21.8c11.9,0,21.9,9.1,25,21.5
		c0.1,0.5,0.2,1,0.3,1.5c0.7-0.6,1.4-0.9,2.3-0.9c2.5,0,4.6,3.2,4.6,7.1c0,3.9-2,7.1-4.6,7.1c-0.8,0-1.5-0.3-2.1-0.8
		c-1.7,9.8-7.5,17.8-15.3,21.6c-1.4,0.7-2.1,2.4-1.6,3.9c0.7,2,1.6,4.3,2.5,4.3c0,0,8.8,0.2,17,0.9c8.1,0.7,14.3,7.6,14.2,15.7
		l-0.7,77.2C286.2,318.4,286.2,318.5,286.2,318.5z"/>
	<path class="st6" d="M269.9,182c0,2-0.6,17.5-1.2,15.2c-1.8-6.1-0.8-22.6-9.2-18.5c-4.6,2.2-2.9,0.8-9,0.8c-6.3,0-9.2-7.1-14.5-7.3
		c-13.2-0.6-12.8,17.1-14.2,22.3c-0.5,1.8-2-11-2-12.2c0-6.4-3.4-24.2,3.1-24.4c2.1-0.1,9.1-4.8,9.4-3c0.1,0.9,0.9,1.4,1.7,1.4
		c0.6,0,1.1-0.3,1.5-0.8c0,0,7.4-3.8,8.1-2.7l4.7,4.4c0.7,1.1,4.9-3.3,4.9-3.3c0.6-1.1,15.1,8.3,15.1,8.3
		C272.2,166,269.9,174.3,269.9,182z"/>
	<polygon class="st10" points="266.6,318.6 265,434.7 265,435.1 262,435.2 248.4,435.7 246.9,435.7 246.9,433.9 244.8,335 
		244,435.7 243.2,435.7 242,435.7 228.3,435.3 223.9,435.1 223.9,318.6 	"/>
	<polygon class="st11" points="244.3,224.5 237.6,224.5 227.9,228.9 231.8,308.3 259.9,308.8 258.9,225.8 	"/>
	<rect x="222.5" y="308.8" class="st3" width="42.5" height="9.8"/>
	<g>
		<path class="st12" d="M236.9,217.5l-11.1,15.9l16.7-8.9C242.5,224.5,238.2,224.8,236.9,217.5z"/>
	</g>
	<g>
		<path class="st12" d="M253,217.5l10.7,15.4l-16.3-8.4C247.4,224.5,251.7,224.8,253,217.5z"/>
	</g>
	<polygon class="st13" points="242.4,233.8 238.9,250.7 240.7,289.7 245.2,298.4 249.9,290.1 251.3,250.7 247.6,233.8 	"/>
	<path d="M245.6,316.4h-3.3c-1.5,0-2.7-1.2-2.7-2.7v-0.4c0-1.5,1.2-2.7,2.7-2.7h3.3c1.5,0,2.7,1.2,2.7,2.7v0.4
		C248.3,315.2,247.1,316.4,245.6,316.4z"/>
	<path class="st2" d="M226.5,221.4l-11.6,3.5c-6.1,1.8-10.3,7.3-10.4,13.6l-2.4,83.1l15.3-8.1l3.1-50.3l-1.8,53.2l-9.3,74.4h28.2
		l-3.4-110.4L226.5,221.4z"/>
	<path class="st2" d="M264.8,221.4l9.8,3c7.1,2.2,12.1,8.6,12.3,16.1l2.3,81.2l-15.3-8.1l-3.1-50.3l1.7,53.2l9.2,74.4h-28.1l4-110.2
		L264.8,221.4z"/>
	<g>
		<path class="st14" d="M233,221.8c-1.5,3-2.1,7.6-1.9,13.9c0.4,11.2,2.3,31.1,3,45.8c0.2,4.7-15.3-35.2-15.3-35.2l6.6-9.3
			l-11.2-4.1c0,0,3.8-8.6,8.8-11.1l0,0c4.8-2.3,11.3-2.4,11.3-2.4S234,219.9,233,221.8z"/>
	</g>
	<g>
		<path class="st14" d="M257.6,222.6c1.5,3,3.2,6.4,3,12.8c-0.4,11.2,1.3,27.3-2.7,46.3c-1,4.6,13-36.5,13-36.5l-6.9-8.8l11.2-4.1
			c0,0-3.8-8.6-8.8-11.1l0,0c-4.8-2.3-12.7-2.2-12.7-2.2S256.6,220.7,257.6,222.6z"/>
	</g>
	<path class="st13" d="M247.2,234.8h-4.8c-1.5,0-2.7-1.2-2.7-2.7v-4.8c0-1.5,1.2-2.7,2.7-2.7h4.8c1.5,0,2.7,1.2,2.7,2.7v4.8
		C249.9,233.6,248.7,234.8,247.2,234.8z"/>
	<path class="st15" d="M247.2,234.8h-0.7c0.4,6.5-0.4,13.1-0.9,19.6c-1.1,13.8-1.1,27.7,0,41.5c0,0.5,0.1,1.1,0.3,1.6l-0.5,0.9
		l-4.5-8.8l-1.8-39l3.3-15.9l0.2-1h5.2l0.2,0.9C247.6,234.7,247.4,234.8,247.2,234.8z"/>
	<path class="st15" d="M247.8,234.7c-0.2,0-0.4,0.1-0.6,0.1h-4.8c-0.1,0-0.1,0-0.2,0c-1.4-0.1-2.5-1.3-2.5-2.7v-4.8
		c0-1.5,1.2-2.7,2.7-2.7h3.4c0,3,0.5,6.1,0.7,9.2v0.1h1.2L247.8,234.7z"/>
	<g>
		<path class="st16" d="M236.9,217.5l-11.4,14l17-7C242.5,224.5,238.2,224.8,236.9,217.5z"/>
	</g>
	<g>
		<path class="st16" d="M253,217.5l11.4,14l-17-7C247.4,224.5,251.7,224.8,253,217.5z"/>
	</g>
	<g>
		<path class="st2" d="M235.4,220.5c-1.5,3-3.5,8-3.3,14.3c0.4,11.2,1.3,30.9,2,45.6c0.2,4.7-13.6-35.5-13.6-35.5l5.8-8.8l-11.2-4.1
			c0,0,3.8-8.6,8.8-11.1l0,0c4.8-2.3,12.4-3.2,12.4-3.2S236.4,218.6,235.4,220.5z"/>
	</g>
	<g>
		<path class="st2" d="M254.1,220.3c1.5,3,3.5,8,3.3,14.3c-0.4,11.2,1.1,31.3,0.4,46c-0.2,4.7,11.2-35.9,11.2-35.9l-5.8-8.8
			l11.2-4.1c0,0-3.8-8.6-8.8-11.1l0,0c-4.8-2.3-12.4-3.2-12.4-3.2S253.1,218.4,254.1,220.3z"/>
	</g>
	<path class="st17" d="M268.5,261.8h-7.6c-1.8,0-3.3-1.5-3.3-3.3v-4.8c0-1.8,1.5-3.3,3.3-3.3h7.6c1.8,0,3.3,1.5,3.3,3.3v4.8
		C271.7,260.3,270.3,261.8,268.5,261.8z"/>
	<rect x="259.9" y="253.3" class="st2" width="2.9" height="5.2"/>
	<rect x="263.2" y="244.5" class="st18" width="2.9" height="5.2"/>
	<path class="st19" d="M240.2,160.1c0,2.9,1.4,5.5,2,8.3c0.5,2.3,0.3,4.5-0.2,6.7c-1.9-1.5-3.7-2.9-5.9-3
		c-13.2-0.6-12.8,17.2-14.2,22.3c-0.5,1.8-2-11-2-12.2c0-6.4-3.4-24.2,3-24.4c2.1-0.1,9.2-4.8,9.4-3c0.2,0.9,0.9,1.4,1.7,1.4
		c0.6,0,1.1-0.3,1.5-0.8c0,0,7.4-3.8,8.1-2.7l0.2,0.2C241.7,154.9,240.2,157.2,240.2,160.1z"/>
	<g>
		<path class="st20" d="M244.5,193.4C244.5,193.4,244.5,193.5,244.5,193.4L244.5,193.4C244.5,193.5,244.5,193.4,244.5,193.4z"/>
		<path class="st20" d="M244.5,193.5L244.5,193.5L244.5,193.5z"/>
		<path class="st20" d="M244.5,193.5c0,0.1-0.1,0.2-0.1,0.2C244.6,193.9,244.7,193.5,244.5,193.5z"/>
		<path class="st20" d="M244.4,193.9L244.4,193.9c0,0.1,0,0.1,0,0.2c0,0.1-0.1,0.7,0.1,0.6c0.1,0,0.2-0.4,0.1-0.6
			C244.6,194.1,244.4,193.9,244.4,193.9z"/>
		<path class="st20" d="M248.2,195.6l0.1-0.1c0,0-0.5,0.1-0.3,0.4C248.2,196.2,248.6,195.6,248.2,195.6z"/>
		<path class="st20" d="M250.3,195.9c0-0.1,0-0.1-0.1-0.2h-0.1c-0.2,0-0.4,0.2-0.3,0.4C249.9,196.2,250.3,196,250.3,195.9z"/>
		<path class="st20" d="M250.1,195.7L250.1,195.7c0.1,0,0.1,0,0.1,0H250.1z"/>
		<path class="st20" d="M253.6,207.3c-0.1,0-0.1,0.2-0.1,0.3c-0.1,0.1-0.2,0.2-0.3,0.3c-0.3,0.2-1.1,0.5-1,1c0,0.2,0.1,0.3,0,0.6
			c-0.1,0.2-0.4,0.6-0.3,0.8c0.2,0.7,0.8,0.2,1-0.2c0.2-0.5,0.2-1,0.5-1.3C253.8,208.1,253.6,207.8,253.6,207.3L253.6,207.3z"/>
		<path class="st2" d="M257.8,203.1l-0.1-1.3c-0.1-0.6-0.2-1-0.3-1.5c-1.4-4.2-4.4-4.3-6.3-5c-1.9-0.7-5.6-1.8-6.1-1.9
			c0,0,0,0-0.1,0c-0.5,0.1-4.1,1.3-6.1,1.9c-1.9,0.7-4.9,0.8-6.3,5c-0.1,0.4-0.2,0.9-0.3,1.5l-0.1,1.3c0,2.8,0.6,6.4,1.5,8.2
			c0.4,0.7,1,1.6,1.8,2.5l0.9,1c0.9,0.9,1.8,1.8,2.4,2.3c1.4,1,5.6,3.4,6.2,3.7l0,0l0,0c0.5-0.3,4.8-2.7,6.2-3.7
			c0.7-0.5,1.6-1.4,2.4-2.3l0.9-1c0.8-0.9,1.4-1.8,1.8-2.5C257.2,209.5,257.9,206,257.8,203.1z"/>
		<g>
			<path class="st17" d="M247,212.9c-0.2,0-0.3-0.1-0.3-0.3s0.1-0.3,0.3-0.4l5-0.7c0.2,0,0.3,0.1,0.4,0.3c0,0.2-0.1,0.3-0.3,0.4
				L247,212.9L247,212.9z"/>
		</g>
		<g>
			<path class="st17" d="M246.9,210.9c-0.1,0-0.2-0.1-0.2-0.2c0-0.1,0.1-0.2,0.2-0.2l5-0.7c0.1,0,0.2,0.1,0.2,0.2
				c0,0.1-0.1,0.2-0.2,0.2L246.9,210.9L246.9,210.9z"/>
		</g>
		<g>
			<path class="st17" d="M246.9,208.9C246.9,208.9,246.8,208.8,246.9,208.9c-0.1-0.1-0.1-0.2,0-0.2l5-0.7c0.1,0,0.1,0,0.1,0.1
				s0,0.1-0.1,0.1L246.9,208.9L246.9,208.9z"/>
		</g>
		<path class="st21" d="M233.4,198.2c-3.2,4.3-2.9,16.2,7.3,20.3C245.7,220.5,238.7,191.2,233.4,198.2z"/>
		<path class="st22" d="M245,193.4L245,193.4c-0.6,0.1-4.2,1.3-6.1,1.9c-1.9,0.7-4.9,0.8-6.3,5c-0.1,0.4-0.2,0.9-0.3,1.5l-0.1,1.3
			c0,2.8,0.6,6.4,1.5,8.2c0.4,0.7,1,1.6,1.8,2.5l0.9,1c0.9,0.9,1.8,1.8,2.4,2.3c1.4,1,5.6,3.4,6.2,3.7l0,0l0,0
			C245,216.7,245,198.3,245,193.4z"/>
		<g>
			<path class="st17" d="M243.3,212.9L243.3,212.9l-5-0.7c-0.2,0-0.3-0.2-0.3-0.4s0.2-0.3,0.4-0.3l5,0.7c0.2,0,0.3,0.2,0.3,0.4
				C243.6,212.7,243.5,212.9,243.3,212.9z"/>
		</g>
		<g>
			<path class="st17" d="M243.3,210.9L243.3,210.9l-5-0.7c-0.1,0-0.2-0.1-0.2-0.2c0-0.1,0.1-0.2,0.2-0.2l5,0.7
				c0.1,0,0.2,0.1,0.2,0.2C243.4,210.9,243.4,210.9,243.3,210.9z"/>
		</g>
		<g>
			<path class="st17" d="M243.3,208.9L243.3,208.9l-5-0.7c-0.1,0-0.1-0.1-0.1-0.1c0-0.1,0.1-0.1,0.1-0.1l5,0.7
				C243.3,208.7,243.4,208.7,243.3,208.9C243.4,208.8,243.3,208.9,243.3,208.9z"/>
		</g>
		<path class="st12" d="M250.4,200.1c0,0-4.2-2.2-5.5-2.2s-5.5,2.2-5.5,2.2s-1.2,0.3-0.6-0.9c0.6-1.1,4.8-2.8,6-2.8
			c1.4,0,5.4,1.7,6,2.8C251.7,200.4,250.4,200.1,250.4,200.1z"/>
		<g>
			<path class="st17" d="M245,220h-0.1l0,0c-0.1-0.1-0.3-0.2-0.6-0.3c-0.1,0-0.1-0.1-0.1-0.2c0-0.1,0.1-0.1,0.2-0.1
				c0.3,0.1,0.5,0.3,0.6,0.3l0.3-0.1c0.1,0,0.2,0,0.2,0.1s0,0.2-0.1,0.2L245,220C245.1,220,245,220,245,220z M244.9,219.9
				L244.9,219.9L244.9,219.9z M246.3,219.2c0,0-0.1,0-0.1-0.1s0-0.2,0.1-0.2c0.3-0.2,0.6-0.4,1-0.6c0.1,0,0.2,0,0.2,0.1
				s0,0.2-0.1,0.2C247,218.9,246.7,219,246.3,219.2C246.4,219.2,246.3,219.2,246.3,219.2z M243.4,219.1
				C243.3,219.1,243.3,219.1,243.4,219.1c-0.4-0.2-0.7-0.4-1-0.6c-0.1,0-0.1-0.1-0.1-0.2c0-0.1,0.1-0.1,0.2-0.1
				c0.3,0.2,0.7,0.4,1,0.6c0.1,0,0.1,0.1,0.1,0.2C243.5,219,243.4,219.1,243.4,219.1z M248.2,218.1c0,0-0.1,0-0.1-0.1s0-0.2,0-0.2
				c0.3-0.2,0.7-0.4,1-0.6c0.1,0,0.2,0,0.2,0c0,0.1,0,0.2,0,0.2C249,217.7,248.7,217.9,248.2,218.1
				C248.3,218.1,248.3,218.1,248.2,218.1z M241.4,217.9L241.4,217.9c-0.4-0.2-0.8-0.4-1-0.6c-0.1,0-0.1-0.1,0-0.2
				c0-0.1,0.1-0.1,0.2,0c0.3,0.2,0.6,0.4,1,0.6c0.1,0,0.1,0.1,0,0.2C241.5,217.9,241.5,217.9,241.4,217.9z M250.2,216.9
				c0,0-0.1,0-0.1-0.1s0-0.2,0-0.2c0.2-0.2,0.4-0.3,0.6-0.4c0.1-0.1,0.2-0.2,0.3-0.2c0.1-0.1,0.1,0,0.2,0c0.1,0.1,0,0.1,0,0.2
				c-0.1,0.1-0.2,0.2-0.3,0.2C250.7,216.6,250.5,216.7,250.2,216.9L250.2,216.9z M239.5,216.7L239.5,216.7c-0.2-0.1-0.3-0.2-0.4-0.3
				c-0.2-0.1-0.4-0.3-0.6-0.5c-0.1-0.1-0.1-0.1,0-0.2c0.1-0.1,0.1-0.1,0.2,0c0.2,0.2,0.4,0.3,0.6,0.5c0.1,0.1,0.2,0.1,0.3,0.2
				c0.1,0,0.1,0.1,0,0.2C239.6,216.7,239.6,216.7,239.5,216.7z M251.9,215.5h-0.1c-0.1-0.1-0.1-0.1,0-0.2c0.3-0.2,0.5-0.5,0.8-0.8
				c0.1-0.1,0.1-0.1,0.2,0c0.1,0.1,0.1,0.1,0,0.2C252.5,214.9,252.2,215.2,251.9,215.5C252,215.5,251.9,215.5,251.9,215.5z
				 M237.8,215.2L237.8,215.2c-0.4-0.3-0.6-0.6-0.9-0.8c-0.1-0.1-0.1-0.1,0-0.2c0.1-0.1,0.1-0.1,0.2,0c0.3,0.3,0.5,0.5,0.8,0.8
				c0.1,0.1,0.1,0.1,0,0.2C237.9,215.2,237.9,215.2,237.8,215.2z M253.4,213.9L253.4,213.9c-0.2-0.1-0.2-0.2-0.1-0.2l0.4-0.4
				c0.1-0.1,0.2-0.3,0.3-0.4c0-0.1,0.1-0.1,0.2,0c0.1,0,0.1,0.1,0,0.2c-0.1,0.1-0.2,0.3-0.3,0.4l-0.4,0.5
				C253.5,213.9,253.5,213.9,253.4,213.9z M236.3,213.6h-0.1l-0.2-0.2c-0.2-0.2-0.4-0.5-0.6-0.7c0-0.1,0-0.2,0-0.2
				c0.1,0,0.2,0,0.2,0c0.2,0.2,0.4,0.4,0.6,0.7l0.2,0.2C236.5,213.4,236.5,213.5,236.3,213.6C236.4,213.6,236.3,213.6,236.3,213.6z
				 M254.9,212.1C254.8,212.1,254.8,212.1,254.9,212.1c-0.1-0.1-0.2-0.2-0.1-0.2c0.2-0.3,0.4-0.7,0.6-0.9c0-0.1,0.1-0.1,0.2-0.1
				c0.1,0,0.1,0.1,0.1,0.2c-0.2,0.3-0.4,0.6-0.6,1C254.9,212.1,254.9,212.1,254.9,212.1z M234.9,211.8c0,0-0.1,0-0.1-0.1
				c-0.2-0.3-0.3-0.5-0.4-0.7c0-0.1-0.1-0.2-0.1-0.3s0-0.2,0.1-0.2s0.2,0,0.2,0.1s0.1,0.2,0.1,0.3c0.1,0.2,0.2,0.4,0.4,0.7
				C235.1,211.7,235.1,211.8,234.9,211.8C235,211.8,234.9,211.8,234.9,211.8z M255.9,210.2C255.9,210.2,255.9,210.1,255.9,210.2
				c-0.1,0-0.2-0.1-0.1-0.2c0.1-0.3,0.2-0.7,0.3-1.1c0-0.1,0.1-0.1,0.2-0.1s0.1,0.1,0.1,0.2c-0.1,0.4-0.2,0.8-0.3,1.1
				C256,210.1,256,210.2,255.9,210.2z M234,209.8c-0.1,0-0.1,0-0.1-0.1c-0.1-0.3-0.2-0.7-0.3-1.1c0-0.1,0-0.2,0.1-0.2s0.2,0,0.2,0.1
				c0.1,0.4,0.2,0.7,0.3,1.1C234.1,209.7,234.1,209.8,234,209.8L234,209.8z M256.5,208L256.5,208c-0.1,0-0.2-0.1-0.1-0.2
				c0.1-0.4,0.1-0.7,0.2-1.1c0-0.1,0.1-0.1,0.2-0.1s0.1,0.1,0.1,0.2c-0.1,0.4-0.1,0.8-0.2,1.1C256.6,207.9,256.5,208,256.5,208z
				 M233.4,207.6c-0.1,0-0.1,0-0.1-0.1c-0.1-0.4-0.1-0.7-0.2-1.1c0-0.1,0-0.1,0.1-0.2c0.1,0,0.1,0,0.2,0.1c0,0.4,0.1,0.7,0.2,1.1
				C233.6,207.5,233.5,207.6,233.4,207.6C233.5,207.6,233.4,207.6,233.4,207.6z M256.8,205.8L256.8,205.8c-0.1,0-0.1-0.1-0.1-0.2
				c0-0.4,0.1-0.8,0.1-1.1c0-0.1,0.1-0.1,0.1-0.1c0.1,0,0.1,0.1,0.1,0.1c0,0.4,0,0.7-0.1,1.1C256.9,205.7,256.9,205.8,256.8,205.8z
				 M233.1,205.4c-0.1,0-0.1-0.1-0.1-0.1c0-0.4-0.1-0.8-0.1-1.1c0-0.1,0.1-0.1,0.1-0.1c0.1,0,0.1,0.1,0.1,0.1c0,0.4,0,0.7,0.1,1.1
				C233.3,205.3,233.2,205.4,233.1,205.4C233.2,205.4,233.2,205.4,233.1,205.4z M256.9,203.6c-0.1,0-0.1-0.1-0.1-0.1l-0.1-1.1
				c0-0.1,0.1-0.1,0.1-0.2c0.1,0,0.1,0.1,0.2,0.1l0.1,1.1C257,203.5,257,203.6,256.9,203.6L256.9,203.6z M233.1,203.2L233.1,203.2
				c-0.1,0-0.1-0.1-0.1-0.2l0.1-0.9c0-0.1,0-0.2,0-0.3s0.1-0.1,0.2-0.1c0.1,0,0.1,0.1,0.1,0.2c0,0.1,0,0.2,0,0.3l-0.1,0.8
				C233.2,203.1,233.2,203.2,233.1,203.2z M256.6,201.3c-0.1,0-0.1,0-0.1-0.1s-0.1-0.3-0.1-0.4c-0.1-0.2-0.2-0.5-0.3-0.7
				c0-0.1,0-0.2,0.1-0.2s0.2,0,0.2,0.1c0.1,0.2,0.2,0.5,0.3,0.7c0,0.1,0.1,0.2,0.1,0.4C256.8,201.2,256.8,201.3,256.6,201.3
				C256.7,201.3,256.7,201.3,256.6,201.3z M233.4,201L233.4,201c-0.1,0-0.2-0.1-0.1-0.2c0.1-0.4,0.3-0.7,0.4-1.1
				c0-0.1,0.1-0.1,0.2-0.1c0.1,0,0.1,0.1,0.1,0.2c-0.2,0.3-0.3,0.7-0.4,1C233.6,200.9,233.5,201,233.4,201z M255.7,199.3
				c0,0-0.1,0-0.1-0.1c-0.2-0.3-0.4-0.6-0.7-0.9c-0.1-0.1-0.1-0.1,0-0.2c0.1-0.1,0.1-0.1,0.2,0c0.3,0.3,0.5,0.6,0.7,0.9
				C255.9,199.1,255.9,199.2,255.7,199.3C255.8,199.3,255.8,199.3,255.7,199.3z M234.5,199C234.4,199,234.4,199,234.5,199
				c-0.1-0.1-0.2-0.2-0.1-0.2c0.2-0.3,0.5-0.6,0.8-0.8c0.1-0.1,0.1,0,0.2,0c0.1,0.1,0,0.1,0,0.2c-0.3,0.2-0.5,0.5-0.7,0.8
				C234.5,198.9,234.5,199,234.5,199z M254.2,197.7C254.2,197.7,254.1,197.7,254.2,197.7c-0.4-0.2-0.7-0.4-1-0.5
				c-0.1,0-0.1-0.1-0.1-0.2c0-0.1,0.1-0.1,0.2-0.1c0.4,0.2,0.7,0.3,1,0.5c0.1,0,0.1,0.1,0,0.2C254.3,197.7,254.2,197.7,254.2,197.7z
				 M236.1,197.5c0,0-0.1,0-0.1-0.1s0-0.2,0.1-0.2c0.3-0.2,0.7-0.3,1-0.5c0.1,0,0.2,0,0.2,0.1s0,0.2-0.1,0.2
				C236.8,197.2,236.5,197.3,236.1,197.5C236.2,197.5,236.1,197.5,236.1,197.5z M252.1,196.8L252.1,196.8c-0.2-0.1-0.4-0.1-0.6-0.2
				c-0.2,0-0.4-0.1-0.5-0.1s-0.1-0.1-0.1-0.2c0-0.1,0.1-0.1,0.2-0.1c0.2,0,0.3,0.1,0.5,0.1c0.2,0.1,0.4,0.1,0.6,0.2
				c0.1,0,0.1,0.1,0.1,0.2C252.3,196.8,252.2,196.8,252.1,196.8z M238.2,196.7c-0.1,0-0.1,0-0.1-0.1s0-0.2,0.1-0.2l0.2-0.1
				c0.3-0.1,0.6-0.2,0.9-0.3c0.1,0,0.2,0,0.2,0.1s0,0.2-0.1,0.2c-0.3,0.1-0.6,0.2-0.9,0.3L238.2,196.7L238.2,196.7z M250,196.1
				L250,196.1c-0.4-0.1-0.7-0.2-1.1-0.4c-0.1,0-0.1-0.1-0.1-0.2c0-0.1,0.1-0.1,0.2-0.1c0.4,0.1,0.8,0.2,1.1,0.4
				c0.1,0,0.1,0.1,0.1,0.2C250.1,196.1,250.1,196.1,250,196.1z M240.3,196c-0.1,0-0.1,0-0.1-0.1s0-0.2,0.1-0.2
				c0.3-0.1,0.7-0.2,1.1-0.3c0.1,0,0.2,0,0.2,0.1s0,0.2-0.1,0.2C241.1,195.8,240.7,195.9,240.3,196C240.4,196,240.4,196,240.3,196z
				 M247.9,195.4C247.8,195.4,247.8,195.4,247.9,195.4c-0.4-0.1-0.8-0.2-1.1-0.3c-0.1,0-0.1-0.1-0.1-0.2c0-0.1,0.1-0.1,0.2-0.1
				c0.3,0.1,0.7,0.2,1.1,0.3c0.1,0,0.1,0.1,0.1,0.2C248,195.4,247.9,195.4,247.9,195.4z M242.5,195.3c-0.1,0-0.1,0-0.1-0.1
				s0-0.2,0.1-0.2c0.4-0.1,0.7-0.2,1.1-0.3c0.1,0,0.2,0,0.2,0.1s0,0.2-0.1,0.2C243.3,195.1,242.9,195.2,242.5,195.3L242.5,195.3z
				 M245.7,194.8L245.7,194.8c-0.4-0.1-0.6-0.2-0.7-0.2c-0.1,0-0.2,0-0.3,0.1c-0.1,0-0.2,0-0.2-0.1s0-0.2,0.1-0.2
				c0.2,0,0.3-0.1,0.3-0.1s0,0,0.1,0h0.1c0.1,0,0.4,0.1,0.7,0.2c0.1,0,0.1,0.1,0.1,0.2C245.8,194.7,245.8,194.8,245.7,194.8z"/>
		</g>
		<path class="st23" d="M244.1,197.8c-0.2,0-0.3-0.1-0.4-0.3c-0.1-0.2,0-0.5,0.3-0.5c0.1,0,0.6-0.2,1-0.2s0.9,0.2,0.9,0.2
			c0.2,0.1,0.3,0.3,0.3,0.5c-0.1,0.2-0.3,0.3-0.5,0.3c-0.1-0.1-0.4-0.1-0.6-0.1c-0.3,0-0.6,0.1-0.7,0.1
			C244.2,197.8,244.2,197.8,244.1,197.8z"/>
	</g>
	<g>
		<path class="st2" d="M219.1,182.5c2.4,2.9,4.7,5.8,7,8.7c1.2,1.4,2.4,2.9,3.4,4.4c1.1,1.5,2.1,3.1,3,4.7l-0.1,0.1
			c-1.3-1.3-2.5-2.7-3.7-4.2c-1.2-1.4-2.2-3-3.3-4.5C223.3,188.7,221.2,185.7,219.1,182.5L219.1,182.5z"/>
	</g>
	<g>
		<path class="st2" d="M219.1,195.1c2.3,2.2,4.7,4.5,7,6.8c1.2,1.1,2.4,2.2,3.4,3.4c1.1,1.2,2.1,2.5,3,3.8l-0.1,0.1
			c-1.3-1-2.5-2.1-3.7-3.2c-1.2-1.1-2.2-2.4-3.3-3.6C223.3,200,221.2,197.6,219.1,195.1L219.1,195.1z"/>
	</g>
	<g>
		<path class="st2" d="M269.9,182.3c-2,3.1-4.1,6.1-6.1,9.1c-1,1.5-2,3.1-3.1,4.5s-2.3,2.9-3.6,4.2L257,200c0.8-1.6,1.8-3.2,2.8-4.7
			s2.2-2.9,3.3-4.4C265.4,188.1,267.6,185.2,269.9,182.3L269.9,182.3z"/>
	</g>
	<g>
		<path class="st2" d="M270.1,194.8c-2.1,2.5-4.1,4.9-6.2,7.4c-1,1.2-2,2.5-3.2,3.6c-1.1,1.1-2.3,2.3-3.6,3.3L257,209
			c0.9-1.4,1.9-2.6,2.9-3.9c1-1.2,2.2-2.3,3.3-3.5C265.5,199.3,267.8,197,270.1,194.8L270.1,194.8z"/>
	</g>
</g>
<g>
	<g>
		<path class="st24" d="M394,214.9c-9.7,9.5-23.8,0-34.5,0c-9.6,0-24.5,7.7-31.4-6c-0.5-1-0.3-2.7,0.3-3.5
			c6.5-9.2,7.9-22.6,9.2-34.6c2.2-21,28.7-17.5,34.3-17.1c5.1,0.3,9.9,2.4,13.1,8.5c3.8,7.3,2.4,15.6,2.3,24
			c-0.1,9.3,1.8,18.3,7.1,24.2C395.5,211.6,395,214,394,214.9z"/>
	</g>
	<g>
		<path class="st25" d="M362.2,153.3c-1.4,1.1-2.6,2.5-3.7,3.9c-2.9,3.8-4.6,8.4-5.7,13.1c-3.5,14.1-1.9,29.4,4.3,42.5
			c0.4,0.8,0.7,1.5,1.1,2.2c-9.6,0.6-23.4,7-29.9-6c-0.5-1-0.3-2.7,0.3-3.5c6.5-9.1,7.9-22.6,9.2-34.6
			C339.2,156.3,352.4,153.5,362.2,153.3z"/>
	</g>
	<path class="st26" d="M394.8,330c0.5-0.8,0-2-0.9-2.1c-0.2,0-0.4,0-0.6,0.1c-8,2.8,0.6-11,1-14.9c1.4-12.3-1.6-39.7-4.2-59.3
		c-0.3-2.1-3.2-2.4-3.9-0.4c-0.4,1.2-0.7,2.6-0.8,4c0,0-6.8,26.4-6.6,35.5c0.3,9.8,8,30.2,8.5,38.1c1.6,25.3-9.5,101-9.5,101
		c0,1.2,7.1,2.8,8.2,3.2c5.1,1.9,18.3,7.5,10.4,13.1c-7.7,5.5-22.3,2.2-27.7,0.6c-1.2-0.3-2.1-1.5-2.1-2.8V332.2
		c0-1.6-1.3-2.9-2.9-2.9c-0.1,0-0.1,0-0.2,0l0,0c-0.1,0-0.2,0-0.3,0c-1.6,0-2.9,1.3-2.9,2.9v113.9c0,1.3-0.9,2.4-2.1,2.8
		c-5.4,1.5-20,4.9-27.7-0.6c-7.8-5.6,5.3-11.2,10.4-13.1c1.1-0.4,8.2-2,8.2-3.2c0,0-9.7-75-8.5-100.1c0.4-8.1,8.4-29,8.5-39
		c0.1-9.2-7.6-35.5-7.6-35.5v-0.1c-0.1-2.5-3.7-2.6-4.1-0.2c-2.5,19.3-5.1,44.3-3.8,56c0.4,3.9,9,17.7,1,14.9
		c-0.2-0.1-0.4-0.1-0.6-0.1c-1,0.1-1.5,1.2-0.9,2.1c1.4,2.2,6.3,10.4,2.7,12.1c-4.1,1.9-13.6-8.1-12.4-25.3v-0.1
		c0,0,3.3-50.1,3.5-75.2c0.1-7.3,4.6-13.3,11.8-14l14.1-4.6c0.9,0,1.6-2.3,2.1-4.2c0.4-1.5-0.3-3-1.7-3.7
		c-8.3-3.7-14.5-12-16.2-22.3c-0.7,0.7-1.5,1-2.4,1c-2.5,0-4.6-3.2-4.6-7.1s2.1-7.1,4.6-7.1c0.9,0,1.8,0.4,2.5,1.2
		c0.1-0.5,0.2-1,0.3-1.5c0,1.2,1,7.5,1.5,5.7c1.4-5.2,8.9-15.9,13.2-16.5c5.2-0.8,8.4-0.1,14.7-0.1c6.1,0,3.5,3,8.5,1.7
		c3.4-0.8,8.8,10.1,10.6,16.1c0.7,2.2,1.6-5.2,1.6-7.2c0.1,0.5,0.2,1,0.3,1.5c0.7-0.6,1.4-0.9,2.3-0.9c2.5,0,4.6,3.2,4.6,7.1
		s-2,7.1-4.6,7.1c-0.8,0-1.5-0.3-2.1-0.8c-1.7,9.8-7.5,17.8-15.3,21.6c-1.4,0.7-2.1,2.4-1.6,3.9c0.7,2,1.6,4.3,2.5,4.3
		c0,0,5.8,3.2,14,3.9c8.1,0.7,13.3,7.6,13.2,15.7l3.3,74.2v0.1c1.1,17.2-8.3,27.2-12.4,25.3C388.5,340.4,393.4,332.2,394.8,330z"/>
	<path class="st27" d="M340.2,311.6c0,0-4.4,4.1-5.3,10.6c-2.1,14.9,5.1,61.5,5.1,61.5c0,1.2,0,2.3,0.1,3.5l3.1,41.6h19.9v-92.5
		l2.6,92.5h19.9l3.7-39.9c0.2-2,0.2-3.9,0.1-5.9c0,0,6.7-44.3,4.2-59c-1.3-7.9-6.3-12.3-6.3-12.3h-47.1V311.6z"/>
	<path class="st2" d="M339.9,433.4l9.6,13.6l8.4-1.6l4-3.3v9.2l-23.8,2.2c-4.9,0.5-9.6-2-11.9-6.3c-1.6-3.1-1.7-6.7,2.9-9.8
		C335.7,433,339.9,433.4,339.9,433.4z"/>
	<path class="st2" d="M386.7,433.1l-9.6,13.6l-8.4-1.6l-4-3.3v9.2l23.8,2.2c4.9,0.5,9.6-2,11.9-6.3c1.6-3.1,1.7-6.7-2.9-9.8
		C390.9,432.7,386.7,433.1,386.7,433.1z"/>
	<path class="st28" d="M350.4,221l-13.2,4.1c-7.5,2.3-12.7,9.1-13.1,17l-0.6,15.7l14.2,15l1.9-9.4l3,19.5c1,6.5,0.9,13.1-0.4,19.5
		l-6.8,17.2l56.7-0.6l-7.7-14.9c-1.9-8.1-2.1-16.5-0.4-24.7l3.8-19l1.4,9.2l15.3-15.3l-1.4-16.3c-0.6-6.6-5.4-12.1-11.9-13.6
		l-15.5-3.4l-10.5,34.9L350.4,221z"/>
	<polygon class="st27" points="375.7,221 365.2,255.9 365.7,270.4 380.1,222 	"/>
	<polygon class="st29" points="350.4,221 368,262.6 365.7,270.4 346.3,222.3 	"/>
	<g>
		<path class="st14" d="M383.6,260.3c-0.2,0-0.3,0-0.5,0l0.1-1.2c1.1,0.1,1.9-0.2,2.4-0.7c0.9-1,0.8-2.9,0.6-3.6v-0.1l-1.2-16.4
			l1.2-0.1l1.2,16.4c0.1,0.4,0.5,3-0.9,4.6C385.9,259.9,384.9,260.3,383.6,260.3z"/>
	</g>
	
		<ellipse transform="matrix(0.2263 -0.9741 0.9741 0.2263 42.847 573.0209)" class="st30" cx="382.1" cy="259.5" rx="1.8" ry="1.2"/>
	<g>
		<path class="st14" d="M390.7,257.7c-0.2,0-0.4,0-0.5,0c-2.1-0.3-3.4-2.6-3.6-3l-9.4-13.5l1-0.7l9.5,13.6c0,0,1.1,2.1,2.7,2.4
			c0.8,0.1,1.6-0.2,2.3-1l0.9,0.9C392.6,257.2,391.7,257.7,390.7,257.7z"/>
	</g>
	<ellipse class="st14" cx="346.8" cy="263.9" rx="3" ry="4.3"/>
	<g>
		<path class="st31" d="M345.5,262.6l-2.5-0.2c0.1-0.9,1.4-21.4,4.2-32.8c1.2-5,2.7-8.4,4.5-10.2c1.6-1.7,3.3-1.4,3.6-1.4
			c0,0,0,0.3-0.2,0.9c-0.2,0.6-0.4,1.5-0.4,1.5s-2.7,0.3-5.1,9.9C346.8,241.4,345.5,262.4,345.5,262.6z"/>
	</g>
	<ellipse class="st12" cx="343.8" cy="263.9" rx="1.8" ry="2.6"/>
	
		<ellipse transform="matrix(0.8121 -0.5836 0.5836 0.8121 -74.9453 277.654)" class="st30" cx="393.6" cy="255.2" rx="1.2" ry="1.8"/>
	<g>
		<path class="st31" d="M378.5,242.5c-0.2,0.2-0.5,0.3-0.7,0.3c-0.6-0.1-1.5-0.4-2.4-1.2c-1.8-1.8-2.4-5.2-1.9-10.2
			c0.9-8.3-1-10.7-1.4-11.1c0,0-0.6-1.4-0.7-1.8c-0.1-0.3-0.1-0.8-0.1-0.8c0.5-0.1,2.1,0.5,2.3,0.7c1.7,1.2,9.7,7.5,13.1,19.4
			c0.1,0.4-0.1,0.8-0.5,0.9l-1,0.3c-0.4,0.1-0.8-0.1-0.9-0.5c-1.9-6.6-5.4-11.4-8.2-14.5c0.3,1.9,0.3,4.4,0,7.7
			c-0.6,5.5,0.5,7.5,1.2,8.2c0.5,0.5,1,0.5,1,0.5s0.9,0.1,1,1.1C379.2,241.7,378.8,242.2,378.5,242.5z"/>
	</g>
	<path class="st26" d="M333.4,330c1.4,2.2,6.3,10.4,2.7,12.1c-4.1,1.9-13.6-8.1-12.4-25.3v-0.1c0,0,0-0.6,0.1-1.8h10.5
		c1.8,5.2,7.7,15.7,0.6,13.2c-0.2-0.1-0.4-0.1-0.6-0.1C333.3,328,332.8,329.2,333.4,330z"/>
	<path class="st26" d="M392.1,342.1c-3.6-1.6,1.3-9.8,2.7-12.1c0.5-0.8,0-2-0.9-2.1c-0.2,0-0.4,0-0.6,0.1c-7.1,2.5-1.2-8,0.6-13.2
		h10.6l0.1,1.8v0.1C405.7,334,396.2,344,392.1,342.1z"/>
	<path class="st24" d="M368.7,166c-4.8,8.7,18,25.7,18,25.7s-11-17.5-4.6-20.5C390.5,167.3,370.4,162.8,368.7,166z"/>
	<g>
		<path class="st2" d="M337.1,192.7c2.3,2.2,4.7,4.5,7,6.8c1.2,1.1,2.4,2.2,3.4,3.4c1.1,1.2,2.1,2.5,3,3.8l-0.1,0.1
			c-1.3-1-2.5-2.1-3.7-3.2c-1.2-1.1-2.2-2.4-3.3-3.6C341.4,197.6,339.2,195.2,337.1,192.7L337.1,192.7z"/>
	</g>
	<g>
		<path class="st20" d="M363.1,192.5L363.1,192.5L363.1,192.5C363.2,192.5,363.1,192.5,363.1,192.5z"/>
		<path class="st20" d="M363.1,192.6L363.1,192.6L363.1,192.6z"/>
		<path class="st20" d="M363.1,192.6c0,0.1-0.1,0.2-0.1,0.2C363.2,193,363.4,192.6,363.1,192.6z"/>
		<path class="st20" d="M363.1,193L363.1,193c0,0.1,0,0.1,0,0.2c0,0.1-0.1,0.7,0.1,0.6c0.1,0,0.2-0.4,0.1-0.6
			C363.2,193.2,363,193,363.1,193z"/>
		<path class="st20" d="M366.8,194.7l0.1-0.1c0,0-0.5,0.1-0.3,0.4C366.8,195.3,367.2,194.7,366.8,194.7z"/>
		<path class="st20" d="M368.9,195c0-0.1,0-0.1-0.1-0.2h-0.1c-0.2,0-0.4,0.2-0.3,0.4C368.5,195.3,368.9,195.1,368.9,195z"/>
		<path class="st20" d="M368.7,194.8L368.7,194.8c0.1,0,0.1,0,0.1,0H368.7z"/>
		<path class="st20" d="M372.2,206.3c-0.1,0-0.1,0.2-0.1,0.3c-0.1,0.1-0.2,0.2-0.3,0.3c-0.3,0.2-1.1,0.5-1,1c0,0.2,0.1,0.3,0,0.6
			c-0.1,0.2-0.4,0.6-0.3,0.8c0.2,0.7,0.8,0.2,1-0.2c0.2-0.5,0.2-1,0.5-1.3C372.4,207.2,372.2,206.9,372.2,206.3L372.2,206.3z"/>
		<path class="st2" d="M376.4,202.2l-0.1-1.3c-0.1-0.6-0.2-1-0.3-1.5c-1.4-4.2-4.4-4.3-6.3-5s-5.6-1.8-6.1-1.9c0,0,0,0-0.1,0
			c-0.5,0.1-4.1,1.3-6.1,1.9c-1.9,0.7-4.9,0.8-6.3,5c-0.1,0.4-0.2,0.9-0.3,1.5l-0.1,1.3c0,2.8,0.6,6.4,1.5,8.2
			c0.4,0.7,1,1.6,1.8,2.5l0.9,1c0.9,0.9,1.8,1.8,2.4,2.3c1.4,1,5.6,3.4,6.2,3.7l0,0l0,0c0.5-0.3,4.8-2.7,6.2-3.7
			c0.7-0.5,1.6-1.4,2.4-2.3l0.9-1c0.8-0.9,1.4-1.8,1.8-2.5C375.8,208.6,376.5,205,376.4,202.2z"/>
		<g>
			<path class="st17" d="M365.6,212c-0.2,0-0.3-0.1-0.3-0.3s0.1-0.3,0.3-0.4l5-0.7c0.2,0,0.3,0.1,0.4,0.3c0,0.2-0.1,0.3-0.3,0.4
				L365.6,212L365.6,212z"/>
		</g>
		<g>
			<path class="st17" d="M365.5,210c-0.1,0-0.2-0.1-0.2-0.2c0-0.1,0.1-0.2,0.2-0.2l5-0.7c0.1,0,0.2,0.1,0.2,0.2
				c0,0.1-0.1,0.2-0.2,0.2L365.5,210C365.6,210,365.5,210,365.5,210z"/>
		</g>
		<g>
			<path class="st17" d="M365.5,207.9C365.5,207.9,365.4,207.9,365.5,207.9c-0.1-0.1-0.1-0.2,0-0.2l5-0.7c0.1,0,0.1,0,0.1,0.1
				s0,0.1-0.1,0.1L365.5,207.9L365.5,207.9z"/>
		</g>
		<path class="st21" d="M352,197.3c-3.2,4.3-2.9,16.2,7.3,20.3C364.3,219.6,357.3,190.3,352,197.3z"/>
		<path class="st22" d="M363.6,192.5L363.6,192.5c-0.6,0.1-4.2,1.3-6.1,1.9c-1.9,0.7-4.9,0.8-6.3,5c-0.1,0.4-0.2,0.9-0.3,1.5
			l-0.1,1.3c0,2.8,0.6,6.4,1.5,8.2c0.4,0.7,1,1.6,1.8,2.5l0.9,1c0.9,0.9,1.8,1.8,2.4,2.3c1.4,1,5.6,3.4,6.2,3.7l0,0l0,0
			C363.6,215.7,363.6,197.4,363.6,192.5z"/>
		<g>
			<path class="st17" d="M361.9,212L361.9,212l-5-0.7c-0.2,0-0.3-0.2-0.3-0.4s0.2-0.3,0.4-0.3l5,0.7c0.2,0,0.3,0.2,0.3,0.4
				C362.2,211.8,362.1,212,361.9,212z"/>
		</g>
		<g>
			<path class="st17" d="M361.9,210L361.9,210l-5-0.7c-0.1,0-0.2-0.1-0.2-0.2c0-0.1,0.1-0.2,0.2-0.2l5,0.7c0.1,0,0.2,0.1,0.2,0.2
				C362,209.9,362,210,361.9,210z"/>
		</g>
		<g>
			<path class="st17" d="M361.9,207.9L361.9,207.9l-5-0.7c-0.1,0-0.1-0.1-0.1-0.1c0-0.1,0.1-0.1,0.1-0.1l5,0.7
				C361.9,207.8,362,207.8,361.9,207.9C362,207.9,361.9,207.9,361.9,207.9z"/>
		</g>
		<path class="st12" d="M369,199.2c0,0-4.2-2.2-5.5-2.2s-5.5,2.2-5.5,2.2s-1.2,0.3-0.6-0.9c0.6-1.1,4.8-2.8,6-2.8
			c1.4,0,5.4,1.7,6,2.8C370.3,199.5,369,199.2,369,199.2z"/>
		<g>
			<path class="st17" d="M363.6,219.1h-0.1l0,0c-0.1-0.1-0.3-0.2-0.6-0.3c-0.1,0-0.1-0.1-0.1-0.2c0-0.1,0.1-0.1,0.2-0.1
				c0.3,0.1,0.5,0.3,0.6,0.3l0.3-0.1c0.1,0,0.2,0,0.2,0.1s0,0.2-0.1,0.2l-0.3,0.2C363.7,219.1,363.6,219.1,363.6,219.1z M363.5,219
				L363.5,219L363.5,219z M364.9,218.3c0,0-0.1,0-0.1-0.1s0-0.2,0.1-0.2c0.3-0.2,0.6-0.4,1-0.6c0.1,0,0.2,0,0.2,0.1s0,0.2-0.1,0.2
				C365.6,217.9,365.3,218.1,364.9,218.3C365,218.3,364.9,218.3,364.9,218.3z M362,218.1C361.9,218.1,361.9,218.1,362,218.1
				c-0.4-0.2-0.7-0.4-1-0.6c-0.1,0-0.1-0.1-0.1-0.2c0-0.1,0.1-0.1,0.2-0.1c0.3,0.2,0.7,0.4,1,0.6c0.1,0,0.1,0.1,0.1,0.2
				C362.1,218.1,362,218.1,362,218.1z M366.9,217.2c0,0-0.1,0-0.1-0.1s0-0.2,0-0.2c0.4-0.2,0.7-0.4,1-0.6c0.1,0,0.2,0,0.2,0
				c0,0.1,0,0.2,0,0.2C367.6,216.8,367.3,217,366.9,217.2L366.9,217.2z M360,217L360,217c-0.4-0.2-0.8-0.4-1-0.6
				c-0.1,0-0.1-0.1,0-0.2c0-0.1,0.1-0.1,0.2,0c0.3,0.2,0.6,0.4,1,0.6c0.1,0,0.1,0.1,0,0.2C360.1,217,360.1,217,360,217z M368.8,216
				c0,0-0.1,0-0.1-0.1s0-0.2,0-0.2c0.2-0.2,0.4-0.3,0.6-0.4c0.1-0.1,0.2-0.2,0.3-0.2c0.1-0.1,0.1,0,0.2,0s0,0.1,0,0.2
				c-0.1,0.1-0.2,0.2-0.3,0.2C369.3,215.7,369.1,215.8,368.8,216L368.8,216z M358.1,215.8L358.1,215.8c-0.2-0.1-0.3-0.2-0.4-0.3
				c-0.2-0.1-0.4-0.3-0.6-0.5c-0.1-0.1-0.1-0.1,0-0.2c0.1-0.1,0.1-0.1,0.2,0c0.2,0.2,0.4,0.3,0.6,0.5c0.1,0.1,0.2,0.1,0.3,0.2
				c0.1,0,0.1,0.1,0,0.2C358.2,215.8,358.2,215.8,358.1,215.8z M370.5,214.6h-0.1c-0.1-0.1-0.1-0.1,0-0.2c0.3-0.2,0.5-0.5,0.8-0.8
				c0.1-0.1,0.1-0.1,0.2,0s0.1,0.1,0,0.2C371.1,214,370.9,214.3,370.5,214.6C370.6,214.6,370.5,214.6,370.5,214.6z M356.4,214.3
				L356.4,214.3c-0.4-0.3-0.6-0.6-0.9-0.8c-0.1-0.1-0.1-0.1,0-0.2c0.1-0.1,0.1-0.1,0.2,0c0.3,0.3,0.5,0.5,0.8,0.8
				c0.1,0.1,0.1,0.1,0,0.2C356.5,214.3,356.5,214.3,356.4,214.3z M372,213C372,213,372,212.9,372,213c-0.2-0.1-0.2-0.2-0.1-0.2
				l0.4-0.4c0.1-0.1,0.2-0.3,0.3-0.4c0-0.1,0.1-0.1,0.2,0c0.1,0,0.1,0.1,0,0.2c-0.1,0.1-0.2,0.3-0.3,0.4l-0.4,0.5
				C372.1,212.9,372.1,213,372,213z M354.9,212.7h-0.1l-0.2-0.2c-0.2-0.2-0.4-0.5-0.6-0.7c0-0.1,0-0.2,0-0.2c0.1,0,0.2,0,0.2,0
				c0.2,0.2,0.4,0.4,0.6,0.7l0.2,0.2C355.1,212.5,355.1,212.6,354.9,212.7C355,212.7,354.9,212.7,354.9,212.7z M373.5,211.2
				C373.4,211.2,373.4,211.2,373.5,211.2c-0.1-0.1-0.2-0.2-0.1-0.2c0.2-0.3,0.4-0.7,0.6-0.9c0-0.1,0.1-0.1,0.2-0.1s0.1,0.1,0.1,0.2
				c-0.2,0.3-0.4,0.6-0.6,1C373.5,211.2,373.5,211.2,373.5,211.2z M353.5,210.9c0,0-0.1,0-0.1-0.1c-0.2-0.3-0.3-0.5-0.4-0.7
				c0-0.1-0.1-0.2-0.1-0.3s0-0.2,0.1-0.2s0.2,0,0.2,0.1s0.1,0.2,0.1,0.3c0.1,0.2,0.2,0.4,0.4,0.7
				C353.7,210.8,353.7,210.9,353.5,210.9C353.6,210.9,353.6,210.9,353.5,210.9z M374.5,209.2L374.5,209.2c-0.1,0-0.2-0.1-0.1-0.2
				c0.1-0.3,0.2-0.7,0.3-1.1c0-0.1,0.1-0.1,0.2-0.1s0.1,0.1,0.1,0.2c-0.1,0.4-0.2,0.8-0.3,1.1C374.6,209.2,374.6,209.2,374.5,209.2z
				 M352.6,208.9c-0.1,0-0.1,0-0.1-0.1c-0.1-0.3-0.2-0.7-0.3-1.1c0-0.1,0-0.2,0.1-0.2s0.2,0,0.2,0.1c0.1,0.4,0.2,0.7,0.3,1.1
				C352.7,208.8,352.7,208.9,352.6,208.9L352.6,208.9z M375.1,207.1L375.1,207.1c-0.1,0-0.2-0.1-0.1-0.2c0.1-0.4,0.1-0.7,0.2-1.1
				c0-0.1,0.1-0.1,0.2-0.1s0.1,0.1,0.1,0.2c-0.1,0.4-0.1,0.8-0.2,1.1C375.2,207,375.1,207.1,375.1,207.1z M352,206.7
				c-0.1,0-0.1,0-0.1-0.1c-0.1-0.4-0.1-0.7-0.2-1.1c0-0.1,0-0.1,0.1-0.2c0.1,0,0.1,0,0.2,0.1c0,0.4,0.1,0.7,0.2,1.1
				C352.2,206.6,352.1,206.7,352,206.7C352.1,206.7,352.1,206.7,352,206.7z M375.4,204.9L375.4,204.9c-0.1,0-0.1-0.1-0.1-0.2
				c0-0.4,0.1-0.8,0.1-1.1c0-0.1,0.1-0.1,0.1-0.1c0.1,0,0.1,0.1,0.1,0.1c0,0.4,0,0.7-0.1,1.1C375.5,204.8,375.5,204.9,375.4,204.9z
				 M351.8,204.5c-0.1,0-0.1-0.1-0.1-0.1c0-0.4-0.1-0.8-0.1-1.1c0-0.1,0.1-0.1,0.1-0.1c0.1,0,0.1,0.1,0.1,0.1c0,0.4,0,0.7,0.1,1.1
				L351.8,204.5L351.8,204.5z M375.5,202.6c-0.1,0-0.1-0.1-0.1-0.1l-0.1-1.1c0-0.1,0.1-0.1,0.1-0.2c0.1,0,0.1,0.1,0.2,0.1l0.1,1.1
				C375.6,202.6,375.6,202.6,375.5,202.6L375.5,202.6z M351.7,202.3L351.7,202.3c-0.1,0-0.1-0.1-0.1-0.2l0.1-0.9c0-0.1,0-0.2,0-0.3
				s0.1-0.1,0.2-0.1s0.1,0.1,0.1,0.2c0,0.1,0,0.2,0,0.3l-0.1,0.8C351.9,202.2,351.8,202.3,351.7,202.3z M375.3,200.4
				c-0.1,0-0.1,0-0.1-0.1s-0.1-0.3-0.1-0.4c-0.1-0.2-0.2-0.5-0.3-0.7c0-0.1,0-0.2,0.1-0.2s0.2,0,0.2,0.1c0.1,0.2,0.2,0.5,0.3,0.7
				c0,0.1,0.1,0.2,0.1,0.4C375.4,200.3,375.4,200.4,375.3,200.4L375.3,200.4z M352,200L352,200c-0.1,0-0.2-0.1-0.1-0.2
				c0.1-0.4,0.3-0.7,0.4-1.1c0-0.1,0.1-0.1,0.2-0.1s0.1,0.1,0.1,0.2c-0.2,0.3-0.3,0.7-0.4,1C352.2,200,352.1,200,352,200z
				 M374.4,198.4c0,0-0.1,0-0.1-0.1c-0.2-0.3-0.4-0.6-0.7-0.9c-0.1-0.1-0.1-0.1,0-0.2c0.1-0.1,0.1-0.1,0.2,0
				c0.3,0.3,0.5,0.6,0.7,0.9C374.5,198.2,374.5,198.3,374.4,198.4L374.4,198.4z M353.1,198.1C353,198.1,353,198,353.1,198.1
				c-0.1-0.1-0.2-0.2-0.1-0.2c0.2-0.3,0.5-0.6,0.8-0.8c0.1-0.1,0.1,0,0.2,0c0.1,0.1,0,0.1,0,0.2c-0.3,0.2-0.5,0.5-0.7,0.8
				C353.1,198,353.1,198.1,353.1,198.1z M372.8,196.8C372.8,196.8,372.7,196.8,372.8,196.8c-0.4-0.2-0.7-0.4-1-0.5
				c-0.1,0-0.1-0.1-0.1-0.2c0-0.1,0.1-0.1,0.2-0.1c0.4,0.2,0.7,0.3,1,0.5c0.1,0,0.1,0.1,0,0.2C372.9,196.8,372.8,196.8,372.8,196.8z
				 M354.7,196.6c0,0-0.1,0-0.1-0.1s0-0.2,0.1-0.2c0.3-0.2,0.7-0.3,1-0.5c0.1,0,0.2,0,0.2,0.1s0,0.2-0.1,0.2
				C355.4,196.2,355.1,196.4,354.7,196.6C354.8,196.6,354.7,196.6,354.7,196.6z M370.8,195.9C370.7,195.9,370.7,195.9,370.8,195.9
				c-0.2-0.1-0.4-0.1-0.6-0.2c-0.2,0-0.4-0.1-0.5-0.1s-0.1-0.1-0.1-0.2c0-0.1,0.1-0.1,0.2-0.1c0.2,0,0.3,0.1,0.5,0.1
				c0.2,0.1,0.4,0.1,0.6,0.2c0.1,0,0.1,0.1,0.1,0.2C370.9,195.8,370.8,195.9,370.8,195.9z M356.8,195.8c-0.1,0-0.1,0-0.1-0.1
				s0-0.2,0.1-0.2l0.2-0.1c0.3-0.1,0.6-0.2,0.9-0.3c0.1,0,0.2,0,0.2,0.1s0,0.2-0.1,0.2c-0.3,0.1-0.6,0.2-0.9,0.3L356.8,195.8
				L356.8,195.8z M368.6,195.2L368.6,195.2c-0.4-0.1-0.7-0.2-1.1-0.4c-0.1,0-0.1-0.1-0.1-0.2c0-0.1,0.1-0.1,0.2-0.1
				c0.4,0.1,0.8,0.2,1.1,0.4c0.1,0,0.1,0.1,0.1,0.2C368.7,195.2,368.7,195.2,368.6,195.2z M359,195.1c-0.1,0-0.1,0-0.1-0.1
				s0-0.2,0.1-0.2c0.3-0.1,0.7-0.2,1.1-0.3c0.1,0,0.2,0,0.2,0.1s0,0.2-0.1,0.2C359.7,194.9,359.3,195,359,195.1L359,195.1z
				 M366.5,194.5C366.5,194.5,366.4,194.5,366.5,194.5c-0.4-0.1-0.8-0.2-1.1-0.3c-0.1,0-0.1-0.1-0.1-0.2c0-0.1,0.1-0.1,0.2-0.1
				c0.3,0.1,0.7,0.2,1.1,0.3c0.1,0,0.1,0.1,0.1,0.2C366.6,194.5,366.5,194.5,366.5,194.5z M361.1,194.4c-0.1,0-0.1,0-0.1-0.1
				s0-0.2,0.1-0.2c0.4-0.1,0.7-0.2,1.1-0.3c0.1,0,0.2,0,0.2,0.1s0,0.2-0.1,0.2C361.9,194.2,361.5,194.3,361.1,194.4L361.1,194.4z
				 M364.3,193.9L364.3,193.9c-0.4-0.1-0.6-0.2-0.7-0.2s-0.2,0-0.3,0.1c-0.1,0-0.2,0-0.2-0.1s0-0.2,0.1-0.2c0.2,0,0.3-0.1,0.3-0.1
				s0,0,0.1,0h0.1c0.1,0,0.4,0.1,0.7,0.2c0.1,0,0.1,0.1,0.1,0.2C364.4,193.8,364.4,193.9,364.3,193.9z"/>
		</g>
		<path class="st23" d="M362.7,196.9c-0.2,0-0.3-0.1-0.4-0.3s0-0.5,0.3-0.5c0.1,0,0.6-0.2,1-0.2s0.9,0.2,0.9,0.2
			c0.2,0.1,0.3,0.3,0.3,0.5c-0.1,0.2-0.3,0.3-0.5,0.3c-0.1-0.1-0.4-0.1-0.6-0.1c-0.3,0-0.6,0.1-0.7,0.1
			C362.8,196.9,362.8,196.9,362.7,196.9z"/>
	</g>
	<g>
		<path class="st2" d="M337.7,181.6c2.4,2.9,4.7,5.8,7,8.7c1.2,1.4,2.4,2.9,3.4,4.4c1.1,1.5,2.1,3.1,3,4.7l-0.1,0.1
			c-1.3-1.3-2.5-2.7-3.7-4.2c-1.2-1.4-2.2-3-3.3-4.5C341.9,187.8,339.8,184.7,337.7,181.6L337.7,181.6z"/>
	</g>
	<g>
		<path class="st2" d="M388.5,181.4c-2,3.1-4.1,6.1-6.1,9.1c-1,1.5-2,3.1-3.1,4.5s-2.3,2.9-3.6,4.2l-0.1-0.1
			c0.8-1.6,1.8-3.2,2.8-4.7s2.2-2.9,3.3-4.4C384,187.2,386.2,184.3,388.5,181.4L388.5,181.4z"/>
	</g>
	<g>
		<path class="st2" d="M388.7,193.8c-2.1,2.5-4.1,4.9-6.2,7.4c-1,1.2-2,2.5-3.2,3.6c-1.1,1.1-2.3,2.3-3.6,3.3l-0.1-0.1
			c0.9-1.4,1.9-2.6,2.9-3.9c1-1.2,2.2-2.3,3.3-3.5C384.1,198.4,386.4,196.1,388.7,193.8L388.7,193.8z"/>
	</g>
</g>
<g>
	<path class="st30" d="M453.7,175.1c0,0-6.1,42.3-3.4,62.4s53.8,8.7,53.8,8.7s5.9-70.6-1.9-77.6S453.7,175.1,453.7,175.1z"/>
	<g>
		<path class="st30" d="M503.8,186.6c0,2.4,0.1,4.7,0.3,7c-0.1-0.1-0.2-0.1-0.3-0.2c-1.7,9.8-7.5,17.8-15.3,21.6
			c-0.9,0.5-1.6,1.3-1.7,2.3c-3.8-1-7.5-1.9-10.8-2c-1.9,0-4,0.3-6.2,0.7c-0.3-0.3-0.6-0.5-0.9-0.6c-8.3-3.7-14.6-12-16.2-22.2
			c-0.7,0.6-1.5,1-2.3,1c1.3-4.5,2.2-9.4,2.8-14.3c0.4-2.9,0.7-5.8,1-8.6c2.2-20.9,28.7-17.5,34.3-17.1c5.1,0.3,9.9,2.4,13.1,8.5
			c2.9,5.6,2.8,11.7,2.5,18.1C503.9,182.6,503.9,184.6,503.8,186.6z"/>
	</g>
	<path class="st32" d="M501.5,435.6c-1.1-0.4-11.1-2.4-11.1-3.6c0,0,6.2-50.5,10.5-83.5c1.2-9,7-14.4,6.8-19.8
		c0.3-0.1,0.6-0.1,0.9-0.3c0.2-0.1,0.4-0.1,0.6-0.1c1,0.1,1.5,1.2,1,2.1c-1.4,2.2-6.3,10.4-2.7,12.1c4.1,1.9,13.6-8.1,12.4-25.3
		v-0.1l-2.6-58.6l0,0l-0.7-15.6c0.1-8.1-5.1-14.9-13.2-15.7c-5.4-0.5-9.7-2-12.1-3c-1.2-0.5-1.9-0.9-1.9-0.9c-0.9,0-1.8-2.3-2.5-4.3
		c-0.2-0.5-0.2-1.1-0.1-1.6c0.2-1,0.8-1.8,1.7-2.3c7.8-3.8,13.7-11.9,15.3-21.6c0.1,0.1,0.2,0.1,0.3,0.2c0.6,0.4,1.2,0.6,1.8,0.6
		c2.5,0,4.6-3.2,4.6-7.1c0-3.9-2-7.1-4.6-7.1c-0.7,0-1.4,0.2-1.9,0.7c-0.1,0.1-0.2,0.2-0.3,0.3c-0.1-0.5-0.2-1-0.3-1.5
		c0,2-1,9.4-1.6,7.2c-1.8-6.1-7.2-17-10.6-16.1c-5,1.2-2.4-1.8-8.5-1.8c-6.3,0-9.5-0.7-14.7,0.1c-4.3,0.7-11.8,11.4-13.2,16.5
		c-0.5,1.8-2.7,8.4-2,7.7c1.6,10.2,7.9,18.6,16.2,22.2c0.4,0.1,0.6,0.4,0.9,0.6c0.8,0.8,1.1,1.9,0.8,3c-0.5,1.9-1.2,4.2-2.1,4.2
		l-0.8,0.3l-13.3,4.4c-7.2,0.7-11.8,6.7-11.8,14c0,5.3-0.2,11.8-0.5,18.6c-0.9,25.5-3,56.6-3,56.6v0.1c-1.1,17.2,8.3,27.2,12.4,25.3
		c3.6-1.7-1.3-9.9-2.7-12.1c-0.5-0.8,0-2,1-2.1c0.2,0,0.4,0,0.6,0.1c1.7,0.6,2.6,0.5,3.1-0.2c0.9,5.3,4.4,11.6,5.4,20.3
		c3.8,33.7,9.1,83.5,9.1,83.5c0,1.2-10.3,3.1-11.4,3.6c-5.1,1.9-18.3,7.5-10.4,13.1c7.7,5.5,23.3,2.2,28.7,0.6
		c1.2-0.3,2.1-1.5,2.1-2.8l1.5-103l-1.5-10.9c0-1.6,0.3-2.9,1.9-2.9c0.1,0,0.2,0,0.3,0l0,0c0.1,0,0.1,0,0.2,0c1.6,0,2.9,1.3,2.9,2.9
		L481,344l1.4,102.5c0,1.3,0.9,2.4,2.1,2.8c5.4,1.5,20,4.9,27.7-0.6C519.8,443,506.6,437.4,501.5,435.6z M500.9,257.8
		c0.1-1.4,0.3-2.7,0.8-4c0.7-2,3.7-1.8,3.9,0.4c0.6,4.4,1.2,9.3,1.8,14.3c2,17,3.5,35.5,2.4,45c-0.2,1.9-2.2,5.8-3.4,9.3
		c-0.9-2.3-2.1-4.9-3.5-7.6c-3.8-7.6-8.4-16.1-8.5-22C494.1,284.1,500.9,257.8,500.9,257.8z M453.3,324.4c-1.1-3.7-3.7-8.7-4-10.9
		c-1.1-9.2,0.4-26.7,2.2-43.1c0.5-4.4,1-8.8,1.6-12.8c0.3-2.5,3.9-2.3,4.1,0.2v0.1c0,0,7.7,26.3,7.6,35.5c-0.1,6.6-4.9,14.8-8.2,22
		C454.9,318.6,453.6,321.8,453.3,324.4z"/>
	<path class="st2" d="M480,370.9l-20-1.5c-4.6-14.8-9.5-40.7-8.7-46.8c0.9-6.5,5.3-10.6,5.3-10.6h47.1c0,0,5,4.3,6.4,12.3
		c1,5.8-6.4,33.5-10.5,45.1L480,370.9"/>
	<path class="st2" d="M456.4,433.8l9.6,13.6l8.4-1.6l4-3.3v9.2l-23.8,2.2c-4.9,0.5-9.6-2-11.9-6.3c-1.6-3.1-1.7-6.7,2.9-9.8
		C452.2,433.4,456.4,433.8,456.4,433.8z"/>
	<path class="st2" d="M503.1,433.5l-9.6,13.6l-8.4-1.6l-4-3.3v9.2l23.8,2.2c4.9,0.5,9.6-2,11.9-6.3c1.6-3.1,1.7-6.7-2.9-9.8
		C507.4,433.2,503.1,433.5,503.1,433.5z"/>
	<path class="st2" d="M501,304.5l5.6,10.8h-52.7l4.9-12.4c1.2-6.4,1.4-13,0.4-19.5l-3-19.5l-1.9,9.4l-14.2-1.7l0.6-28.9
		c0.3-7.9,5.5-14.7,13.1-17l13.2-4.1l14.8,34.9l10.5-34.9l15.5,3.4c6.5,1.4,11.3,6.9,11.9,13.5l0.4,29.9l-14.3,1.7l-1.4-9.2l-3.8,19
		C498.9,287.9,499.1,296.4,501,304.5z"/>
	<circle class="st33" cx="481.9" cy="263.8" r="1.4"/>
	<circle class="st22" cx="481.9" cy="277.4" r="1.4"/>
	<circle class="st22" cx="481.9" cy="290.9" r="1.4"/>
	<circle class="st22" cx="481.9" cy="305.9" r="1.4"/>
	<path class="st2" d="M500.3,162.2c-12.2-11.5-29.3-11.5-41.5,0c0.8-4.5,1.6-9.1,2.5-13.6c10.8-10.1,25.8-10.1,36.6,0
		C498.7,153.1,499.5,157.6,500.3,162.2z"/>
	<path class="st34" d="M482.4,146.4c0.2,0.8,0.4,1.6,0.7,2.4c-0.9,0-1.8,0-2.7,0c0.1,0.8,0.1,1.7,0.2,2.5c-1,0-2-0.1-3-0.1
		c0.1-0.8,0.1-1.6,0.2-2.5c-0.9,0-1.8,0-2.7,0c0.2-0.8,0.4-1.5,0.7-2.3c0.8,0,1.5,0,2.3,0c0.1-0.8,0.1-1.6,0.2-2.5
		c0.6,0,1.1,0,1.7-0.1c0.1,0.8,0.1,1.7,0.2,2.5C480.9,146.4,481.6,146.4,482.4,146.4z"/>
	<path class="st34" d="M461.3,150.1c2.3-2.4,5.1-4.4,8-5.9c3-1.5,6.3-2.5,9.7-2.5c3.4,0.1,6.8,0.7,9.8,2.1c3.1,1.3,5.9,3.2,8.2,5.7
		c-1.3-1.1-2.6-2-4-2.8s-2.9-1.6-4.4-2.1c-3-1.2-6.3-1.8-9.5-1.8s-6.4,0.9-9.4,2.2c-1.5,0.7-2.9,1.5-4.3,2.3
		C464,148.1,462.6,149.1,461.3,150.1z"/>
	<rect x="461.7" y="297.4" class="st35" width="13.9" height="13.4"/>
	<path class="st36" d="M466.8,289.7v7.7h-3.1v-7.7c0-0.8,0.7-1.5,1.5-1.5C466.1,288.2,466.8,288.9,466.8,289.7z"/>
	<line class="st37" x1="462.3" y1="298.6" x2="474.3" y2="298.6"/>
	<g>
		<path class="st2" d="M452.2,192.2c2.3,2.2,4.7,4.5,7,6.8c1.2,1.1,2.4,2.2,3.4,3.4c1.1,1.2,2.1,2.5,3,3.8l-0.1,0.1
			c-1.3-1-2.5-2.1-3.7-3.2c-1.2-1.1-2.2-2.4-3.3-3.6C456.5,197.1,454.3,194.7,452.2,192.2L452.2,192.2z"/>
	</g>
	<g>
		<path class="st20" d="M478.2,192L478.2,192L478.2,192C478.3,192,478.2,192,478.2,192z"/>
		<path class="st20" d="M478.2,192L478.2,192L478.2,192z"/>
		<path class="st20" d="M478.2,192c0,0.1-0.1,0.2-0.1,0.2C478.3,192.4,478.5,192,478.2,192z"/>
		<path class="st20" d="M478.2,192.5L478.2,192.5c0,0.1,0,0.1,0,0.2c0,0.1-0.1,0.7,0.1,0.6c0.1,0,0.2-0.4,0.1-0.6
			C478.3,192.6,478.2,192.5,478.2,192.5z"/>
		<path class="st20" d="M481.9,194.1l0.1-0.1c0,0-0.5,0.1-0.3,0.4C481.9,194.7,482.3,194.1,481.9,194.1z"/>
		<path class="st20" d="M484,194.4c0-0.1,0-0.1-0.1-0.2h-0.1c-0.2,0-0.4,0.2-0.3,0.4C483.6,194.8,484,194.5,484,194.4z"/>
		<path class="st20" d="M483.8,194.2L483.8,194.2c0.1,0,0.1,0,0.1,0H483.8z"/>
		<path class="st20" d="M487.3,205.8c-0.1,0-0.1,0.2-0.1,0.3c-0.1,0.1-0.2,0.2-0.3,0.3c-0.3,0.2-1.1,0.5-1,1c0,0.2,0.1,0.3,0,0.6
			c-0.1,0.2-0.4,0.6-0.3,0.8c0.2,0.7,0.8,0.2,1-0.2c0.2-0.5,0.2-1,0.5-1.3C487.5,206.7,487.3,206.3,487.3,205.8L487.3,205.8z"/>
		<path class="st2" d="M491.5,201.7l-0.1-1.3c-0.1-0.6-0.2-1-0.3-1.5c-1.4-4.2-4.4-4.3-6.3-5s-5.6-1.8-6.1-1.9c0,0,0,0-0.1,0
			c-0.5,0.1-4.1,1.3-6.1,1.9c-1.9,0.7-4.9,0.8-6.3,5c-0.1,0.4-0.2,0.9-0.3,1.5l-0.1,1.3c0,2.8,0.6,6.4,1.5,8.2
			c0.4,0.7,1,1.6,1.8,2.5l0.9,1c0.9,0.9,1.8,1.8,2.4,2.3c1.4,1,5.6,3.4,6.2,3.7l0,0l0,0c0.5-0.3,4.8-2.7,6.2-3.7
			c0.7-0.5,1.6-1.4,2.4-2.3l0.9-1c0.8-0.9,1.4-1.8,1.8-2.5C490.9,208.1,491.6,204.5,491.5,201.7z"/>
		<g>
			<path class="st17" d="M480.7,211.4c-0.2,0-0.3-0.1-0.3-0.3s0.1-0.3,0.3-0.4l5-0.7c0.2,0,0.3,0.1,0.4,0.3c0,0.2-0.1,0.3-0.3,0.4
				L480.7,211.4L480.7,211.4z"/>
		</g>
		<g>
			<path class="st17" d="M480.6,209.5c-0.1,0-0.2-0.1-0.2-0.2c0-0.1,0.1-0.2,0.2-0.2l5-0.7c0.1,0,0.2,0.1,0.2,0.2
				c0,0.1-0.1,0.2-0.2,0.2L480.6,209.5C480.7,209.5,480.7,209.5,480.6,209.5z"/>
		</g>
		<g>
			<path class="st17" d="M480.6,207.4L480.6,207.4c-0.1-0.1-0.1-0.2,0-0.2l5-0.7c0.1,0,0.1,0,0.1,0.1s0,0.1-0.1,0.1L480.6,207.4
				C480.7,207.4,480.6,207.4,480.6,207.4z"/>
		</g>
		<path class="st21" d="M467.1,196.7c-3.2,4.3-2.9,16.2,7.3,20.3C479.4,219,472.4,189.8,467.1,196.7z"/>
		<path class="st22" d="M478.7,192L478.7,192c-0.6,0.1-4.2,1.3-6.1,1.9c-1.9,0.7-4.9,0.8-6.3,5c-0.1,0.4-0.2,0.9-0.3,1.5l-0.1,1.3
			c0,2.8,0.6,6.4,1.5,8.2c0.4,0.7,1,1.6,1.8,2.5l0.9,1c0.9,0.9,1.8,1.8,2.4,2.3c1.4,1,5.6,3.4,6.2,3.7l0,0l0,0
			C478.7,215.2,478.7,196.8,478.7,192z"/>
		<g>
			<path class="st17" d="M477,211.4L477,211.4l-5-0.7c-0.2,0-0.3-0.2-0.3-0.4s0.2-0.3,0.4-0.3l5,0.7c0.2,0,0.3,0.2,0.3,0.4
				C477.3,211.3,477.2,211.4,477,211.4z"/>
		</g>
		<g>
			<path class="st17" d="M477,209.5L477,209.5l-5-0.7c-0.1,0-0.2-0.1-0.2-0.2c0-0.1,0.1-0.2,0.2-0.2l5,0.7c0.1,0,0.2,0.1,0.2,0.2
				S477.1,209.5,477,209.5z"/>
		</g>
		<g>
			<path class="st17" d="M477,207.4L477,207.4l-5-0.7c-0.1,0-0.1-0.1-0.1-0.1c0-0.1,0.1-0.1,0.1-0.1l5,0.7
				C477.1,207.2,477.1,207.3,477,207.4C477.1,207.4,477,207.4,477,207.4z"/>
		</g>
		<path class="st12" d="M484.2,198.6c0,0-4.2-2.2-5.5-2.2s-5.5,2.2-5.5,2.2s-1.2,0.3-0.6-0.9c0.6-1.1,4.8-2.8,6-2.8
			c1.4,0,5.4,1.7,6,2.8C485.4,199,484.2,198.6,484.2,198.6z"/>
		<g>
			<path class="st17" d="M478.7,218.5h-0.1l0,0c-0.1-0.1-0.3-0.2-0.6-0.3c-0.1,0-0.1-0.1-0.1-0.2c0-0.1,0.1-0.1,0.2-0.1
				c0.3,0.1,0.5,0.3,0.6,0.3l0.3-0.1c0.1,0,0.2,0,0.2,0.1s0,0.2-0.1,0.2l-0.3,0.2C478.8,218.5,478.7,218.5,478.7,218.5z
				 M478.6,218.5L478.6,218.5L478.6,218.5z M480,217.8c0,0-0.1,0-0.1-0.1s0-0.2,0.1-0.2c0.3-0.2,0.6-0.4,1-0.6c0.1,0,0.2,0,0.2,0.1
				s0,0.2-0.1,0.2C480.7,217.4,480.4,217.6,480,217.8C480.1,217.8,480,217.8,480,217.8z M477.1,217.6
				C477.1,217.6,477,217.6,477.1,217.6c-0.4-0.2-0.7-0.4-1-0.6c-0.1,0-0.1-0.1-0.1-0.2c0-0.1,0.1-0.1,0.2-0.1c0.3,0.2,0.7,0.4,1,0.6
				c0.1,0,0.1,0.1,0.1,0.2C477.2,217.6,477.1,217.6,477.1,217.6z M482,216.6c0,0-0.1,0-0.1-0.1s0-0.2,0-0.2c0.3-0.2,0.7-0.4,1-0.6
				c0.1,0,0.2,0,0.2,0c0,0.1,0,0.2,0,0.2C482.7,216.2,482.4,216.4,482,216.6L482,216.6z M475.1,216.5L475.1,216.5
				c-0.4-0.2-0.8-0.4-1-0.6c-0.1,0-0.1-0.1,0-0.2c0-0.1,0.1-0.1,0.2,0c0.3,0.2,0.6,0.4,1,0.6c0.1,0,0.1,0.1,0,0.2
				C475.2,216.4,475.2,216.5,475.1,216.5z M483.9,215.5c0,0-0.1,0-0.1-0.1s0-0.2,0-0.2c0.2-0.2,0.4-0.3,0.6-0.4
				c0.1-0.1,0.2-0.2,0.3-0.2c0.1-0.1,0.1,0,0.2,0s0,0.1,0,0.2c-0.1,0.1-0.2,0.2-0.3,0.2C484.4,215.1,484.2,215.3,483.9,215.5
				C483.9,215.4,483.9,215.5,483.9,215.5z M473.3,215.3C473.2,215.3,473.2,215.2,473.3,215.3c-0.2-0.1-0.3-0.2-0.4-0.3
				c-0.2-0.1-0.4-0.3-0.6-0.5c-0.1-0.1-0.1-0.1,0-0.2c0.1-0.1,0.1-0.1,0.2,0c0.2,0.2,0.4,0.3,0.6,0.5c0.1,0.1,0.2,0.1,0.3,0.2
				c0.1,0,0.1,0.1,0,0.2C473.3,215.2,473.3,215.3,473.3,215.3z M485.6,214h-0.1c-0.1-0.1-0.1-0.1,0-0.2c0.3-0.2,0.5-0.5,0.8-0.8
				c0.1-0.1,0.1-0.1,0.2,0s0.1,0.1,0,0.2C486.2,213.5,486,213.7,485.6,214C485.7,214,485.6,214,485.6,214z M471.6,213.8
				C471.5,213.8,471.5,213.8,471.6,213.8c-0.4-0.3-0.6-0.6-0.9-0.8c-0.1-0.1-0.1-0.1,0-0.2c0.1-0.1,0.1-0.1,0.2,0
				c0.3,0.3,0.5,0.5,0.8,0.8c0.1,0.1,0.1,0.1,0,0.2C471.6,213.8,471.6,213.8,471.6,213.8z M487.2,212.4
				C487.1,212.4,487.1,212.4,487.2,212.4c-0.2-0.1-0.2-0.2-0.1-0.2l0.4-0.4c0.1-0.1,0.2-0.3,0.3-0.4c0-0.1,0.1-0.1,0.2,0
				c0.1,0,0.1,0.1,0,0.2c-0.1,0.1-0.2,0.3-0.3,0.4l-0.4,0.5C487.2,212.4,487.2,212.4,487.2,212.4z M470,212.1h-0.1l-0.2-0.2
				c-0.2-0.2-0.4-0.5-0.6-0.7c0-0.1,0-0.2,0-0.2c0.1,0,0.2,0,0.2,0c0.2,0.2,0.4,0.4,0.6,0.7l0.2,0.2
				C470.2,212,470.2,212.1,470,212.1C470.1,212.1,470.1,212.1,470,212.1z M488.6,210.7C488.5,210.7,488.5,210.7,488.6,210.7
				c-0.1-0.1-0.2-0.2-0.1-0.2c0.2-0.3,0.4-0.7,0.6-0.9c0-0.1,0.1-0.1,0.2-0.1s0.1,0.1,0.1,0.2c-0.2,0.3-0.4,0.6-0.6,1
				C488.7,210.6,488.6,210.7,488.6,210.7z M468.6,210.4c0,0-0.1,0-0.1-0.1c-0.2-0.3-0.3-0.5-0.4-0.7c0-0.1-0.1-0.2-0.1-0.3
				s0-0.2,0.1-0.2s0.2,0,0.2,0.1s0.1,0.2,0.1,0.3c0.1,0.2,0.2,0.4,0.4,0.7C468.8,210.2,468.8,210.3,468.6,210.4
				C468.7,210.4,468.7,210.4,468.6,210.4z M489.6,208.7L489.6,208.7c-0.1,0-0.2-0.1-0.1-0.2c0.1-0.3,0.2-0.7,0.3-1.1
				c0-0.1,0.1-0.1,0.2-0.1s0.1,0.1,0.1,0.2c-0.1,0.4-0.2,0.8-0.3,1.1C489.7,208.7,489.7,208.7,489.6,208.7z M467.7,208.4
				c-0.1,0-0.1,0-0.1-0.1c-0.1-0.3-0.2-0.7-0.3-1.1c0-0.1,0-0.2,0.1-0.2s0.2,0,0.2,0.1c0.1,0.4,0.2,0.7,0.3,1.1
				C467.8,208.2,467.8,208.3,467.7,208.4L467.7,208.4z M490.2,206.5L490.2,206.5c-0.1,0-0.2-0.1-0.1-0.2c0.1-0.4,0.1-0.7,0.2-1.1
				c0-0.1,0.1-0.1,0.2-0.1s0.1,0.1,0.1,0.2c-0.1,0.4-0.1,0.8-0.2,1.1C490.3,206.5,490.3,206.5,490.2,206.5z M467.2,206.2
				c-0.1,0-0.1,0-0.1-0.1c-0.1-0.4-0.1-0.7-0.2-1.1c0-0.1,0-0.1,0.1-0.2c0.1,0,0.1,0,0.2,0.1c0,0.4,0.1,0.7,0.2,1.1
				C467.3,206.1,467.3,206.2,467.2,206.2L467.2,206.2z M490.5,204.3L490.5,204.3c-0.1,0-0.1-0.1-0.1-0.2c0-0.4,0.1-0.8,0.1-1.1
				c0-0.1,0.1-0.1,0.1-0.1c0.1,0,0.1,0.1,0.1,0.1c0,0.4,0,0.7-0.1,1.1C490.6,204.2,490.6,204.3,490.5,204.3z M466.9,203.9
				c-0.1,0-0.1-0.1-0.1-0.1c0-0.4-0.1-0.8-0.1-1.1c0-0.1,0.1-0.1,0.1-0.1c0.1,0,0.1,0.1,0.1,0.1c0,0.4,0,0.7,0.1,1.1
				C467,203.9,467,203.9,466.9,203.9L466.9,203.9z M490.6,202.1c-0.1,0-0.1-0.1-0.1-0.1l-0.1-1.1c0-0.1,0.1-0.1,0.1-0.2
				c0.1,0,0.1,0.1,0.2,0.1l0.1,1.1C490.8,202,490.7,202.1,490.6,202.1L490.6,202.1z M466.8,201.7L466.8,201.7
				c-0.1,0-0.1-0.1-0.1-0.2l0.1-0.9c0-0.1,0-0.2,0-0.3s0.1-0.1,0.2-0.1s0.1,0.1,0.1,0.2c0,0.1,0,0.2,0,0.3l-0.1,0.8
				C467,201.6,466.9,201.7,466.8,201.7z M490.4,199.9c-0.1,0-0.1,0-0.1-0.1s-0.1-0.3-0.1-0.4c-0.1-0.2-0.2-0.5-0.3-0.7
				c0-0.1,0-0.2,0.1-0.2s0.2,0,0.2,0.1c0.1,0.2,0.2,0.5,0.3,0.7c0,0.1,0.1,0.2,0.1,0.4C490.5,199.8,490.5,199.8,490.4,199.9
				L490.4,199.9z M467.2,199.5C467.1,199.5,467.1,199.5,467.2,199.5c-0.1,0-0.2-0.1-0.1-0.2c0.1-0.4,0.3-0.7,0.4-1.1
				c0-0.1,0.1-0.1,0.2-0.1s0.1,0.1,0.1,0.2c-0.2,0.3-0.3,0.7-0.4,1C467.3,199.5,467.2,199.5,467.2,199.5z M489.5,197.8
				c0,0-0.1,0-0.1-0.1c-0.2-0.3-0.4-0.6-0.7-0.9c-0.1-0.1-0.1-0.1,0-0.2c0.1-0.1,0.1-0.1,0.2,0c0.3,0.3,0.5,0.6,0.7,0.9
				C489.6,197.7,489.6,197.8,489.5,197.8L489.5,197.8z M468.2,197.5C468.1,197.5,468.1,197.5,468.2,197.5c-0.1-0.1-0.2-0.2-0.1-0.2
				c0.2-0.3,0.5-0.6,0.8-0.8c0.1-0.1,0.1,0,0.2,0c0.1,0.1,0,0.1,0,0.2c-0.3,0.2-0.5,0.5-0.7,0.8
				C468.3,197.5,468.2,197.5,468.2,197.5z M487.9,196.2L487.9,196.2c-0.4-0.2-0.7-0.4-1-0.5c-0.1,0-0.1-0.1-0.1-0.2s0.1-0.1,0.2-0.1
				c0.4,0.2,0.7,0.3,1,0.5c0.1,0,0.1,0.1,0,0.2C488,196.2,488,196.2,487.9,196.2z M469.8,196c0,0-0.1,0-0.1-0.1s0-0.2,0.1-0.2
				c0.3-0.2,0.7-0.3,1-0.5c0.1,0,0.2,0,0.2,0.1s0,0.2-0.1,0.2C470.5,195.7,470.2,195.8,469.8,196C469.9,196,469.9,196,469.8,196z
				 M485.9,195.3C485.9,195.3,485.8,195.3,485.9,195.3c-0.2-0.1-0.4-0.1-0.6-0.2c-0.2,0-0.4-0.1-0.5-0.1s-0.1-0.1-0.1-0.2
				c0-0.1,0.1-0.1,0.2-0.1c0.2,0,0.3,0.1,0.5,0.1c0.2,0.1,0.4,0.1,0.6,0.2c0.1,0,0.1,0.1,0.1,0.2C486,195.3,485.9,195.3,485.9,195.3
				z M471.9,195.2c-0.1,0-0.1,0-0.1-0.1s0-0.2,0.1-0.2l0.2-0.1c0.3-0.1,0.6-0.2,0.9-0.3c0.1,0,0.2,0,0.2,0.1s0,0.2-0.1,0.2
				c-0.3,0.1-0.6,0.2-0.9,0.3L471.9,195.2C472,195.2,471.9,195.2,471.9,195.2z M483.7,194.7L483.7,194.7c-0.4-0.1-0.7-0.2-1.1-0.4
				c-0.1,0-0.1-0.1-0.1-0.2c0-0.1,0.1-0.1,0.2-0.1c0.4,0.1,0.8,0.2,1.1,0.4c0.1,0,0.1,0.1,0.1,0.2
				C483.8,194.6,483.8,194.7,483.7,194.7z M474.1,194.5c-0.1,0-0.1,0-0.1-0.1s0-0.2,0.1-0.2c0.3-0.1,0.7-0.2,1.1-0.3
				c0.1,0,0.2,0,0.2,0.1s0,0.2-0.1,0.2C474.8,194.3,474.5,194.4,474.1,194.5L474.1,194.5z M481.6,194L481.6,194
				c-0.4-0.1-0.8-0.2-1.1-0.3c-0.1,0-0.1-0.1-0.1-0.2c0-0.1,0.1-0.1,0.2-0.1c0.3,0.1,0.7,0.2,1.1,0.3c0.1,0,0.1,0.1,0.1,0.2
				C481.7,193.9,481.6,194,481.6,194z M476.2,193.9c-0.1,0-0.1,0-0.1-0.1s0-0.2,0.1-0.2c0.4-0.1,0.7-0.2,1.1-0.3
				c0.1,0,0.2,0,0.2,0.1s0,0.2-0.1,0.2C477,193.6,476.6,193.7,476.2,193.9L476.2,193.9z M479.4,193.3L479.4,193.3
				c-0.4-0.1-0.6-0.2-0.7-0.2s-0.2,0-0.3,0.1c-0.1,0-0.2,0-0.2-0.1s0-0.2,0.1-0.2c0.2,0,0.3-0.1,0.3-0.1s0,0,0.1,0h0.1
				c0.1,0,0.4,0.1,0.7,0.2c0.1,0,0.1,0.1,0.1,0.2C479.6,193.3,479.5,193.3,479.4,193.3z"/>
		</g>
		<path class="st23" d="M477.8,196.4c-0.2,0-0.3-0.1-0.4-0.3s0-0.5,0.3-0.5c0.1,0,0.6-0.2,1-0.2s0.9,0.2,0.9,0.2
			c0.2,0.1,0.3,0.3,0.3,0.5c-0.1,0.2-0.3,0.3-0.5,0.3c-0.1-0.1-0.4-0.1-0.6-0.1c-0.3,0-0.6,0.1-0.7,0.1
			C477.9,196.4,477.9,196.4,477.8,196.4z"/>
	</g>
	<g>
		<path class="st2" d="M452.8,181.1c2.4,2.9,4.7,5.8,7,8.7c1.2,1.4,2.4,2.9,3.4,4.4c1.1,1.5,2.1,3.1,3,4.7l-0.1,0.1
			c-1.3-1.3-2.5-2.7-3.7-4.2c-1.2-1.4-2.2-3-3.3-4.5C457,187.2,454.9,184.2,452.8,181.1L452.8,181.1z"/>
	</g>
	<g>
		<path class="st2" d="M503.6,180.9c-2,3.1-4.1,6.1-6.1,9.1c-1,1.5-2,3.1-3.1,4.5s-2.3,2.9-3.6,4.2l-0.1-0.1
			c0.8-1.6,1.8-3.2,2.8-4.7s2.2-2.9,3.3-4.4C499.1,186.6,501.3,183.7,503.6,180.9L503.6,180.9z"/>
	</g>
	<g>
		<path class="st2" d="M503.8,193.3c-2.1,2.5-4.1,4.9-6.2,7.4c-1,1.2-2,2.5-3.2,3.6c-1.1,1.1-2.3,2.3-3.6,3.3l-0.1-0.1
			c0.9-1.4,1.9-2.6,2.9-3.9c1-1.2,2.2-2.3,3.3-3.5C499.2,197.8,501.5,195.5,503.8,193.3L503.8,193.3z"/>
	</g>
	<path class="st30" d="M453.2,179.9c-5.4,16.9-4.1,71-4.1,71c-0.1,3.7,4.5,5.4,6.9,2.7c0.3-0.3,0.6-0.7,0.8-1.1
		c2.3-3.1,3.5-1.1,4.2,1.1c0.3,1.2,1.9,1.4,2.5,0.4c0.4-0.6,0.8-1.2,1.2-1.5c1.3-1.2,2.6-0.7,3.7,0.4c1,1,2.7,0.2,2.6-1.2
		c0,0-25.8-76.7,7-85.2C483.2,165.1,458.8,162.2,453.2,179.9z"/>
	<path class="st32" d="M448.8,330.4c1.4,2.2,6.3,10.4,2.7,12.1c-4.1,1.9-13.6-8.1-12.4-25.3v-0.1c0,0,0-0.6,0.1-1.8h10.5
		c1.8,5.2,7.7,15.7,0.6,13.2c-0.2-0.1-0.4-0.1-0.6-0.1C448.8,328.4,448.3,329.6,448.8,330.4z"/>
	<path class="st32" d="M507.6,342.5c-3.6-1.6,1.3-9.8,2.7-12.1c0.5-0.8,0-2-0.9-2.1c-0.2,0-0.4,0-0.6,0.1c-7.1,2.5-1.2-8,0.6-13.2
		H520l0.1,1.8v0.1C521.1,334.4,511.7,344.4,507.6,342.5z"/>
</g>
</svg>
