<?xml version="1.0" encoding="utf-8"?>
<!-- Generator: Adobe Illustrator 24.0.2, SVG Export Plug-In . SVG Version: 6.00 Build 0)  -->
<svg version="1.1" id="레이어_1" xmlns="http://www.w3.org/2000/svg" xmlns:xlink="http://www.w3.org/1999/xlink" x="0px"
	 y="0px" viewBox="0 0 157 90" style="enable-background:new 0 0 157 90;" xml:space="preserve">
<style type="text/css">
	.st0{fill:#FFFFFF;}
	.st1{fill:#EFF0F7;}
	.st2{fill:#5E67AF;}
	.st3{fill:#FFFFFF;stroke:#5E67AF;stroke-linejoin:round;stroke-miterlimit:1;stroke-dasharray:1;}
	.st4{font-family:'FranklinGothic-Heavy';}
	.st5{font-size:32.4731px;}
	.st6{font-size:23px;}
	.st7{font-size:27.0609px;}
	.st8{font-size:20px;}
</style>
<g>
	<path class="st0" d="M123.7,29.3c0,7-2.7,14.1-8.1,19.5L78.4,86c-3.7,3.7-9.7,3.7-13.4,0L32.8,53.7l-5.1-5.1
		C17,38,17,20.6,27.7,9.8c5.4-5.4,12.4-8.1,19.5-8.1s14.1,2.7,19.5,8.1l5.1,5.1l5.1-5.1c10.7-10.7,28.1-10.7,38.9,0
		C121,15.2,123.7,22.2,123.7,29.3"/>
	<path class="st0" d="M65.2,8.5c-0.5,0.4-1,0.8-1.4,1.3l-5.1,5.1l-5.1-5.1c-3.7-3.7-8.2-6.1-13-7.3C42.8,2,45,1.8,47.2,1.8
		C53.6,1.8,60,4,65.2,8.5z"/>
	<path class="st1" d="M65.2,86.2L65.2,86.2c1.6,1.6,3.7,2.4,5.8,2.5C68.9,88.6,66.9,87.7,65.2,86.2 M103.2,61.1L78.4,86
		c-1.2,1.2-2.7,2.1-4.3,2.5c1.6-0.4,3.1-1.2,4.3-2.5L103.2,61.1 M120.5,16.4c2.1,4,3.2,8.4,3.2,12.8c0,4.3-1,8.5-2.9,12.3
		c2-3.9,2.9-8.1,2.9-12.3C123.7,24.8,122.6,20.4,120.5,16.4 M108.3,4.5L108.3,4.5L108.3,4.5 M101.4,2.2c2.4,0.5,4.7,1.2,6.9,2.3
		C106.1,3.5,103.8,2.7,101.4,2.2 M101.4,2.2L101.4,2.2L101.4,2.2"/>
	<path class="st1" d="M96.2,1.8c-2.2,0-4.3,0.2-6.5,0.8c4.7,1.1,9.3,3.6,13,7.3c5.4,5.4,8,12.4,8,19.5s-2.7,14.1-8,19.4L65.4,86
		c-0.1,0.1-0.2,0.2-0.2,0.2c1.6,1.6,3.7,2.4,5.8,2.5c0.2,0,0.4,0,0.7,0c0.8,0,1.6-0.1,2.4-0.3c1.6-0.4,3.1-1.2,4.3-2.5l24.8-24.8
		l12.4-12.4c2.1-2.1,3.8-4.5,5.1-7.1c2-3.9,2.9-8.1,2.9-12.3c0-4.4-1.1-8.8-3.2-12.8c-1.2-2.4-2.9-4.6-4.9-6.6
		c-2.2-2.2-4.7-3.9-7.3-5.2l0,0l0,0c-2.2-1.1-4.5-1.8-6.9-2.3c0,0,0,0,0,0c0,0,0,0,0,0C99.7,1.9,97.9,1.8,96.2,1.8"/>
	<path class="st2" d="M40,12.8c2.2-1,4.7-1.5,7.1-1.5c0.7,0,1.2-0.5,1.2-1.2S47.8,9,47.1,9c-2.8,0-5.6,0.6-8.1,1.7
		c-0.6,0.2-0.9,1-0.6,1.6C38.7,12.8,39.4,13.1,40,12.8L40,12.8z"/>
	<path class="st2" d="M34.5,41.9c-3.4-3.4-5.2-7.8-5.2-12.7c0-4.8,1.9-9.3,5.2-12.7c0.4-0.4,0.8-0.7,1.2-1.1
		c0.5-0.4,0.6-1.1,0.2-1.6s-1.1-0.6-1.6-0.2c-0.5,0.4-0.9,0.8-1.3,1.2c-3.8,3.8-5.9,8.9-5.9,14.3s2.1,10.5,5.9,14.3
		c0.5,0.5,1.2,0.5,1.7,0C35,43.1,35,42.4,34.5,41.9L34.5,41.9z"/>
	<path class="st2" d="M71.7,90.2c-2.9,0-5.7-1.1-7.8-3.2L26.7,49.7c-5.5-5.5-8.5-12.8-8.5-20.5s3-15,8.5-20.5
		c5.5-5.5,12.8-8.5,20.5-8.5c7.7,0,15,3,20.5,8.5l4,4l4-4c11.3-11.3,29.7-11.3,41,0c5.5,5.5,8.5,12.8,8.5,20.5c0,7.7-3,15-8.5,20.5
		L79.4,86.9C77.4,89.1,74.6,90.2,71.7,90.2z M47.2,3.2c-6.9,0-13.5,2.7-18.4,7.6c-4.9,4.9-7.6,11.4-7.6,18.4
		c0,6.9,2.7,13.5,7.6,18.4L66,84.9c1.5,1.5,3.5,2.3,5.6,2.3c2.1,0,4.1-0.8,5.6-2.3l37.3-37.3c4.9-4.9,7.6-11.4,7.6-18.4
		c0-6.9-2.7-13.5-7.6-18.4c-10.1-10.1-26.6-10.1-36.8,0L71.7,17l-6.1-6.1C60.6,5.9,54.1,3.2,47.2,3.2z"/>
	<path class="st2" d="M147.1,40.3h8.9c0.7,0,1.2-0.5,1.2-1.2c0-0.7-0.5-1.2-1.2-1.2h-8.9c-0.7,0-1.2,0.5-1.2,1.2
		C145.9,39.7,146.4,40.3,147.1,40.3"/>
	<path class="st2" d="M12.5,52.8h49.8l4.4-10.5L75.4,67L88,27.4l1.8,12.8h47c0.7,0,1.2-0.5,1.2-1.2s-0.5-1.2-1.2-1.2h-45l-3-21
		L75.3,59.6L67,35.8l-6.2,14.7H12.6c-0.7,0-1.2,0.5-1.2,1.2C11.4,52.3,11.9,52.8,12.5,52.8L12.5,52.8z"/>
</g>
<g>
	<text transform="matrix(1 0 0 1 3.173828e-02 40.5625)"><tspan x="0" y="0" class="st3 st4 st5">C</tspan><tspan x="20.4" y="0" class="st3 st4 st6">OVI9</tspan></text>
</g>
<g>
	<text transform="matrix(1 0 0 1 66.127 67.7813)"><tspan x="0" y="0" class="st3 st4 st7">V</tspan><tspan x="17.3" y="0" class="st3 st4 st8">ACCINE</tspan></text>
</g>
</svg>
