<?xml version="1.0" encoding="utf-8"?>
<!-- Generator: Adobe Illustrator 24.0.2, SVG Export Plug-In . SVG Version: 6.00 Build 0)  -->
<svg version="1.1" id="Layer_1" xmlns="http://www.w3.org/2000/svg" xmlns:xlink="http://www.w3.org/1999/xlink" x="0px" y="0px"
	 viewBox="0 0 2000 1500" style="enable-background:new 0 0 2000 1500;" xml:space="preserve">
<style type="text/css">
	.st0{fill:#FFFFFF;}
	.st1{fill:#F2C8BC;}
	.st2{fill:#5E67AF;stroke:#5E67AF;stroke-width:3;stroke-miterlimit:10;}
	.st3{fill:#EFF0F7;}
	.st4{fill:#EFF0F7;stroke:#5E67AF;stroke-miterlimit:10;}
	.st5{fill:#E3BEBB;}
	.st6{fill:#5E67AF;stroke:#5E67AF;stroke-width:2;stroke-miterlimit:10;}
	.st7{fill:#5E67AF;stroke:#5E67AF;stroke-miterlimit:10;}
	.st8{fill:#5E67AF;stroke:#5E67AF;stroke-width:4;stroke-linecap:round;stroke-miterlimit:10;}
	.st9{fill:#FFFFFF;stroke:#5E67AF;stroke-width:5.25;stroke-miterlimit:10;}
	.st10{fill:#5E67AF;stroke:#5E67AF;stroke-width:4;stroke-linecap:round;stroke-linejoin:round;stroke-miterlimit:10;}
	.st11{fill:#5E67AF;stroke:#5E67AF;stroke-width:4.0003;stroke-linecap:round;stroke-miterlimit:10.0006;}
	.st12{fill:#5E67AF;stroke:#5E67AF;stroke-width:4;stroke-linecap:round;stroke-miterlimit:9.9997;}
	.st13{fill:#ED265E;}
	.st14{fill:#DE2D66;}
	.st15{fill:#5E67AF;}
	.st16{fill:none;}
	.st17{fill:#EE2D79;}
	.st18{fill:#5E67AF;stroke:#5E67AF;stroke-width:4;stroke-miterlimit:10;}
	.st19{fill:#F2AE28;}
	.st20{fill:#B4B8D0;}
	.st21{fill:#525B9F;}
	.st22{fill:#5E67AF;stroke:#5E67AF;stroke-width:5;stroke-miterlimit:10;}
</style>
<g>
	<path class="st0" d="M1052.7,354.8l302.5-302.5c12.6-12.6,32.9-12.6,45.5,0l47.3,47.3c12.6,12.6,12.6,32.9,0,45.5l-302.5,302.5
		c-12.6,12.6-32.9,12.6-45.5,0l-47.3-47.3C1040.1,387.7,1040.1,367.3,1052.7,354.8"/>
	<polyline class="st1" points="1153.5,254 1254.4,153.1 1347.2,245.9 1246.3,346.8 1153.5,254 	"/>
	<path class="st2" d="M1149.3,254l105.1-105.1l97,97L1246.3,351L1149.3,254 M1254.4,157.3l-96.7,96.7l88.6,88.6l96.7-96.7
		L1254.4,157.3"/>
	<path class="st3" d="M1424.1,75.8c0.2,0.2,0.4,0.4,0.6,0.6l23.3,23.3c12.6,12.6,12.6,32.9,0,45.5l-98.7,98.7l0,0l98.7-98.7
		c12.6-12.6,12.6-32.9,0-45.5L1424.1,75.8"/>
	<path class="st3" d="M1424.7,76.3c12,12.6,11.8,32.6-0.6,44.9l-98.7,98.7l23.8,23.8l98.7-98.7c12.6-12.6,12.6-32.9,0-45.5
		L1424.7,76.3"/>
	<path class="st4" d="M1244.2,348.9l-98.7,98.7c-2.9,2.9-6.3,5.2-9.8,6.7c3.6-1.6,6.9-3.8,9.8-6.7L1244.2,348.9L1244.2,348.9"/>
	<path class="st3" d="M1220.4,325.1l-98.7,98.7c-6.3,6.3-14.5,9.4-22.8,9.4c-8.2,0-16.5-3.1-22.8-9.4l23.8,23.8
		c6.3,6.3,14.5,9.4,22.8,9.4c4.4,0,8.8-0.9,12.9-2.7c3.6-1.6,6.9-3.8,9.8-6.7l98.7-98.7L1220.4,325.1"/>
	<polyline class="st5" points="1321.3,224.2 1224.6,320.9 1246.3,342.6 1343,245.9 1321.3,224.2 	"/>
	<polyline class="st6" points="1325.5,220 1321.3,224.2 1343,245.9 1246.3,342.6 1224.6,320.9 1220.4,325.1 1244.2,348.9 
		1244.2,348.9 1349.3,243.8 1349.3,243.8 1325.5,220 	"/>
	<path class="st2" d="M1050.6,352.7l302.5-302.5c13.7-13.7,36-13.7,49.7,0l47.3,47.3c13.7,13.7,13.7,36,0,49.7l-302.5,302.5
		c-13.7,13.7-36,13.7-49.7,0l-47.3-47.3C1036.9,388.7,1036.9,366.4,1050.6,352.7z M1445.9,143c11.4-11.4,11.4-29.9,0-41.3
		l-47.3-47.3c-11.4-11.4-29.9-11.4-41.3,0l-302.5,302.5c-11.4,11.4-11.4,29.9,0,41.3l47.3,47.3c11.4,11.4,29.9,11.4,41.3,0
		L1445.9,143z"/>
	<path class="st7" d="M1413.5,118.3c1.2-1.2,3-1.2,4.2,0l11.9,11.9c1.2,1.2,1.2,3,0,4.2s-3,1.2-4.2,0l-11.9-11.9
		C1412.3,121.4,1412.3,119.5,1413.5,118.3z"/>
	<path class="st7" d="M1365.8,70.7c1.2-1.2,3-1.2,4.2,0l11.9,11.9c1.2,1.2,1.2,3,0,4.2s-3,1.2-4.2,0l-11.9-11.9
		C1364.7,73.7,1364.7,71.9,1365.8,70.7z"/>
	<path class="st7" d="M1389.6,94.5c1.2-1.2,3-1.2,4.2,0l11.9,11.9c1.2,1.2,1.2,3,0,4.2s-3,1.2-4.2,0l-11.9-11.9
		C1388.5,97.6,1388.5,95.7,1389.6,94.5z"/>
	<path class="st7" d="M1390.8,141c1.2-1.2,3-1.2,4.2,0l11.9,11.9c1.2,1.2,1.2,3,0,4.2s-3,1.2-4.2,0l-11.9-11.9
		C1389.7,144,1389.7,142.2,1390.8,141z"/>
	<path class="st7" d="M1343.2,93.4c1.2-1.2,3-1.2,4.2,0l11.9,11.9c1.2,1.2,1.2,3,0,4.2s-3,1.2-4.2,0l-11.9-11.9
		C1342,96.4,1342,94.5,1343.2,93.4z"/>
	<path class="st7" d="M1367,117.2c1.2-1.2,3-1.2,4.2,0l11.9,11.9c1.2,1.2,1.2,3,0,4.2s-3,1.2-4.2,0l-11.9-11.9
		C1365.8,120.2,1365.8,118.3,1367,117.2z"/>
	<path class="st7" d="M1368.2,163.6c1.2-1.2,3-1.2,4.2,0l11.9,11.9c1.2,1.2,1.2,3,0,4.2s-3,1.2-4.2,0l-11.9-11.9
		C1367,166.7,1367,164.8,1368.2,163.6z"/>
	<path class="st7" d="M1320.5,116c1.2-1.2,3-1.2,4.2,0l11.9,11.9c1.2,1.2,1.2,3,0,4.2c-1.2,1.2-3,1.2-4.2,0l-11.9-11.9
		C1319.4,119,1319.4,117.2,1320.5,116z"/>
	<path class="st7" d="M1344.3,139.8c1.2-1.2,3-1.2,4.2,0l11.9,11.9c1.2,1.2,1.2,3,0,4.2s-3,1.2-4.2,0l-11.9-11.9
		C1343.2,142.9,1343.2,141,1344.3,139.8z"/>
	<path class="st7" d="M1345.5,186.3c1.2-1.2,3-1.2,4.2,0l11.9,11.9c1.2,1.2,1.2,3,0,4.2s-3,1.2-4.2,0l-11.9-11.9
		C1344.4,189.3,1344.3,187.5,1345.5,186.3z"/>
	<path class="st7" d="M1297.9,138.7c1.2-1.2,3-1.2,4.2,0l11.9,11.9c1.2,1.2,1.2,3,0,4.2s-3,1.2-4.2,0l-11.9-11.9
		C1296.7,141.7,1296.7,139.8,1297.9,138.7z"/>
	<path class="st7" d="M1321.7,162.5c1.2-1.2,3-1.2,4.2,0l11.9,11.9c1.2,1.2,1.2,3,0,4.2s-3,1.2-4.2,0l-11.9-11.9
		C1320.5,165.5,1320.5,163.6,1321.7,162.5z"/>
	<path class="st7" d="M1190,341.8c1.2-1.2,3-1.2,4.2,0l11.9,11.9c1.2,1.2,1.2,3,0,4.2s-3,1.2-4.2,0L1190,346
		C1188.8,344.9,1188.8,343,1190,341.8z"/>
	<path class="st7" d="M1142.3,294.2c1.2-1.2,3-1.2,4.2,0l11.9,11.9c1.2,1.2,1.2,3,0,4.2s-3,1.2-4.2,0l-11.9-11.9
		C1141.2,297.2,1141.2,295.4,1142.3,294.2z"/>
	<path class="st7" d="M1166.2,318c1.2-1.2,3-1.2,4.2,0l11.9,11.9c1.2,1.2,1.2,3,0,4.2s-3,1.2-4.2,0l-11.9-11.9
		C1165,321.1,1165,319.2,1166.2,318z"/>
	<path class="st7" d="M1167.3,364.5c1.2-1.2,3-1.2,4.2,0l11.9,11.9c1.2,1.2,1.2,3,0,4.2s-3,1.2-4.2,0l-11.9-11.9
		C1166.2,367.5,1166.2,365.6,1167.3,364.5z"/>
	<path class="st7" d="M1119.7,316.8c1.2-1.2,3-1.2,4.2,0l11.9,11.9c1.2,1.2,1.2,3,0,4.2s-3,1.2-4.2,0l-11.9-11.9
		C1118.5,319.9,1118.5,318,1119.7,316.8z"/>
	<path class="st7" d="M1143.5,340.7c1.2-1.2,3-1.2,4.2,0l11.9,11.9c1.2,1.2,1.2,3,0,4.2s-3,1.2-4.2,0l-11.9-11.9
		C1142.3,343.7,1142.3,341.8,1143.5,340.7z"/>
	<path class="st7" d="M1144.7,387.1c1.2-1.2,3-1.2,4.2,0l11.9,11.9c1.2,1.2,1.2,3,0,4.2s-3,1.2-4.2,0l-11.9-11.9
		C1143.5,390.2,1143.5,388.3,1144.7,387.1z"/>
	<path class="st7" d="M1097,339.5c1.2-1.2,3-1.2,4.2,0l11.9,11.9c1.2,1.2,1.2,3,0,4.2s-3,1.2-4.2,0l-11.9-11.9
		C1095.9,342.5,1095.9,340.7,1097,339.5z"/>
	<path class="st7" d="M1120.9,363.3c1.2-1.2,3-1.2,4.2,0l11.9,11.9c1.2,1.2,1.2,3,0,4.2s-3,1.2-4.2,0l-11.9-11.9
		C1119.7,366.4,1119.7,364.5,1120.9,363.3z"/>
	<path class="st7" d="M1122,409.8c1.2-1.2,3-1.2,4.2,0l11.9,11.9c1.2,1.2,1.2,3,0,4.2s-3,1.2-4.2,0L1122,414
		C1120.9,412.8,1120.9,410.9,1122,409.8z"/>
	<path class="st7" d="M1074.4,362.1c1.2-1.2,3-1.2,4.2,0l11.9,11.9c1.2,1.2,1.2,3,0,4.2s-3,1.2-4.2,0l-11.9-11.9
		C1073.2,365.2,1073.2,363.3,1074.4,362.1z"/>
	<path class="st7" d="M1098.2,386c1.2-1.2,3-1.2,4.2,0l11.9,11.9c1.2,1.2,1.2,3,0,4.2s-3,1.2-4.2,0l-11.9-11.9
		C1097,389,1097,387.1,1098.2,386z"/>
</g>
<g>
	<path class="st0" d="M278.1,599.4l74.6,246.7c5.4,18-4.7,37-22.7,42.4l-46.2,14c-18,5.4-36.9-4.7-42.4-22.7L166.9,633L278.1,599.4"
		/>
	<path class="st3" d="M278.9,601.8l-16.9,5.1l73.9,244.3c5.4,18-4.7,37-22.7,42.4l16.9-5.1c14.7-4.4,24.1-17.9,24.2-32.5
		c0-3.3-0.5-6.6-1.5-9.9L278.9,601.8"/>
	<path class="st8" d="M330.8,890.2l-46.2,14c-19.3,5.8-39.7-5.1-45.5-24.4l-75.3-249.2l116.1-35.1l75.3,249.2
		C361,864,350.1,884.4,330.8,890.2z M170,634l73.9,244.3c5,16.6,22.6,26.1,39.2,21l46.2-14c16.6-5,26-22.6,21-39.3l-73.9-244.3
		L170,634z"/>
	<path class="st9" d="M282.8,598l-120.1,36.3c-6.4,1.9-13.2-1.7-15.2-8.1c-1.9-6.4,1.7-13.2,8.1-15.2l120.1-36.3
		c6.4-1.9,13.2,1.7,15.2,8.1C292.9,589.3,289.2,596,282.8,598"/>
	<path class="st8" d="M283.6,599.7L163.4,636c-7.7,2.3-16-2.1-18.3-9.8s2.1-16,9.8-18.3L275,571.6c7.7-2.3,16,2.1,18.3,9.8
		C295.7,589.1,291.3,597.3,283.6,599.7 M156.4,612.7c-5.1,1.5-8,6.9-6.4,12c1.5,5.1,6.9,8,12,6.4l120.1-36.3c5.1-1.5,8-6.9,6.4-12
		c-1.5-5.1-6.9-8-12-6.4L156.4,612.7"/>
	<polyline class="st0" points="257,580.4 174.4,605.4 157.9,550.8 240.5,525.9 257,580.4 	"/>
	<path class="st8" d="M257,580.4l-14,4.2l0,0L257,580.4 M256.3,578L256.3,578l0.7,2.4L256.3,578"/>
	<polyline class="st3" points="240.5,525.9 240.5,525.9 226.5,530.1 243,584.6 257,580.4 256.3,578 240.5,525.9 	"/>
	<path class="st8" d="M260.1,581.3l-87.4,26.4l-17.9-59.3l87.4-26.4L260.1,581.3z M176.1,601.5l77.7-23.5l-15-49.7l-77.7,23.5
		L176.1,601.5z"/>
	<path class="st0" d="M242.2,510.7l-94,28.4c-2.7,0.8-4.2,3.6-3.4,6.3l1.1,3.8c0.8,2.7,3.6,4.2,6.3,3.4l94-28.4
		c2.7-0.8,4.2-3.6,3.4-6.3l-1.1-3.8C247.7,511.4,244.8,509.9,242.2,510.7z"/>
	<path class="st8" d="M247,526.6L153,555c-4,1.2-8.2-1.1-9.4-5l-1.1-3.8c-1.2-4,1.1-8.2,5-9.4l94-28.4c4-1.2,8.2,1.1,9.4,5l1.1,3.8
		C253.2,521.1,251,525.3,247,526.6z M148.9,541.6c-1.3,0.4-2.1,1.8-1.7,3.1l1.1,3.8c0.4,1.3,1.8,2.1,3.1,1.7l94-28.4
		c1.3-0.4,2.1-1.8,1.7-3.1l-1.1-3.8c-0.4-1.3-1.8-2.1-3.1-1.7L148.9,541.6z"/>
	<path class="st0" d="M319.1,922.9l-7,2.1c-4.3,1.3-8.8-0.8-10.6-4.9l-8.7-20.3l28.4-8.6l4,21.7
		C325.9,917.3,323.3,921.6,319.1,922.9z"/>
	<path class="st8" d="M319.8,925.3l-7,2.1c-5.5,1.7-11.3-1.1-13.6-6.3l-9.8-22.9l33.8-10.2l4.5,24.5
		C328.7,918.1,325.3,923.6,319.8,925.3z M296.2,901.4l7.6,17.7c1.3,2.9,4.5,4.4,7.5,3.5l7-2.1c3-0.9,4.9-4,4.3-7.1l-3.5-18.9
		L296.2,901.4z"/>
	<polygon class="st10" points="318,923.2 334.9,988 313.2,924.7 	"/>
	
		<rect x="236.5" y="858.8" transform="matrix(0.9572 -0.2895 0.2895 0.9572 -238.7211 108.7212)" class="st11" width="23.3" height="5"/>
	
		<rect x="229.4" y="828.1" transform="matrix(0.9572 -0.2895 0.2895 0.9572 -229.9307 106.7409)" class="st11" width="32.9" height="5"/>
	
		<rect x="221.2" y="801.7" transform="matrix(0.9572 -0.2895 0.2895 0.9572 -222.8455 101.8465)" class="st11" width="23.3" height="5"/>
	
		<rect x="212.5" y="772.5" transform="matrix(0.9572 -0.2894 0.2894 0.9572 -214.4876 99.4205)" class="st12" width="32.9" height="5"/>
	
		<rect x="204.4" y="746.1" transform="matrix(0.9572 -0.2895 0.2895 0.9572 -207.468 94.6026)" class="st11" width="23.3" height="5"/>
	
		<rect x="195.8" y="717" transform="matrix(0.9572 -0.2895 0.2895 0.9572 -199.2069 92.2557)" class="st11" width="32.9" height="5"/>
	
		<rect x="187.6" y="690.6" transform="matrix(0.9572 -0.2895 0.2895 0.9572 -192.121 87.3617)" class="st11" width="23.3" height="5"/>
	<rect x="179" y="661.4" transform="matrix(0.9572 -0.2895 0.2895 0.9572 -183.83 85.0114)" class="st11" width="32.9" height="5"/>
</g>
<g>
	<path class="st0" d="M688.4,819.2c-53.5,0-96.9-43.4-96.9-96.9V591.1c0-24.1,19.5-43.6,43.6-43.6h106.7c24.1,0,43.6,19.5,43.6,43.6
		v131.2C785.3,775.8,741.9,819.2,688.4,819.2"/>
	<path class="st13" d="M785.3,644.9v77.3c0,53.5-43.4,96.9-96.9,96.9s-96.9-43.4-96.9-96.9v-72.6c36-7.7,58.1-1.7,72.2,6.8
		c11,6.6,21,17.1,35.8,15.5c18.9-2,24-21.3,40.4-29.6C749.7,637.5,763.9,636.3,785.3,644.9"/>
	<path class="st3" d="M741.7,547.5H709c0.3,0,0.6,0,1,0H741.7c24.1,0,43.6,19.5,43.6,43.6v53.8l0,0v77.3l0,0V591.1
		C785.3,567,765.8,547.5,741.7,547.5"/>
	<path class="st3" d="M688.3,819.2L688.3,819.2C688.4,819.2,688.3,819.2,688.3,819.2 M688.1,819.2
		C688.2,819.2,688.2,819.2,688.1,819.2C688.2,819.2,688.2,819.2,688.1,819.2 M688,819.2L688,819.2L688,819.2 M687.8,819.2
		C687.9,819.2,687.9,819.2,687.8,819.2C687.9,819.2,687.9,819.2,687.8,819.2 M687.7,819.2C687.7,819.2,687.8,819.2,687.7,819.2
		C687.8,819.2,687.7,819.2,687.7,819.2 M672.1,817.8L672.1,817.8c0.4,0.1,0.8,0.1,1.3,0.2C672.9,817.9,672.5,817.9,672.1,817.8
		 M741.7,547.5H710c23.6,0.5,42.6,19.8,42.6,43.6v47.7c1.5-0.2,3-0.2,4.6-0.2c7.6,0,16.8,1.8,28,6.3v-53.8
		C785.3,567,765.8,547.5,741.7,547.5"/>
	<path class="st14" d="M757.3,638.6c-1.6,0-3.2,0.1-4.6,0.2v83.4c0,48-34.8,87.8-80.6,95.5c0.4,0.1,0.9,0.1,1.3,0.2
		c4.7,0.7,9.5,1.1,14.4,1.2l0,0h0.1c0,0,0,0,0.1,0c0,0,0,0,0.1,0h0.1c0,0,0,0,0.1,0h0.1l0,0h0.1l0,0c53.5,0,96.9-43.4,96.9-96.9
		v-77.3l0,0C774.1,640.4,764.9,638.6,757.3,638.6"/>
	<path class="st6" d="M688.4,823.6c-55.9,0-101.4-45.5-101.4-101.4V591.1c0-26.5,21.6-48,48-48h106.7c26.5,0,48,21.6,48,48v131.2
		C789.8,778.2,744.3,823.6,688.4,823.6z M635.1,552c-21.6,0-39.1,17.5-39.1,39.1v131.2c0,51,41.5,92.4,92.4,92.4
		c51,0,92.4-41.5,92.4-92.4V591.1c0-21.6-17.5-39.1-39.1-39.1H635.1z"/>
	<path class="st0" d="M693.6,870.7h-10.4c-8.3,0-15-6.7-15-15v-36.6h40.3v36.6C708.6,864,701.9,870.7,693.6,870.7z"/>
	<path class="st7" d="M663.8,875.2v-60.5H713v60.5 M672.7,866.3h31.4v-42.6h-31.4V866.3z"/>
	<path class="st6" d="M916.5,953.7c-1.5,0-3-0.6-3.7-2c-8.5-15.9-18.5-45.8-52.5-45.9H860c-30.5,0-51.8,16.2-74.1,31.2
		c-17.4,11.7-33.9,22.8-52.6,25.4c-13.7,1.9-24.5-0.4-32.2-7c-14.5-12.4-14.9-36.5-15.3-57.8c-0.2-9.3-0.3-18.1-1.7-24.5
		c-0.5-2.4,1-4.8,3.4-5.3s4.8,1,5.3,3.4c1.5,7.3,1.7,16.5,1.9,26.2c0.3,19.4,0.7,41.4,12.1,51.1c5.7,4.9,13.9,6.5,25.1,4.9
		c16.7-2.3,32.3-12.9,48.9-24c22.4-15,45.8-32.7,79.1-32.7h0.4c37.3,0.1,55,31.7,60,50c0.7,2.4,0.8,4.8-1.3,6.2
		C918.2,953.5,917.4,953.7,916.5,953.7z"/>
	<path class="st0" d="M666.1,689.6c0,3.4-2.8,6.2-6.2,6.2s-6.2-2.8-6.2-6.2s2.8-6.2,6.2-6.2C663.3,683.4,666.1,686.1,666.1,689.6z"
		/>
	<path class="st0" d="M703.2,730.2c0,3.4-2.8,6.2-6.2,6.2s-6.2-2.8-6.2-6.2s2.8-6.2,6.2-6.2S703.2,726.8,703.2,730.2z"/>
	<path class="st0" d="M734.9,702c0,3.4-2.8,6.2-6.2,6.2s-6.2-2.8-6.2-6.2s2.8-6.2,6.2-6.2C732.1,695.8,734.9,698.5,734.9,702z"/>
	<path class="st0" d="M657.1,758.9c0,1.7-1.4,3.1-3.1,3.1c-1.7,0-3.1-1.4-3.1-3.1c0-1.7,1.4-3.1,3.1-3.1
		C655.7,755.9,657.1,757.2,657.1,758.9z"/>
	<path class="st0" d="M684.5,709.1c0,1.7-1.4,3.1-3.1,3.1s-3.1-1.4-3.1-3.1c0-1.7,1.4-3.1,3.1-3.1S684.5,707.3,684.5,709.1z"/>
	<path class="st0" d="M731.8,758.9c0,1.7-1.4,3.1-3.1,3.1c-1.7,0-3.1-1.4-3.1-3.1c0-1.7,1.4-3.1,3.1-3.1
		C730.4,755.9,731.8,757.2,731.8,758.9z"/>
</g>
<g>
	<path class="st0" d="M1390,710.2c0,22.7-8.7,45.3-26,62.7l-120,120c-11.9,11.9-31.3,11.9-43.2,0L1097,789.1l-16.3-16.3
		c-34.6-34.6-34.6-90.7,0-125.4c17.3-17.3,40-26,62.7-26s45.4,8.7,62.7,26l16.3,16.3l16.3-16.3c34.6-34.6,90.7-34.6,125.4,0
		C1381.3,664.8,1390,687.5,1390,710.2"/>
	<path class="st0" d="M1201.5,643.3c-1.5,1.3-3.1,2.7-4.5,4.2l-16.3,16.3l-16.3-16.3c-12-11.9-26.5-19.8-41.8-23.5
		c6.8-1.7,13.8-2.5,20.8-2.5C1164.1,621.5,1184.9,628.8,1201.5,643.3z"/>
	<path class="st3" d="M1201.5,893.6L1201.5,893.6c5.3,5,12,7.7,18.7,8.1C1213.5,901.3,1206.9,898.6,1201.5,893.6 M1324,812.9l-80,80
		c-4,4-8.8,6.7-13.9,8c5.1-1.3,9.9-4,13.9-8L1324,812.9 M1379.8,668.7c6.8,12.9,10.3,27.2,10.3,41.4c0,13.7-3.2,27.4-9.5,39.8
		c6.3-12.5,9.5-26.2,9.5-39.8C1390,695.9,1386.6,681.7,1379.8,668.7 M1340.4,630.5L1340.4,630.5L1340.4,630.5 M1318.3,623.1
		c7.6,1.5,15,3.9,22.1,7.4C1333.3,627.1,1325.9,624.6,1318.3,623.1 M1318.2,623.1L1318.2,623.1L1318.2,623.1"/>
	<path class="st3" d="M1301.4,621.5c-7,0-14,0.8-20.8,2.5c15.3,3.7,29.9,11.5,41.8,23.5c17.3,17.3,25.9,40,25.9,62.7
		s-8.7,45.3-25.9,62.6l-120.1,120.1c-0.3,0.3-0.5,0.5-0.8,0.7c5.3,5,12,7.7,18.7,8.1c0.7,0,1.4,0.1,2.1,0.1c2.6,0,5.2-0.3,7.7-1
		c5.1-1.3,9.9-4,13.9-8l80-80l40-40c6.9-6.9,12.4-14.6,16.5-22.8c6.3-12.5,9.5-26.2,9.5-39.8c0-14.3-3.4-28.5-10.3-41.4
		c-4-7.7-9.3-14.8-15.7-21.3c-7.1-7.1-15.1-12.7-23.6-16.9l0,0l0,0c-7.1-3.5-14.5-5.9-22.1-7.4c0,0,0,0-0.1,0c0,0,0,0-0.1,0
		C1312.6,622,1307,621.5,1301.4,621.5"/>
	<path class="st15" d="M1120.3,657.2c7.2-3.1,15-4.8,23-4.8c2.1,0,3.8-1.7,3.8-3.8s-1.7-3.8-3.8-3.8c-9.1,0-17.9,1.9-26.1,5.4
		c-1.9,0.8-2.8,3.1-2,5C1116.2,657.2,1118.4,658.1,1120.3,657.2L1120.3,657.2z"/>
	<path class="st15" d="M1102.6,750.9c-10.9-10.9-16.9-25.3-16.9-40.8c0-15.4,6-29.9,16.9-40.8c1.2-1.2,2.5-2.4,3.8-3.5
		c1.6-1.3,1.8-3.7,0.5-5.3s-3.7-1.8-5.3-0.5c-1.5,1.3-2.9,2.6-4.3,4c-12.3,12.3-19.1,28.8-19.1,46.2s6.8,33.8,19.1,46.1
		c1.5,1.5,3.9,1.5,5.4,0C1104.1,754.8,1104.1,752.4,1102.6,750.9L1102.6,750.9z"/>
	<path class="st15" d="M1222.4,906.6c-9.4,0-18.3-3.7-25-10.4l-120.1-120.1c-17.7-17.6-27.4-41.1-27.4-66.1s9.7-48.4,27.4-66.1
		c17.6-17.6,41.1-27.4,66.1-27.4c24.9,0,48.4,9.7,66.1,27.4l12.9,12.9l12.9-12.9c36.4-36.4,95.7-36.4,132.2,0
		c17.7,17.7,27.4,41.2,27.4,66.1c0,24.9-9.7,48.4-27.4,66l-120.1,120.1C1240.7,903,1231.8,906.6,1222.4,906.6z M1143.4,626.3
		c-22.4,0-43.4,8.7-59.3,24.6c-15.9,15.9-24.6,36.9-24.6,59.3c0,22.4,8.7,43.5,24.6,59.3l120.1,120.1c4.9,4.9,11.3,7.5,18.2,7.5
		c6.9,0,13.3-2.7,18.2-7.5l120.1-120.1c15.8-15.9,24.6-36.9,24.6-59.3c0-22.4-8.7-43.4-24.6-59.3c-32.7-32.7-85.9-32.7-118.6,0
		l-19.7,19.7l-19.7-19.7C1186.8,635,1165.8,626.3,1143.4,626.3z"/>
	<path class="st15" d="M1465.4,745.6h28.8c2.1,0,3.8-1.7,3.8-3.8s-1.7-3.8-3.8-3.8h-28.8c-2.1,0-3.8,1.7-3.8,3.8
		C1461.6,743.9,1463.3,745.6,1465.4,745.6"/>
	<path class="st15" d="M1031.8,786.2h160.4l14.3-33.8l27.8,79.5l40.8-127.6l5.9,41.4h151.5c2.1,0,3.8-1.7,3.8-3.8s-1.7-3.8-3.8-3.8
		h-144.9l-9.6-67.6l-44,137.4l-26.8-76.6l-20,47.3h-155.4c-2.1,0-3.8,1.7-3.8,3.8C1028,784.5,1029.7,786.2,1031.8,786.2
		L1031.8,786.2z"/>
</g>
<g>
	<path class="st0" d="M1898,394h-296.5c-26.7,0-48.4-21.7-48.4-48.4V206.1c0-26.7,21.7-48.4,48.4-48.4h296.6
		c26.7,0,48.4,21.7,48.4,48.4v139.4C1946.5,372.3,1924.8,394,1898,394"/>
	<path class="st7" d="M1575.2,235.3v-29.1c0-1.8-1.5-3.3-3.3-3.3c-1.8,0-3.3,1.5-3.3,3.3v29.1c0,1.8,1.5,3.3,3.3,3.3
		C1573.7,238.6,1575.2,237.1,1575.2,235.3"/>
	<path class="st7" d="M1601.6,372c-7.3,0-13.9-2.9-18.7-7.7c-4.8-4.8-7.7-11.4-7.7-18.7v-82.8c0-1.8-1.5-3.3-3.3-3.3
		c-1.8,0-3.3,1.5-3.3,3.3v82.8c0,18.2,14.8,33,33,33c1.8,0,3.3-1.5,3.3-3.3C1604.9,373.5,1603.3,372,1601.6,372L1601.6,372z"/>
	<path class="st3" d="M1898.1,157.7h-29.9c0.3,0,0.6,0,0.9,0H1898.1c26.7,0,48.3,21.7,48.3,48.4v139.4c0,26.7-21.7,48.4-48.4,48.4
		h-29.2c-0.3,0-0.4,0-0.7,0h29.9c26.7,0,48.4-21.7,48.4-48.4V206C1946.5,179.4,1924.8,157.7,1898.1,157.7"/>
	<path class="st3" d="M1898,157.7h-29c26.3,0.5,47.5,22,47.5,48.3v139.5c0,26.5-21.2,48-47.6,48.4h29.2c26.7,0,48.4-21.7,48.4-48.4
		V206.1C1946.5,179.4,1924.8,157.7,1898,157.7"/>
	<path class="st6" d="M1898,397.3h-296.5c-28.5,0-51.7-23.2-51.7-51.7V206.1c0-28.5,23.2-51.7,51.7-51.7h296.6
		c28.5,0,51.7,23.2,51.7,51.7v139.4C1949.8,374.1,1926.6,397.3,1898,397.3z M1601.6,161.1c-24.9,0-45.1,20.3-45.1,45.1v139.4
		c0,24.9,20.3,45.1,45.1,45.1h296.6c24.9,0,45.1-20.3,45.1-45.1V206.1c0-24.9-20.3-45.1-45.1-45.1L1601.6,161.1L1601.6,161.1z"/>
	<line class="st16" x1="1749.8" y1="246" x2="1749.8" y2="305.8"/>
	<path class="st17" d="M1749.8,313.5c-4.3,0-7.7-3.5-7.7-7.7v-59.9c0-4.3,3.5-7.7,7.7-7.7s7.7,3.5,7.7,7.7v59.9
		C1757.5,310.1,1754.1,313.5,1749.8,313.5z"/>
	<line class="st16" x1="1719.9" y1="275.9" x2="1779.8" y2="275.9"/>
	<path class="st17" d="M1779.8,283.5h-59.9c-4.3,0-7.7-3.5-7.7-7.7c0-4.3,3.5-7.7,7.7-7.7h59.9c4.3,0,7.7,3.5,7.7,7.7
		C1787.5,280.2,1784,283.5,1779.8,283.5z"/>
	<path class="st7" d="M1834.7,161.1H1665V127c0-13,10.6-23.6,23.6-23.6h122.6c13,0,23.6,10.6,23.6,23.6V161.1z M1671.6,154.4H1828
		v-27.5c0-9.3-7.6-17-17-17h-122.6c-9.3,0-17,7.6-17,17L1671.6,154.4L1671.6,154.4z"/>
</g>
<g>
	
		<ellipse transform="matrix(0.1191 -0.9929 0.9929 0.1191 -844.8854 1199.609)" class="st0" cx="253.6" cy="1075.9" rx="23.6" ry="23.6"/>
	<g>
		<path class="st15" d="M253.6,1103.3c-15.1,0-27.3-12.2-27.3-27.3c0-15.1,12.2-27.3,27.3-27.3c15.1,0,27.3,12.2,27.3,27.3
			C280.9,1091.1,268.7,1103.3,253.6,1103.3z M253.6,1056.1c-10.9,0-19.9,8.9-19.9,19.9c0,11,8.9,19.9,19.9,19.9
			c10.9,0,19.9-8.9,19.9-19.9C273.5,1065,264.5,1056.1,253.6,1056.1z"/>
		<path class="st15" d="M253.6,1049.6c14.5,0,26.4,11.9,26.4,26.4c0,14.5-11.9,26.4-26.4,26.4s-26.4-11.9-26.4-26.4
			C227.2,1061.5,239.1,1049.6,253.6,1049.6 M253.6,1096.8c11.5,0,20.8-9.3,20.8-20.8s-9.3-20.8-20.8-20.8
			c-11.5,0-20.8,9.3-20.8,20.8S242.1,1096.8,253.6,1096.8 M253.6,1047.8c-15.5,0-28.2,12.7-28.2,28.2c0,15.5,12.7,28.2,28.2,28.2
			s28.2-12.7,28.2-28.2S269.1,1047.8,253.6,1047.8L253.6,1047.8z M253.6,1095c-10.5,0-19-8.5-19-19c0-10.5,8.5-19,19-19
			s19,8.5,19,19C272.6,1086.5,264.1,1095,253.6,1095L253.6,1095z"/>
	</g>
	<rect x="208.6" y="1075.3" class="st0" width="90" height="33.2"/>
	<path class="st0" d="M371,1443.2H136.2c-9.7,0-17.5-7.8-17.5-17.5v-315c0-9.7,7.8-17.5,17.5-17.5H371c9.7,0,17.5,7.8,17.5,17.5v315
		C388.5,1435.4,380.6,1443.2,371,1443.2"/>
	<path class="st3" d="M371,1093.3h-3.3v312.1c0,9.7-7.8,17.5-17.5,17.5H118.7v2.9c0,9.7,7.8,17.5,17.4,17.5H371
		c9.7,0,17.4-7.8,17.4-17.5v-315C388.5,1101.1,380.6,1093.3,371,1093.3"/>
	<g>
		<path class="st15" d="M136.2,1446.9c-11.7,0-21.2-9.5-21.2-21.2v-315c0-11.7,9.5-21.2,21.2-21.2H371c11.7,0,21.2,9.5,21.2,21.2
			v315c0,11.7-9.5,21.2-21.2,21.2H136.2z M136.2,1097c-7.6,0-13.8,6.2-13.8,13.8v315c0,7.6,6.2,13.8,13.8,13.8H371
			c7.6,0,13.8-6.2,13.8-13.8v-315c0-7.6-6.2-13.8-13.8-13.8H136.2z"/>
		<path class="st15" d="M371,1090.4c11.2,0,20.4,9.2,20.4,20.4v315c0,11.2-9.2,20.4-20.4,20.4H136.2c-11.2,0-20.4-9.2-20.4-20.4
			v-315c0-11.2,9.2-20.4,20.4-20.4H371 M136.2,1440.4H371c8.1,0,14.7-6.6,14.7-14.7v-315c0-8.1-6.6-14.7-14.7-14.7H136.2
			c-8.1,0-14.7,6.6-14.7,14.7v315C121.5,1433.8,128,1440.4,136.2,1440.4 M371,1088.6H136.2c-12.2,0-22.1,9.9-22.1,22.1v315
			c0,12.2,9.9,22.1,22.1,22.1H371c12.2,0,22.1-9.9,22.1-22.1v-315C393.1,1098.5,383.2,1088.6,371,1088.6L371,1088.6z M136.2,1438.6
			c-7.1,0-13-5.8-13-13v-315c0-7.1,5.8-13,13-13H371c7.1,0,13,5.8,13,13v315c0,7.1-5.8,13-13,13H136.2L136.2,1438.6z"/>
	</g>
	<g>
		<path class="st15" d="M149.5,1272.5c-1.8,0-3.3-1.5-3.3-3.3c0-1.8,1.5-3.3,3.3-3.3h191.4c1.8,0,3.3,1.5,3.3,3.3
			c0,1.8-1.5,3.3-3.3,3.3H149.5z"/>
		<path class="st15" d="M340.9,1266.4c1.6,0,2.8,1.2,2.8,2.8s-1.2,2.8-2.8,2.8H149.5c-1.6,0-2.8-1.2-2.8-2.8c0-1.6,1.2-2.8,2.8-2.8
			H340.9 M340.9,1265.5H149.5c-2,0-3.7,1.7-3.7,3.7s1.7,3.7,3.7,3.7h191.4c2,0,3.7-1.7,3.7-3.7
			C344.6,1267.2,342.9,1265.5,340.9,1265.5L340.9,1265.5z"/>
	</g>
	<g>
		<path class="st15" d="M149.5,1293c-1.8,0-3.3-1.5-3.3-3.3c0-1.8,1.5-3.3,3.3-3.3h97.1c1.8,0,3.3,1.5,3.3,3.3
			c0,1.8-1.5,3.3-3.3,3.3H149.5z"/>
		<path class="st15" d="M246.6,1286.8c1.6,0,2.8,1.2,2.8,2.8c0,1.6-1.2,2.8-2.8,2.8h-97.1c-1.6,0-2.8-1.2-2.8-2.8
			c0-1.6,1.2-2.8,2.8-2.8H246.6 M246.6,1285.9h-97.1c-2,0-3.7,1.7-3.7,3.7c0,2,1.7,3.7,3.7,3.7h97.1c2,0,3.7-1.7,3.7-3.7
			S248.7,1285.9,246.6,1285.9L246.6,1285.9z"/>
	</g>
	<g>
		<path class="st15" d="M149.5,1317c-1.8,0-3.3-1.5-3.3-3.3c0-1.8,1.5-3.3,3.3-3.3h134.8c1.8,0,3.3,1.5,3.3,3.3
			c0,1.8-1.5,3.3-3.3,3.3H149.5z"/>
		<path class="st15" d="M284.3,1310.9c1.6,0,2.8,1.2,2.8,2.8s-1.2,2.8-2.8,2.8H149.5c-1.6,0-2.8-1.2-2.8-2.8c0-1.6,1.2-2.8,2.8-2.8
			H284.3 M284.3,1310H149.5c-2,0-3.7,1.7-3.7,3.7s1.7,3.7,3.7,3.7h134.8c2,0,3.7-1.7,3.7-3.7S286.4,1310,284.3,1310L284.3,1310z"/>
	</g>
	<g>
		<path class="st15" d="M149.5,1333.7c-1.8,0-3.3-1.5-3.3-3.3s1.5-3.3,3.3-3.3h191.4c1.8,0,3.3,1.5,3.3,3.3s-1.5,3.3-3.3,3.3H149.5z
			"/>
		<path class="st15" d="M340.9,1327.6c1.6,0,2.8,1.2,2.8,2.8c0,1.6-1.2,2.8-2.8,2.8H149.5c-1.6,0-2.8-1.2-2.8-2.8
			c0-1.6,1.2-2.8,2.8-2.8H340.9 M340.9,1326.7H149.5c-2,0-3.7,1.7-3.7,3.7s1.7,3.7,3.7,3.7h191.4c2,0,3.7-1.7,3.7-3.7
			S342.9,1326.7,340.9,1326.7L340.9,1326.7z"/>
	</g>
	<g>
		<path class="st15" d="M149.5,1360.8c-1.8,0-3.3-1.5-3.3-3.3s1.5-3.3,3.3-3.3H209c1.8,0,3.3,1.5,3.3,3.3s-1.5,3.3-3.3,3.3H149.5z"
			/>
		<path class="st15" d="M209,1354.6c1.6,0,2.8,1.2,2.8,2.8c0,1.6-1.2,2.8-2.8,2.8h-59.5c-1.6,0-2.8-1.2-2.8-2.8s1.2-2.8,2.8-2.8H209
			 M209,1353.7h-59.5c-2,0-3.7,1.7-3.7,3.7c0,2,1.7,3.7,3.7,3.7H209c2,0,3.7-1.7,3.7-3.7S211,1353.7,209,1353.7L209,1353.7z"/>
	</g>
	<g>
		<path class="st15" d="M319.2,1387.7c-1.8,0-3.3-1.5-3.3-3.3s1.5-3.3,3.3-3.3h21.8c1.8,0,3.3,1.5,3.3,3.3s-1.5,3.3-3.3,3.3H319.2z"
			/>
		<path class="st15" d="M340.9,1381.6c1.6,0,2.8,1.2,2.8,2.8c0,1.6-1.2,2.8-2.8,2.8h-21.8c-1.6,0-2.8-1.2-2.8-2.8
			c0-1.6,1.2-2.8,2.8-2.8H340.9 M340.9,1380.8h-21.8c-2,0-3.7,1.7-3.7,3.7s1.7,3.7,3.7,3.7h21.8c2,0,3.7-1.7,3.7-3.7
			S342.9,1380.8,340.9,1380.8L340.9,1380.8z"/>
	</g>
	<path class="st17" d="M159.5,1167.3c-2.3,0-4.1-1.9-4.1-4.1v-32c0-2.3,1.9-4.1,4.1-4.1s4.1,1.9,4.1,4.1v32
		C163.6,1165.4,161.8,1167.3,159.5,1167.3z"/>
	<path class="st17" d="M175.5,1151.2h-32c-2.3,0-4.1-1.9-4.1-4.1c0-2.3,1.9-4.1,4.1-4.1h32c2.3,0,4.1,1.9,4.1,4.1
		C179.6,1149.4,177.7,1151.2,175.5,1151.2z"/>
	<g>
		<path class="st15" d="M204.9,1112.1v-40.6h97.4v40.6H204.9z M294.8,1104.7V1079h-82.6v25.7H294.8z"/>
		<path class="st15" d="M301.4,1072.5v38.9h-95.7v-38.9H301.4 M211.4,1105.6h84.3v-27.5h-84.3V1105.6 M303.2,1070.7h-1.8h-95.7H204
			v1.8v38.9v1.8h1.8h95.6h1.8v-1.8v-38.9L303.2,1070.7L303.2,1070.7z M213.2,1079.9H294v24h-80.8V1079.9L213.2,1079.9z"/>
	</g>
	<g>
		<path class="st15" d="M149.5,1194.3c-1.8,0-3.3-1.5-3.3-3.3s1.5-3.3,3.3-3.3h191.4c1.8,0,3.3,1.5,3.3,3.3s-1.5,3.3-3.3,3.3H149.5z
			"/>
		<path class="st15" d="M340.9,1188.2c1.6,0,2.8,1.2,2.8,2.8s-1.2,2.8-2.8,2.8H149.5c-1.6,0-2.8-1.2-2.8-2.8s1.2-2.8,2.8-2.8H340.9
			 M340.9,1187.4H149.5c-2,0-3.7,1.7-3.7,3.7c0,2,1.7,3.7,3.7,3.7h191.4c2,0,3.7-1.7,3.7-3.7C344.6,1189,342.9,1187.4,340.9,1187.4
			L340.9,1187.4z"/>
	</g>
	<g>
		<path class="st15" d="M149.5,1214.8c-1.8,0-3.3-1.5-3.3-3.3s1.5-3.3,3.3-3.3h191.4c1.8,0,3.3,1.5,3.3,3.3s-1.5,3.3-3.3,3.3H149.5z
			"/>
		<path class="st15" d="M340.9,1208.7c1.6,0,2.8,1.2,2.8,2.8c0,1.6-1.2,2.8-2.8,2.8H149.5c-1.6,0-2.8-1.2-2.8-2.8s1.2-2.8,2.8-2.8
			H340.9 M340.9,1207.8H149.5c-2,0-3.7,1.7-3.7,3.7s1.7,3.7,3.7,3.7h191.4c2,0,3.7-1.7,3.7-3.7S342.9,1207.8,340.9,1207.8
			L340.9,1207.8z"/>
	</g>
	<g>
		<path class="st15" d="M149.5,1235.3c-1.8,0-3.3-1.5-3.3-3.3c0-1.8,1.5-3.3,3.3-3.3H209c1.8,0,3.3,1.5,3.3,3.3
			c0,1.8-1.5,3.3-3.3,3.3H149.5z"/>
		<path class="st15" d="M209,1229.2c1.6,0,2.8,1.2,2.8,2.8c0,1.6-1.2,2.8-2.8,2.8h-59.5c-1.6,0-2.8-1.2-2.8-2.8
			c0-1.6,1.2-2.8,2.8-2.8H209 M209,1228.3h-59.5c-2,0-3.7,1.7-3.7,3.7s1.7,3.7,3.7,3.7H209c2,0,3.7-1.7,3.7-3.7
			S211,1228.3,209,1228.3L209,1228.3z"/>
	</g>
	<g>
		<path class="st15" d="M149.5,1253.9c-1.8,0-3.3-1.5-3.3-3.3s1.5-3.3,3.3-3.3h134.8c1.8,0,3.3,1.5,3.3,3.3s-1.5,3.3-3.3,3.3H149.5z
			"/>
		<path class="st15" d="M284.3,1247.8c1.6,0,2.8,1.2,2.8,2.8c0,1.6-1.2,2.8-2.8,2.8H149.5c-1.6,0-2.8-1.2-2.8-2.8
			c0-1.6,1.2-2.8,2.8-2.8H284.3 M284.3,1246.9H149.5c-2,0-3.7,1.7-3.7,3.7s1.7,3.7,3.7,3.7h134.8c2,0,3.7-1.7,3.7-3.7
			S286.4,1246.9,284.3,1246.9L284.3,1246.9z"/>
	</g>
</g>
<g>
	<path class="st18" d="M750.2,1064.8c5.7,0,10.6,2.3,14.1,5.9c3.6,3.6,5.7,8.6,5.7,13.8c0,1.9-0.3,3.8-0.8,5.7l-48.9,164.2
		c-7.8,26.2-31.9,44.2-59.3,44.2c-27.4,0-51.5-18-59.3-44.2l-50-168c-0.5-1.6-0.7-3.3-0.7-4.8c0-4.5,1.8-8.7,4.8-11.8
		c3-3.1,7.2-5,12-5v-7.2c-6.8,0-12.9,2.8-17.1,7.2c-4.3,4.4-6.9,10.4-6.9,16.8c0,2.3,0.3,4.6,1,6.9l50,168
		c8.7,29.3,35.6,49.3,66.2,49.3c30.5,0,57.4-20.1,66.2-49.3l48.9-164.2c0.8-2.6,1.1-5.2,1.1-7.7c0-7.2-2.9-13.9-7.7-18.9
		c-4.8-4.9-11.6-8.1-19.2-8.1L750.2,1064.8L750.2,1064.8z"/>
	<path class="st17" d="M660.5,1324.1c-5.1,0-9.2-4.1-9.2-9.2v-9.2h18.4v9.2C669.7,1320,665.6,1324.1,660.5,1324.1z"/>
	<g>
		<path class="st15" d="M661.5,1323.5c4.3-0.5,7.7-4.2,7.7-8.6v-8.7h-17.4v8.7c0,4.4,3.4,8.1,7.7,8.6v7.8
			c-8.6-0.5-15.5-7.7-15.5-16.5v-16.5h33v16.5c0,8.8-6.9,15.9-15.5,16.5V1323.5z"/>
		<path class="st15" d="M676,1299.4v15.5c0,7.9-5.9,14.4-13.5,15.4v-2.8v-3.1c4.4-0.9,7.7-4.8,7.7-9.5v-7.7v-2h-2h-15.4h-2v2v7.7
			c0,4.6,3.3,8.5,7.7,9.5v3.1v2.8c-7.6-1-13.5-7.5-13.5-15.4v-15.5H676 M678,1297.4h-35v17.5c0,9.7,7.8,17.5,17.5,17.5v-4.9v-4.9
			c-4.2,0-7.7-3.4-7.7-7.7v-7.7h15.4v7.7c0,4.2-3.4,7.7-7.7,7.7v4.9v4.9c9.7,0,17.5-7.8,17.5-17.5V1297.4L678,1297.4z"/>
	</g>
	<path class="st18" d="M657,1323.5c-0.2,1.4-1.1,6.9-1.1,14.7c0,7.9,0.9,18.2,4.3,28.8c3.4,10.5,9.4,21.4,19.6,30.2
		c2,1.7,6.5,5.6,12.7,9.1c6.1,3.4,14,6.5,23,6.5c0.9,0,1.8,0,2.7-0.1c5.6-0.4,10.5-2,14.9-4.5c7.7-4.5,13.4-11.6,18.7-20
		c7.8-12.6,14.6-28.2,23.7-43.1c9.1-15,21.3-28.2,37.6-39.6c6.5-4.6,13.7-8.3,21.2-10c11.4-2.5,19.4-0.9,30.2,2.9
		c10.7,3.8,20.5,10.6,28.8,19c16,16,24.4,39.1,24.4,64.5c0,15.3-3,31.3-9.3,47l6.7,2.6c6.5-16.5,9.8-33.4,9.8-49.6
		c0-26.9-8.9-52-26.5-69.6c-9.2-9.2-19.9-16.5-31.5-20.7c-11.6-4.1-22.4-6.1-34.5-2.6c-7.5,2.2-15.3,4.3-23,10.3
		c-12.9,10.1-24.4,19.4-32.8,31c-12.5,17.4-20.4,36.2-28.8,50.6c-4.2,7.2-8.5,13.2-13.3,17.4c-4.8,4.2-10.1,6.7-16.8,7.2
		c-0.7,0.1-1.5,0.1-2.2,0.1c-7.3,0-14-2.6-19.5-5.6c-5.5-3.1-9.5-6.5-11.5-8.2c-9-7.8-14.3-17.3-17.4-26.9
		c-3.1-9.6-3.9-19.2-3.9-26.6c0-7.2,0.8-12.4,1-13.5L657,1323.5L657,1323.5z"/>
	<path class="st0" d="M940.3,1427.3c0,15.8-12.8,28.6-28.6,28.6s-28.6-12.8-28.6-28.6c0-15.8,12.8-28.6,28.6-28.6
		C927.5,1398.6,940.3,1411.5,940.3,1427.3z"/>
	<path class="st6" d="M941.9,1427.3h-3.8c0,7.3-3,13.9-7.7,18.7c-4.8,4.8-11.4,7.7-18.7,7.7s-13.9-3-18.7-7.7
		c-4.8-4.8-7.7-11.4-7.7-18.7c0-7.3,3-13.9,7.7-18.7c4.8-4.8,11.4-7.7,18.7-7.7s13.9,3,18.7,7.7c4.8,4.8,7.7,11.4,7.7,18.7H941.9
		h3.8c0-18.8-15.2-34-34-34s-34,15.2-34,34s15.2,34,34,34s34-15.2,34-34H941.9z"/>
	<path class="st0" d="M926.8,1427.3c0,8.3-6.8,15.1-15.1,15.1s-15.1-6.8-15.1-15.1c0-8.3,6.8-15.1,15.1-15.1
		C920,1412.2,926.8,1418.9,926.8,1427.3z"/>
	<path class="st6" d="M925.8,1427.3h-3.4c0,3-1.2,5.7-3.2,7.6c-2,2-4.6,3.2-7.6,3.2s-5.7-1.2-7.6-3.2c-2-2-3.2-4.6-3.2-7.6
		s1.2-5.7,3.2-7.6c2-2,4.6-3.2,7.6-3.2s5.7,1.2,7.6,3.2c2,2,3.2,4.6,3.2,7.6H925.8h3.4c0-9.7-7.8-17.5-17.5-17.5
		s-17.5,7.8-17.5,17.5s7.8,17.5,17.5,17.5s17.5-7.8,17.5-17.5H925.8z"/>
	<path class="st19" d="M583.6,1072.4c-0.5,0-1,0-1.5-0.2l-7.7-1.6c-3.4-0.7-6-3.8-6-7.3v-4.5c0-3.5,2.5-6.6,6-7.3l7.7-1.6
		c0.5-0.1,1-0.2,1.5-0.2c4.1,0,7.4,3.3,7.4,7.4v7.7C591,1069.1,587.7,1072.4,583.6,1072.4z"/>
	<path class="st6" d="M584.3,1052.1c2.4,0,4.5,2,4.5,4.5v9c0,2.6-2.1,4.5-4.5,4.5c-0.3,0-0.6,0-0.9-0.1l-9.1-1.9
		c-2.1-0.4-3.6-2.3-3.6-4.4v-5.3c0-2.2,1.5-4,3.6-4.4l9.1-1.9C583.6,1052.2,584,1052.1,584.3,1052.1 M584.3,1043.7L584.3,1043.7
		c-0.9,0-1.8,0.1-2.6,0.3l-9.1,1.9c-6,1.2-10.4,6.6-10.4,12.7v5.3c0,6.1,4.4,11.5,10.4,12.7l9.1,1.9c0.9,0.2,1.7,0.3,2.6,0.3
		c7.1,0,13-5.8,13-13v-9C597.2,1049.5,591.4,1043.7,584.3,1043.7z"/>
	<path class="st19" d="M738.6,1072.4c-4.1,0-7.4-3.3-7.4-7.4v-7.7c0-4.1,3.3-7.4,7.4-7.4c0.5,0,1,0.1,1.5,0.2l7.7,1.6
		c3.4,0.7,5.9,3.8,5.9,7.3v4.5c0,3.5-2.5,6.6-6,7.3l-7.7,1.6C739.6,1072.4,739.1,1072.4,738.6,1072.4z"/>
	<path class="st6" d="M737.9,1052.1c0.3,0,0.6,0,0.9,0.1l9.1,1.9c2.1,0.4,3.6,2.3,3.6,4.4v5.3c0,2.2-1.5,4-3.6,4.4l-9.1,1.9
		c-0.3,0.1-0.6,0.1-0.9,0.1c-2.4,0-4.5-2-4.5-4.5v-9C733.4,1054.1,735.5,1052.1,737.9,1052.1 M737.9,1043.7c-7.1,0-13,5.8-13,13v9
		c0,7.1,5.8,13,13,13c0.9,0,1.7-0.1,2.6-0.3l9.1-1.9c6-1.2,10.4-6.6,10.4-12.7v-5.3c0-6.1-4.4-11.5-10.4-12.7l-9.1-1.9
		C739.7,1043.8,738.8,1043.7,737.9,1043.7z"/>
</g>
<g>
	<path class="st0" d="M1296,1414.2h-223.6c-22.7,0-37.1-24.5-25.9-44.3l84.9-151.1v-109.3H1237v109.3l84.9,151.1
		C1333.1,1389.7,1318.7,1414.2,1296,1414.2"/>
	<path class="st1" d="M1296,1414.2h-223.6c-22.7,0-37.1-24.5-25.9-44.3l50.7-90.3c25.7,0.5,43.1,6.8,55.2,14.2
		c8.4,5.1,20.4,14.4,36.7,13.1c19.4-1.5,26.6-16.5,44.6-25.4c8.1-4,19.3-7.2,35-6.2l53.2,94.6
		C1333.1,1389.7,1318.7,1414.2,1296,1414.2"/>
	<path class="st15" d="M1130,1275.1l12-21.4c0.9-1.6,0.3-3.7-1.3-4.6c-1.6-0.9-3.7-0.3-4.6,1.3l-12,21.4c-0.9,1.6-0.3,3.7,1.3,4.6
		C1127,1277.2,1129.1,1276.7,1130,1275.1"/>
	<path class="st0" d="M1072,1378.2l46-81.9c0.9-1.6,0.3-3.7-1.3-4.6c-1.6-0.9-3.7-0.3-4.6,1.3l-46,81.9c-0.9,1.6-0.3,3.7,1.3,4.6
		C1069.1,1380.4,1071.1,1379.8,1072,1378.2"/>
	<path class="st3" d="M1072.3,1414.2L1072.3,1414.2L1072.3,1414.2 M1072.2,1414.2L1072.2,1414.2L1072.2,1414.2 M1072.1,1414.2
		C1072.2,1414.2,1072.2,1414.2,1072.1,1414.2C1072.2,1414.2,1072.2,1414.2,1072.1,1414.2 M1072.1,1414.2L1072.1,1414.2
		L1072.1,1414.2 M1072,1414.2L1072,1414.2L1072,1414.2 M1071.9,1414.2C1071.9,1414.2,1072,1414.2,1071.9,1414.2
		C1072,1414.2,1071.9,1414.2,1071.9,1414.2 M1071.8,1414.2C1071.8,1414.2,1071.9,1414.2,1071.8,1414.2
		C1071.9,1414.2,1071.8,1414.2,1071.8,1414.2 M1071.8,1414.2L1071.8,1414.2L1071.8,1414.2 M1071.7,1414.2L1071.7,1414.2
		L1071.7,1414.2 M1071.6,1414.2L1071.6,1414.2L1071.6,1414.2 M1071.5,1414.2C1071.6,1414.2,1071.6,1414.2,1071.5,1414.2
		C1071.6,1414.2,1071.6,1414.2,1071.5,1414.2 M1071.5,1414.2L1071.5,1414.2L1071.5,1414.2 M1071.4,1414.2L1071.4,1414.2
		L1071.4,1414.2 M1071.2,1414.2c0.1,0,0.1,0,0.2,0C1071.3,1414.2,1071.3,1414.2,1071.2,1414.2 M1071.1,1414.2
		C1071.2,1414.2,1071.2,1414.2,1071.1,1414.2C1071.2,1414.2,1071.2,1414.2,1071.1,1414.2 M1071.1,1414.2L1071.1,1414.2
		L1071.1,1414.2 M1071,1414.2L1071,1414.2L1071,1414.2 M1044.8,1395.6c4.2,10.2,13.8,18,26.2,18.5
		C1058.7,1413.6,1049,1405.8,1044.8,1395.6L1044.8,1395.6 M1237,1109.4h-24.5l0,0H1237L1237,1109.4"/>
	<path class="st3" d="M1237,1109.4h-24.5v104.7l34.8,62.6c4.6-1,9.9-1.7,15.9-1.7c1.8,0,3.6,0.1,5.6,0.2l53.2,94.6
		c2.7,4.7,3.9,9.7,3.9,14.6c0-4.9-1.2-9.8-3.9-14.6l-84.9-151.1L1237,1109.4"/>
	<path class="st5" d="M1263.2,1275.1c-6,0-11.2,0.6-15.9,1.7l41.5,74.7c11.1,19.8,5.4,44.3-17.3,44.3h-223.6c-1.1,0-2.1,0-3.1-0.2
		c4.2,10.2,13.8,18,26.2,18.5l0,0c0,0,0,0,0.1,0l0,0l0,0l0,0c0,0,0,0,0.1,0l0,0c0.1,0,0.1,0,0.2,0l0,0l0,0l0,0l0,0l0,0l0,0l0,0l0,0
		l0,0l0,0l0,0l0,0l0,0l0,0c0,0,0,0,0.1,0l0,0l0,0l0,0l0,0l0,0l0,0l0,0l0,0l0,0l0,0l0,0c0,0,0,0,0.1,0H1296
		c17.3,0,29.8-14.2,29.8-29.7c0-4.9-1.2-9.8-3.9-14.6l-53.2-94.6C1266.8,1275.1,1265,1275.1,1263.2,1275.1"/>
	<path class="st6" d="M1296,1417.6h-223.6c-11.9,0-22.6-6.1-28.6-16.4s-6.1-22.6-0.3-32.9l84.5-150.4v-108.4c0-1.9,1.5-3.4,3.4-3.4
		H1237c1.9,0,3.4,1.5,3.4,3.4v108.4l84.5,150.4c5.8,10.4,5.7,22.7-0.3,32.9S1307.9,1417.6,1296,1417.6z M1134.7,1112.8v106
		c0,0.6-0.1,1.1-0.4,1.6l-84.9,151.1c-4.6,8.3-4.6,18.1,0.2,26.3c4.8,8.2,13.3,13.1,22.8,13.1H1296c9.5,0,18-4.9,22.8-13.1
		s4.9-18,0.2-26.3l-84.9-151.1c-0.3-0.5-0.4-1.1-0.4-1.6v-106H1134.7z"/>
	<rect x="1111.9" y="1090.8" class="st0" width="144.6" height="18.7"/>
	<path class="st15" d="M1256.5,1112.8h-144.6c-1.9,0-3.4-1.5-3.4-3.4v-18.7c0-1.9,1.5-3.4,3.4-3.4h144.6c1.9,0,3.4,1.5,3.4,3.4v18.7
		C1259.8,1111.3,1258.3,1112.8,1256.5,1112.8z M1115.3,1106.1h137.9v-12h-137.9V1106.1z"/>
	<path class="st0" d="M1163.7,1338.8c0,1.8-1.4,3.2-3.2,3.2c-1.8,0-3.2-1.4-3.2-3.2c0-1.8,1.4-3.2,3.2-3.2
		C1162.2,1335.6,1163.7,1337,1163.7,1338.8z"/>
	<path class="st0" d="M1121.6,1358.9c0,1.8-1.4,3.2-3.2,3.2c-1.8,0-3.2-1.4-3.2-3.2c0-1.8,1.4-3.2,3.2-3.2
		C1120.1,1355.7,1121.6,1357.1,1121.6,1358.9z"/>
	<path class="st0" d="M1211.2,1334.3c0.7,0.8,0.7,2-0.1,2.7c-0.8,0.7-2,0.7-2.7-0.1c-0.7-0.8-0.7-2,0.1-2.7
		C1209.3,1333.5,1210.5,1333.5,1211.2,1334.3z"/>
	<path class="st0" d="M1244.6,1303.9c0.7,0.8,0.7,2-0.1,2.7c-0.8,0.7-2,0.7-2.7-0.1c-0.7-0.8-0.7-2,0.1-2.7
		C1242.7,1303.1,1243.9,1303.1,1244.6,1303.9z"/>
	<path class="st0" d="M1229.4,1312.5c0,1.8-1.4,3.2-3.2,3.2c-1.8,0-3.2-1.4-3.2-3.2c0-1.8,1.4-3.2,3.2-3.2
		C1227.9,1309.3,1229.4,1310.8,1229.4,1312.5z"/>
	<path class="st0" d="M1163.7,1373.3c0,1.8-1.4,3.2-3.2,3.2c-1.8,0-3.2-1.4-3.2-3.2c0-1.8,1.4-3.2,3.2-3.2
		C1162.2,1370.1,1163.7,1371.6,1163.7,1373.3z"/>
	<path class="st0" d="M1139.5,1317.8c0,1.8-1.4,3.2-3.2,3.2c-1.8,0-3.2-1.4-3.2-3.2c0-1.8,1.4-3.2,3.2-3.2
		C1138,1314.6,1139.5,1316,1139.5,1317.8z"/>
	<path class="st0" d="M1181.9,1336.4c0,2.2-1.8,4-4,4s-4-1.8-4-4s1.8-4,4-4S1181.9,1334.2,1181.9,1336.4z"/>
	<path class="st0" d="M1272.8,1357c0,2.2-1.8,4-4,4s-4-1.8-4-4s1.8-4,4-4S1272.8,1354.8,1272.8,1357z"/>
	<path class="st0" d="M1234.2,1349c0,2.2-1.8,4-4,4s-4-1.8-4-4s1.8-4,4-4S1234.2,1346.8,1234.2,1349z"/>
	<path class="st0" d="M1485.9,1104.2v18.7h-23.2v242.8c0,24.2-19.6,43.8-43.8,43.8c-24.2,0-43.8-19.6-43.8-43.8v-242.8h-23.2v-18.7
		H1485.9"/>
	<polyline class="st3" points="1357.9,1108.3 1351.9,1108.3 1351.9,1122.9 1357.9,1122.9 1357.9,1108.3 	"/>
	<path class="st3" d="M1418.8,1409.5L1418.8,1409.5L1418.8,1409.5 M1418.6,1409.5L1418.6,1409.5
		C1418.7,1409.5,1418.7,1409.5,1418.6,1409.5 M1418.5,1409.5L1418.5,1409.5L1418.5,1409.5 M1418.4,1409.5L1418.4,1409.5
		L1418.4,1409.5 M1418.2,1409.5L1418.2,1409.5C1418.3,1409.5,1418.2,1409.5,1418.2,1409.5 M1418.1,1409.5L1418.1,1409.5
		L1418.1,1409.5 M1417.9,1409.5L1417.9,1409.5C1418,1409.5,1418,1409.5,1417.9,1409.5 M1397.6,1404c6,3.4,12.9,5.3,20.3,5.5
		C1410.5,1409.3,1403.6,1407.3,1397.6,1404"/>
	<path class="st3" d="M1485.9,1104.2h-40.4v247c0,24.2-19.6,43.8-43.8,43.8c-6.7,0-13.1-1.5-18.7-4.2c3.8,5.5,8.8,10,14.6,13.2
		c6,3.4,12.9,5.3,20.3,5.5l0,0h0.1l0,0h0.1l0,0h0.1l0,0h0.1l0,0h0.1l0,0h0.1l0,0h0.1l0,0c24.2,0,43.8-19.6,43.8-43.8v-242.8h23.2
		v-18.7"/>
	<path class="st6" d="M1418.9,1412.9c-26,0-47.1-21.1-47.1-47.1v-239.5h-19.9c-1.9,0-3.4-1.5-3.4-3.4v-18.7c0-1.9,1.5-3.4,3.4-3.4
		h134c1.9,0,3.4,1.5,3.4,3.4v18.7c0,1.9-1.5,3.4-3.4,3.4H1466v239.5C1466,1391.7,1444.9,1412.9,1418.9,1412.9z M1355.3,1119.5h19.9
		c1.9,0,3.4,1.5,3.4,3.4v242.8c0,22.3,18.1,40.4,40.4,40.4s40.4-18.1,40.4-40.4v-242.8c0-1.9,1.5-3.4,3.4-3.4h19.9v-12h-127.3v12
		H1355.3z"/>
	<path class="st15" d="M1376.9,1160.3h37.4c1.9,0,3.4-1.5,3.4-3.4s-1.5-3.4-3.4-3.4h-37.4c-1.9,0-3.4,1.5-3.4,3.4
		C1373.6,1158.8,1375.1,1160.3,1376.9,1160.3"/>
	<path class="st15" d="M1376.9,1197.6h26.2c1.9,0,3.4-1.5,3.4-3.4s-1.5-3.4-3.4-3.4h-26.2c-1.9,0-3.4,1.5-3.4,3.4
		C1373.6,1196.1,1375.1,1197.6,1376.9,1197.6"/>
	<path class="st15" d="M1376.9,1234.9h37.4c1.9,0,3.4-1.5,3.4-3.4s-1.5-3.4-3.4-3.4h-37.4c-1.9,0-3.4,1.5-3.4,3.4
		C1373.6,1233.4,1375.1,1234.9,1376.9,1234.9"/>
	<path class="st15" d="M1376.9,1272.2h26.2c1.9,0,3.4-1.5,3.4-3.4s-1.5-3.4-3.4-3.4h-26.2c-1.9,0-3.4,1.5-3.4,3.4
		C1373.6,1270.7,1375.1,1272.2,1376.9,1272.2"/>
	<path class="st15" d="M1376.9,1309.4h37.4c1.9,0,3.4-1.5,3.4-3.4s-1.5-3.4-3.4-3.4h-37.4c-1.9,0-3.4,1.5-3.4,3.4
		S1375.1,1309.4,1376.9,1309.4"/>
	<path class="st15" d="M1376.9,1346.7h26.2c1.9,0,3.4-1.5,3.4-3.4s-1.5-3.4-3.4-3.4h-26.2c-1.9,0-3.4,1.5-3.4,3.4
		C1373.6,1345.2,1375.1,1346.7,1376.9,1346.7"/>
</g>
<g>
	<path class="st0" d="M1972.4,682.2v145c0,14.6-11.9,26.4-26.4,26.4h-12.4c-0.8-16.4-14.3-29.4-30.8-29.4s-30.1,13-30.8,29.4h-229.1
		c-0.8-16.4-14.3-29.4-30.8-29.4c-16.6,0-30.1,13-30.8,29.4h-26.9c-14.6,0-26.3-11.8-26.3-26.3c0-47.9,19.3-91.1,50.7-122.5
		c31.3-31.3,74.6-50.7,122.5-50.7h243.3C1959.8,654,1972.4,666.7,1972.4,682.2"/>
	<path class="st3" d="M1531.1,832.9c2.6,10.3,11.9,18,23,18h24.4c0.8-6.5,3.5-12.5,7.5-17.3h-48.7
		C1535.2,833.6,1533.2,833.4,1531.1,832.9"/>
	<path class="st3" d="M1876.9,833.6h-239.2c4,4.8,6.7,10.7,7.5,17.3h224.1C1870.2,844.4,1872.9,838.4,1876.9,833.6"/>
	<path class="st3" d="M1955.5,659.3c0.1,1,0.2,1.9,0.2,2.9v145c0,14.6-11.9,26.4-26.4,26.4h-0.7c4,4.8,6.7,10.7,7.5,17.3h10
		c13.1,0,23.7-10.6,23.7-23.7v-145C1969.7,672.2,1963.9,663.5,1955.5,659.3"/>
	<path class="st0" d="M1611.9,824.2c8.7,0,16.6,3.6,22.2,9.4h-44.4C1595.3,827.8,1603.1,824.2,1611.9,824.2z"/>
	<path class="st0" d="M1924.9,833.6h-44.4c5.6-5.8,13.5-9.4,22.2-9.4S1919.3,827.8,1924.9,833.6z"/>
	<path class="st6" d="M1946,856.2h-15l-0.1-2.6c-0.8-15-13.1-26.8-28.1-26.8s-27.5,11.8-28.1,26.8l-0.1,2.6h-234.2l-0.1-2.6
		c-0.8-15-13.1-26.8-28.1-26.8c-15,0-27.5,11.8-28.1,26.8l-0.1,2.6h-29.5c-16,0-29-13-29-29c0-47,18.3-91.1,51.5-124.4
		c33.2-33.2,77.4-51.5,124.4-51.5h243.3c17,0,30.8,13.9,30.8,30.8v145C1975.1,843.2,1962,856.2,1946,856.2 M1936,850.9h10
		c13.1,0,23.7-10.6,23.7-23.7v-145c0-14.1-11.5-25.5-25.5-25.5H1701c-45.6,0-88.4,17.7-120.5,49.9c-32.2,32.2-49.9,75-49.9,120.5
		c0,13,10.6,23.6,23.6,23.6h24.4c2.1-16.7,16.3-29.4,33.3-29.4s31.2,12.7,33.3,29.4h224.1c2.1-16.7,16.3-29.4,33.3-29.4
		C1919.8,821.5,1933.9,834.2,1936,850.9"/>
	<path class="st17" d="M1850.8,773.5c-4,0-7.3-3.3-7.3-7.3v-57.2c0-4,3.3-7.3,7.3-7.3s7.3,3.3,7.3,7.3v57.2
		C1858.1,770.3,1854.9,773.5,1850.8,773.5z"/>
	<path class="st17" d="M1879.4,745h-57.2c-4,0-7.3-3.3-7.3-7.3s3.3-7.3,7.3-7.3h57.2c4,0,7.3,3.3,7.3,7.3
		C1886.8,741.7,1883.4,745,1879.4,745z"/>
	<path class="st3" d="M1701,677c-1.1,0-2,0-3.1,0v58.2c0,6-4.9,10.9-10.9,10.9h-112.4l0,0c-0.4,0.6-0.8,1.1-1.1,1.7
		c-0.7,1.1-1.1,2.3-1.1,3.5c0,1.1,0.3,2.3,0.9,3.4c1.2,2.3,3.5,3.6,6.1,3.6H1701c5,0,9.1-4.1,9.1-9.1V686
		C1710,681,1706,677,1701,677"/>
	<path class="st17" d="M1717.6,651.1h-16.8v-15.5c0-4.6,3.7-8.4,8.4-8.4c4.6,0,8.4,3.7,8.4,8.4L1717.6,651.1L1717.6,651.1z"/>
	<g>
		<path class="st15" d="M1611.9,880.1c-13.5,0-24.4-10.9-24.4-24.4c0-13.5,10.9-24.4,24.4-24.4s24.4,10.9,24.4,24.4
			C1636.3,869.2,1625.4,880.1,1611.9,880.1L1611.9,880.1z M1611.9,837.1c-5,0-9.7,1.9-13.1,5.5c-3.5,3.5-5.5,8.2-5.5,13.1
			c0,5,1.9,9.7,5.5,13.1c3.5,3.5,8.2,5.5,13.1,5.5c5,0,9.7-1.9,13.1-5.5c3.5-3.5,5.5-8.2,5.5-13.1c0-5-1.9-9.7-5.5-13.1
			C1621.5,839,1616.8,837.1,1611.9,837.1L1611.9,837.1z"/>
		<path class="st15" d="M1611.9,831.7c13.2,0,23.9,10.7,23.9,23.9h-2.4h-2.4c0-5.3-2.1-10.1-5.6-13.5c-3.4-3.4-8.2-5.6-13.5-5.6
			s-10.1,2.1-13.5,5.6s-5.6,8.2-5.6,13.5c0,5.3,2.1,10.1,5.6,13.5c3.4,3.4,8.2,5.6,13.5,5.6s10.1-2.1,13.5-5.6s5.6-8.2,5.6-13.5h2.4
			h2.4c0,13.2-10.7,23.9-23.9,23.9s-23.9-10.7-23.9-23.9C1587.9,842.5,1598.6,831.7,1611.9,831.7 M1611.9,830.8L1611.9,830.8
			c-13.7,0-24.9,11.2-24.9,24.9s11.2,24.9,24.9,24.9c13.4,0,24.4-10.6,24.9-23.9l0,0v-1v-1l0,0
			C1636.3,841.4,1625.3,830.8,1611.9,830.8L1611.9,830.8z M1611.9,873.8c-4.9,0-9.4-1.9-12.8-5.3c-3.4-3.4-5.3-7.9-5.3-12.8
			s1.9-9.4,5.3-12.8c3.4-3.4,7.9-5.3,12.8-5.3s9.4,1.9,12.8,5.3c3.4,3.4,5.3,7.9,5.3,12.8c0,4.9-1.9,9.4-5.3,12.8
			C1621.2,872,1616.7,873.8,1611.9,873.8L1611.9,873.8z"/>
	</g>
	<g>
		<path class="st15" d="M1611.9,868.8c-7.2,0-13.1-5.8-13.1-13.1c0-7.2,5.8-13.1,13.1-13.1c7.2,0,13.1,5.8,13.1,13.1
			C1625,862.9,1619.1,868.8,1611.9,868.8L1611.9,868.8z M1611.9,848.4c-1.9,0-3.7,0.8-5.2,2.1c-1.3,1.3-2.1,3.2-2.1,5.2
			c0,1.9,0.8,3.7,2.1,5.2c1.3,1.3,3.2,2.1,5.2,2.1c1.9,0,3.7-0.8,5.2-2.1c1.3-1.3,2.1-3.2,2.1-5.2c0-1.9-0.8-3.7-2.1-5.2
			C1615.7,849.2,1613.9,848.4,1611.9,848.4z"/>
		<path class="st15" d="M1611.9,843.1c7,0,12.6,5.6,12.6,12.6h-2.4h-2.4c0-2.1-0.9-4-2.3-5.5s-3.4-2.3-5.5-2.3s-4,0.9-5.5,2.3
			s-2.3,3.4-2.3,5.5s0.9,4,2.3,5.5s3.4,2.3,5.5,2.3s4-0.9,5.5-2.3s2.3-3.4,2.3-5.5h2.4h2.4c0,7-5.6,12.6-12.6,12.6
			c-7,0-12.6-5.6-12.6-12.6C1599.3,848.7,1605,843.1,1611.9,843.1 M1611.9,842.2L1611.9,842.2c-7.5,0-13.6,6.1-13.6,13.6
			s6.1,13.6,13.6,13.6c7.2,0,13-5.6,13.5-12.6l0,0v-1v-1l0,0C1624.9,847.7,1619,842.2,1611.9,842.2L1611.9,842.2z M1611.9,862.5
			c-1.8,0-3.5-0.7-4.8-2c-1.2-1.2-2-3-2-4.8c0-1.8,0.7-3.5,2-4.8c1.2-1.2,3-2,4.8-2s3.5,0.7,4.8,2c1.2,1.2,2,3,2,4.8
			c0,1.8-0.7,3.5-2,4.8C1615.4,861.8,1613.7,862.5,1611.9,862.5L1611.9,862.5z"/>
	</g>
	<g>
		<path class="st15" d="M1902.7,868.8c-7.2,0-13.1-5.8-13.1-13.1c0-7.2,5.8-13.1,13.1-13.1c7.2,0,13.1,5.8,13.1,13.1
			C1915.7,862.9,1909.9,868.8,1902.7,868.8L1902.7,868.8z M1902.7,848.4c-1.9,0-3.7,0.8-5.2,2.1c-1.3,1.3-2.1,3.2-2.1,5.2
			c0,1.9,0.8,3.7,2.1,5.2c1.3,1.3,3.2,2.1,5.2,2.1c1.9,0,3.7-0.8,5.2-2.1c1.3-1.3,2.1-3.2,2.1-5.2c0-1.9-0.8-3.7-2.1-5.2
			C1906.5,849.2,1904.6,848.4,1902.7,848.4z"/>
		<path class="st15" d="M1902.7,843.1c7,0,12.6,5.6,12.6,12.6h-2.4h-2.4c0-2.1-0.9-4-2.3-5.5s-3.4-2.3-5.5-2.3s-4,0.9-5.5,2.3
			s-2.3,3.4-2.3,5.5s0.9,4,2.3,5.5s3.4,2.3,5.5,2.3s4-0.9,5.5-2.3s2.3-3.4,2.3-5.5h2.4h2.4c0,7-5.6,12.6-12.6,12.6
			c-7,0-12.6-5.6-12.6-12.6C1890.1,848.7,1895.7,843.1,1902.7,843.1 M1902.7,842.2L1902.7,842.2c-7.5,0-13.6,6.1-13.6,13.6
			s6.1,13.6,13.6,13.6c7.2,0,13-5.6,13.5-12.6l0,0v-1v-1l0,0C1915.7,847.7,1909.8,842.2,1902.7,842.2L1902.7,842.2z M1902.7,862.5
			c-1.8,0-3.5-0.7-4.8-2c-1.2-1.2-2-3-2-4.8c0-1.8,0.7-3.5,2-4.8c1.2-1.2,3-2,4.8-2c1.8,0,3.5,0.7,4.8,2c1.2,1.2,2,3,2,4.8
			c0,1.8-0.7,3.5-2,4.8C1906.2,861.8,1904.5,862.5,1902.7,862.5L1902.7,862.5z"/>
	</g>
	<g>
		<path class="st15" d="M1902.7,880.1c-13.5,0-24.4-10.9-24.4-24.4c0-13.5,10.9-24.4,24.4-24.4c13.5,0,24.4,10.9,24.4,24.4
			C1927.1,869.2,1916.1,880.1,1902.7,880.1L1902.7,880.1z M1902.7,837.1c-5,0-9.7,1.9-13.1,5.5c-3.5,3.5-5.5,8.2-5.5,13.1
			c0,5,1.9,9.7,5.5,13.1c3.5,3.5,8.2,5.5,13.1,5.5c5,0,9.7-1.9,13.1-5.5c3.5-3.5,5.5-8.2,5.5-13.1c0-5-1.9-9.7-5.5-13.1
			C1912.3,839,1907.7,837.1,1902.7,837.1L1902.7,837.1z"/>
		<path class="st15" d="M1902.7,831.7c13.2,0,23.9,10.7,23.9,23.9h-2.4h-2.4c0-5.3-2.1-10.1-5.6-13.5c-3.4-3.4-8.2-5.6-13.5-5.6
			c-5.3,0-10.1,2.1-13.5,5.6s-5.6,8.2-5.6,13.5c0,5.3,2.1,10.1,5.6,13.5c3.4,3.4,8.2,5.6,13.5,5.6c5.3,0,10.1-2.1,13.5-5.6
			c3.4-3.4,5.6-8.2,5.6-13.5h2.4h2.4c0,13.2-10.7,23.9-23.9,23.9c-13.2,0-23.9-10.7-23.9-23.9
			C1878.8,842.5,1889.5,831.7,1902.7,831.7 M1902.7,830.8L1902.7,830.8c-13.7,0-24.9,11.2-24.9,24.9s11.2,24.9,24.9,24.9
			c13.4,0,24.4-10.6,24.9-23.9l0,0v-1v-1l0,0C1927,841.4,1916.1,830.8,1902.7,830.8L1902.7,830.8z M1902.7,873.8
			c-4.9,0-9.4-1.9-12.8-5.3c-3.4-3.4-5.3-7.9-5.3-12.8s1.9-9.4,5.3-12.8c3.4-3.4,7.9-5.3,12.8-5.3c4.9,0,9.4,1.9,12.8,5.3
			c3.4,3.4,5.3,7.9,5.3,12.8c0,4.9-1.9,9.4-5.3,12.8C1912.1,872,1907.5,873.8,1902.7,873.8L1902.7,873.8z"/>
	</g>
	<path class="st6" d="M1747.4,816.5v34.4c0,1.4,1.2,2.7,2.7,2.7s2.7-1.2,2.7-2.7v-34.4c0-1.4-1.2-2.7-2.7-2.7
		S1747.4,815,1747.4,816.5"/>
	<path class="st6" d="M1747.4,654v134.4c0,1.4,1.2,2.7,2.7,2.7s2.7-1.2,2.7-2.7V654c0-1.4-1.2-2.7-2.7-2.7S1747.4,652.5,1747.4,654"
		/>
	<path class="st15" d="M1725,705h15c1,0,1.8-0.8,1.8-1.8c0-1-0.8-1.8-1.8-1.8h-15c-1,0-1.8,0.8-1.8,1.8S1724,705,1725,705"/>
	<path class="st15" d="M1725,711.3h15c1,0,1.8-0.8,1.8-1.8c0-1-0.8-1.8-1.8-1.8h-15c-1,0-1.8,0.8-1.8,1.8
		C1723.2,710.4,1724,711.3,1725,711.3"/>
	<path class="st15" d="M1725,717.5h15c1,0,1.8-0.8,1.8-1.8c0-1-0.8-1.8-1.8-1.8h-15c-1,0-1.8,0.8-1.8,1.8
		C1723.2,716.7,1724,717.5,1725,717.5"/>
	<path class="st15" d="M1725,723.7h15c1,0,1.8-0.8,1.8-1.8c0-1-0.8-1.8-1.8-1.8h-15c-1,0-1.8,0.8-1.8,1.8
		C1723.2,723,1724,723.7,1725,723.7"/>
	<path class="st15" d="M1725,730.1h15c1,0,1.8-0.8,1.8-1.8c0-1-0.8-1.8-1.8-1.8h-15c-1,0-1.8,0.8-1.8,1.8
		C1723.2,729.2,1724,730.1,1725,730.1"/>
	<path class="st6" d="M1701,671.7c-54,0-103.4,27.5-132.1,73.4c-2.4,3.8-2.5,8.4-0.3,12.4c2.2,4,6.2,6.4,10.8,6.4H1701
		c7.9,0,14.5-6.5,14.5-14.5v-63.3C1715.4,678.2,1708.9,671.7,1701,671.7 M1710,749.4c0,5-4.1,9.1-9.1,9.1h-121.6
		c-2.6,0-4.9-1.3-6.1-3.6c-1.2-2.2-1.1-4.8,0.2-6.9c0.4-0.6,0.8-1.1,1.1-1.7c27.3-42.5,73.1-68.2,123.4-69.1c1,0,2,0,3.1,0
		c5,0,9.1,4.1,9.1,9.1L1710,749.4"/>
</g>
<g>
	<path class="st0" d="M372,252.5v156.2c0,18.4-14.9,33.3-33.3,33.3h-179c-18.4,0-33.3-14.9-33.3-33.3V252.5
		c0-31.9,13.5-62.6,37-84.2l1-0.9v-66.9H334v66.9l1,0.9C358.6,189.9,372,220.6,372,252.5"/>
	<path class="st0" d="M142.9,298.8v110c0,9.2,7.5,16.7,16.7,16.7"/>
	<path class="st7" d="M140,298.8v110c0,10.8,8.8,19.6,19.6,19.6c1.6,0,2.9-1.3,2.9-2.9c0-1.6-1.3-2.9-2.9-2.9c-3.8,0-7.2-1.5-9.7-4
		s-4-6-4-9.7V298.8c0-1.6-1.3-2.9-2.9-2.9C141.3,295.8,140,297.2,140,298.8L140,298.8z"/>
	<line class="st16" x1="142.9" y1="252.5" x2="142.9" y2="279.2"/>
	<path class="st7" d="M140,252.5v26.7c0,1.6,1.3,2.9,2.9,2.9c1.6,0,2.9-1.3,2.9-2.9v-26.7c0-1.6-1.3-2.9-2.9-2.9
		C141.3,249.6,140,250.9,140,252.5"/>
	<path class="st0" d="M336.9,166.1V97.6H161.4v68.5c-23.4,21.4-38,52.2-38,86.4v156.2c0,20,16.3,36.3,36.3,36.3h179
		c20,0,36.3-16.3,36.3-36.3V252.5C374.9,218.4,360.3,187.6,336.9,166.1 M372,408.7c0,18.4-14.9,33.3-33.3,33.3h-179
		c-18.4,0-33.3-14.9-33.3-33.3V252.5c0-31.9,13.5-62.6,37-84.2l1-0.9v-66.9H334v66.9l1,0.9c23.6,21.6,37,52.4,37,84.3L372,408.7"/>
	<path class="st0" d="M320.5,442.1c-4.4,1.9-9.2,2.9-14.3,2.9H144.7c-14.2-5.9-24.4-19.9-24.4-36.3V252.5c0-33.2,13.8-65,38-87.7
		V97.6h146.1v2.9H164.3v66.9l-1,0.9c-23.6,21.6-37,52.3-37,84.2v156.2c0,18.4,14.9,33.3,33.3,33.3H320.5"/>
	<path class="st3" d="M334,100.6h-29.6v65.5c23.4,21.4,38,52.2,38,86.4v156.2c0,14.9-9.1,27.7-22,33.3h18.2
		c18.4,0,33.3-14.9,33.3-33.3V252.5c0-31.9-13.5-62.7-37-84.3l-1-0.9V100.6"/>
	<rect x="137.6" y="50.9" class="st0" width="44.6" height="46.8"/>
	<path class="st2" d="M185.1,100.6h-50.2V47.9h50.2V100.6z M140.5,94.7h39V53.8h-39V94.7z"/>
	<rect x="182.2" y="50.9" class="st0" width="44.6" height="46.8"/>
	<path class="st2" d="M229.6,100.6h-50.2V47.9h50.2V100.6z M185.1,94.7h39V53.8h-39V94.7z"/>
	<rect x="226.9" y="50.9" class="st0" width="44.6" height="46.8"/>
	<path class="st2" d="M274.3,100.6H224V47.9h50.2V100.6z M229.6,94.7h39V53.8h-39L229.6,94.7L229.6,94.7z"/>
	<rect x="271.5" y="50.9" class="st0" width="44.6" height="46.8"/>
	<path class="st2" d="M318.9,100.6h-50.2V47.9h50.2V100.6z M274.3,94.7h39V53.8h-39V94.7z"/>
	<polyline class="st0" points="316.1,50.9 360.7,50.9 360.7,97.6 316.1,97.6 316.1,50.9 	"/>
	<polyline class="st3" points="360.7,50.9 341.7,50.9 341.7,97.6 360.7,97.6 360.7,50.9 	"/>
	<path class="st2" d="M363.5,100.6h-50.2V47.9h50.2V100.6z M318.9,94.7h39V53.8h-39V94.7z"/>
	<line class="st16" x1="244.7" y1="252.5" x2="244.7" y2="305.9"/>
	<path class="st17" d="M237.9,252.5V306c0,3.8,3.1,6.8,6.8,6.8c3.8,0,6.8-3.1,6.8-6.8v-53.4c0-3.8-3.1-6.8-6.8-6.8
		C241,245.6,237.9,248.7,237.9,252.5"/>
	<line class="st16" x1="218.1" y1="279.2" x2="271.5" y2="279.2"/>
	<path class="st17" d="M218.1,286h53.4c3.8,0,6.8-3.1,6.8-6.8c0-3.8-3.1-6.8-6.8-6.8h-53.4c-3.8,0-6.8,3.1-6.8,6.8
		C211.2,282.9,214.3,286,218.1,286"/>
	<path class="st2" d="M339.9,164.9V94.7H158.4v70.1c-24.2,22.7-38,54.5-38,87.7v156.2c0,16.4,10,30.4,24.4,36.3
		c4.6,1.9,9.6,2.9,14.9,2.9h179c21.6,0,39.2-17.6,39.2-39.2V252.5C377.8,219.5,364.1,187.5,339.9,164.9 M372,408.7
		c0,18.4-14.9,33.3-33.3,33.3h-179c-18.4,0-33.3-14.9-33.3-33.3V252.5c0-31.9,13.5-62.6,37-84.2l1-0.9v-66.9H334v66.9l1,0.9
		c23.6,21.6,37,52.4,37,84.3L372,408.7"/>
</g>
<g>
	<path class="st15" d="M816.9,147.7l-215.4-30.9c-41.2-5.9-79.7,22.8-85.6,64.1c-5.9,41.3,22.8,79.7,64.1,85.6l215.4,30.9
		c41.3,5.9,79.7-22.8,85.6-64.1C886.9,192.1,858.1,153.6,816.9,147.7 M796.8,287.2l-215.4-30.9c-35.6-5.1-60.4-38.3-55.3-73.9
		c5.1-35.6,38.3-60.4,73.9-55.3L815.4,158c35.6,5.1,60.5,38.3,55.4,73.9C865.6,267.5,832.4,292.3,796.8,287.2"/>
	<path class="st6" d="M870.7,230.8c-5.1,35.7-38.3,60.5-73.9,55.4l-102.6-14.7l18.6-129.2L815.4,157
		C851,162.1,875.9,195.2,870.7,230.8"/>
	<path class="st0" d="M702.6,141.7L684,271l-102.6-14.7c-35.6-5.1-60.4-38.3-55.3-73.9c5.1-35.6,38.3-60.4,73.9-55.3L702.6,141.7"/>
	<path class="st15" d="M526.1,182.2c0,0.1,0,0.1,0,0.2c-0.5,3.1-0.7,6.2-0.7,9.3c0-3.1,0.2-6.2,0.7-9.3
		C526.1,182.3,526.1,182.2,526.1,182.2 M526.2,182v0.1V182 M526.6,179.7c-0.1,0.7-0.3,1.5-0.4,2.2
		C526.3,181.2,526.4,180.4,526.6,179.7 M526.6,179.6L526.6,179.6L526.6,179.6"/>
	<path class="st3" d="M528,173.5c-0.6,2-1.1,4-1.5,6.1c0,0,0,0,0,0.1l0,0c-0.1,0.7-0.3,1.5-0.4,2.2l0,0v0.1c0,0,0,0,0,0.1
		s0,0.1,0,0.2c-0.5,3.1-0.7,6.2-0.7,9.3c0,31.9,23.5,59.9,56,64.6l93.8,13.5c3.1-4.1,6.6-7.8,10.6-11.3l0.8-5.3L584,238.4
		C551.4,233.7,527.9,205.6,528,173.5"/>
	<path class="st15" d="M647.5,168.6l21.2,3c2.8,0.4,5.4-1.6,5.8-4.4c0.4-2.8-1.6-5.4-4.4-5.8l-21.2-3c-2.8-0.4-5.4,1.6-5.8,4.4
		C642.7,165.6,644.7,168.2,647.5,168.6"/>
	<path class="st15" d="M560.2,187.2c2.2-15.3,15.4-26.4,30.5-26.4c1.5,0,2.9,0.1,4.4,0.3l28.5,4.1c2.8,0.4,5.4-1.6,5.8-4.4
		c0.4-2.8-1.6-5.4-4.4-5.8l-28.5-4.1c-2-0.3-3.9-0.4-5.9-0.4c-20.1,0-37.7,14.8-40.7,35.3c-0.4,2.8,1.6,5.4,4.4,5.8
		C557.2,192,559.8,190,560.2,187.2L560.2,187.2z"/>
	<polyline class="st15" points="713.5,138.1 693.5,277.6 683.3,276.1 703.3,136.6 713.5,138.1 	"/>
	<polyline class="st20" points="686.6,253.1 685.8,258.4 685.8,258.4 686.6,253.1 686.6,253.1 	"/>
	<polyline class="st20" points="686.6,253.1 686.6,253.1 685.8,258.4 685.8,258.4 686.6,253.1 686.6,253.1 	"/>
	<path class="st21" d="M827.9,266.3L827.9,266.3l9.3,12.4l0,0L827.9,266.3 M706.1,255.9l-9.8,7.4L706.1,255.9"/>
	<path class="st21" d="M686.6,253.1l-0.8,5.3c1.4-1.2,2.8-2.3,4.2-3.4l1.6-1.2L686.6,253.1"/>
	<path class="st15" d="M864.2,124.6L690,255c-33.4,25-40.2,72.5-15.2,105.8c25,33.4,72.5,40.2,105.8,15.2l174.2-130.4
		c33.4-25,40.2-72.5,15.2-105.9C945.1,106.4,897.6,99.6,864.2,124.6 M948.7,237.4L774.5,367.8c-28.8,21.6-69.8,15.7-91.4-13.2
		c-21.6-28.8-15.7-69.8,13.1-91.4l174.2-130.4c28.8-21.6,69.8-15.7,91.4,13.1C983.4,174.8,977.5,215.8,948.7,237.4"/>
	<path class="st22" d="M961.8,146.2c21.6,29,15.7,70.3-13.1,92l-83,62.5l-78.3-105.2l83-62.5C899.2,111.2,940.2,117.2,961.8,146.2"
		/>
	<path class="st0" d="M779.2,201.2l78.3,104.5l-83,62.1c-28.8,21.6-69.8,15.7-91.4-13.2c-21.6-28.8-15.7-69.8,13.1-91.4L779.2,201.2
		"/>
	<path class="st15" d="M681.3,352.1c0.5,0.8,1.1,1.6,1.7,2.4C682.4,353.7,681.8,352.9,681.3,352.1"/>
	<path class="st15" d="M683,354.5c0,0.1,0.1,0.1,0.1,0.2C683.1,354.6,683,354.6,683,354.5"/>
	<path class="st3" d="M846.6,291.3l-83,62.1c-11.7,8.8-25.4,13-39,13c-17,0-33.9-6.6-46.4-19.3c0.9,1.7,1.9,3.4,3,5
		c0.5,0.8,1.1,1.6,1.7,2.4l0,0c0,0.1,0.1,0.1,0.1,0.2l0,0c12.8,17.1,32.5,26.1,52.3,26.1c13.6,0,27.3-4.2,39-13l83-62.1L846.6,291.3
		"/>
	<path class="st15" d="M759.2,259.2l17.1-12.8c2.3-1.7,2.7-4.9,1-7.2s-4.9-2.7-7.2-1L753,250.9c-2.3,1.7-2.7,4.9-1,7.2
		C753.7,260.4,756.9,260.9,759.2,259.2"/>
	<path class="st15" d="M710.7,334c-4.1-5.5-6.1-12-6.1-18.4c0-9.4,4.3-18.7,12.3-24.7l23.1-17.3c2.3-1.7,2.7-4.9,1-7.2
		c-1.7-2.3-4.9-2.7-7.2-1l-23.1,17.3c-10.8,8.1-16.5,20.5-16.5,33c0,8.6,2.7,17.2,8.2,24.6c1.7,2.3,4.9,2.7,7.2,1
		C711.9,339.5,712.4,336.3,710.7,334L710.7,334z"/>
	<polyline class="st15" points="784.3,190.9 868.8,303.7 860.5,309.8 776.1,197.1 784.3,190.9 	"/>
	<polyline class="st20" points="846.6,291.3 846.6,291.3 857.4,305.7 846.6,291.3 	"/>
	<polyline class="st21" points="854.9,285.1 846.6,291.3 857.4,305.7 865.7,299.5 854.9,285.1 	"/>
	<path class="st21" d="M954.4,140.3c15.6,28.1,8.4,64-18,83.8l-81.5,61l10.8,14.4l14.7-11l67.1-50.3c28.5-21.6,34.3-62.4,12.8-91.1
		C958.5,144.6,956.5,142.4,954.4,140.3"/>
</g>
</svg>
