<?xml version="1.0" encoding="utf-8"?>
<!-- Generator: Adobe Illustrator 24.0.2, SVG Export Plug-In . SVG Version: 6.00 Build 0)  -->
<svg version="1.1" id="레이어_1" xmlns="http://www.w3.org/2000/svg" xmlns:xlink="http://www.w3.org/1999/xlink" x="0px"
	 y="0px" viewBox="0 0 3000 3000" style="enable-background:new 0 0 3000 3000;" xml:space="preserve">
<style type="text/css">
	.st0{fill:#00CEC8;enable-background:new    ;}
	.st1{fill:#D2DCFF;}
	.st2{fill:#86A2E2;}
	.st3{fill:#AEC3FF;}
	.st4{fill:#6277D7;}
	.st5{fill:#FE9ECC;}
	.st6{fill:#FF78BA;}
	.st7{fill:#F59493;}
	.st8{fill:#311643;}
	.st9{fill:#D67474;}
	.st10{fill:none;}
	.st11{fill:#FFFFFF;}
	.st12{fill:#2F3D6C;}
	.st13{fill:#FCBEB7;}
	.st14{fill:#4A5EA3;}
	.st15{fill:#89AEFF;}
	.st16{fill:#4A62D3;}
	.st17{fill:#F9AFAB;}
	.st18{fill:#CCCCCC;}
	.st19{fill:#B9E4FC;}
</style>
<g id="레이어_3">
</g>
<g>
	<path id="Path_1141" class="st0" d="M1308.8,2583.9c483.3,152,966.4,73.6,1440-429.3c886.8-941.7-1405.5-1002.4-1405.5-1002.4
		s-1405.5-972.1-1288.4,0S1013.5,2491,1308.8,2583.9z"/>
	<g id="Group_384" transform="translate(1450.49 654.617)">
		<g id="Group_77" transform="translate(0)">
			<path id="Path_235" class="st1" d="M382.4,884.2l-58.2,482.5h-19.1l58.2-482.5L382.4,884.2L382.4,884.2z"/>
			<path id="Path_236" class="st1" d="M125.3,884.2l-6.5,54.3l-51.6,428.2H48l51.9-430.3l6.3-52.1L125.3,884.2z"/>
			<path id="Path_237" class="st1" d="M382.4,1366.7h-19.1l-8-66.7l-9.5-79.1l-31.4-260.3l-9.2-76.4h19.1l9.5,78.6l21.6,178.9
				l9.5,79.1L382.4,1366.7z"/>
			<path id="Path_238" class="st1" d="M639.6,1366.7h-19.1l-45.2-374.5l0,0l-13-108h19.1l13.3,110.1L639.6,1366.7z"/>
			<g id="Group_76" transform="translate(59.126 219.64)">
				<rect id="Rectangle_11" x="48" y="342" class="st1" width="19.1" height="291.9"/>
				<rect id="Rectangle_12" x="307.3" y="342" class="st1" width="19.1" height="291.9"/>
			</g>
			<path id="Path_239" class="st1" d="M589.4,853.5H327.2c8.5,0,15.3,6.9,15.3,15.3l0,0c0,8.5-6.9,15.3-15.3,15.3l0,0h262.3
				c8.5,0,15.3-6.9,15.3-15.3l0,0l0,0C604.8,860.4,597.9,853.5,589.4,853.5z"/>
			<path id="Path_240" class="st2" d="M342.5,868.8L342.5,868.8c0-8.5-6.9-15.3-15.3-15.3H100.8c-8.5,0-15.3,6.9-15.3,15.3l0,0
				c0,8.5,6.9,15.3,15.3,15.3l0,0h226.4C335.7,884.2,342.5,877.3,342.5,868.8L342.5,868.8z"/>
			<path id="Rectangle_13" class="st1" d="M73.9,342h344.9c2.1,0,3.8,1.7,3.8,3.8v212.1c0,2.1-1.7,3.8-3.8,3.8H73.9
				c-2.1,0-3.8-1.7-3.8-3.8V345.8C70.1,343.7,71.8,342,73.9,342z"/>
			<path id="Path_241" class="st3" d="M125.3,884.2l-6.5,54.3c-6.9-0.8-13.2-1.5-18.8-2.1l6.3-52.1L125.3,884.2z"/>
			<path id="Path_242" class="st3" d="M324.2,884.2l9.5,78.6c-6.5-0.7-12.9-1.5-19.4-2.2l-9.2-76.4L324.2,884.2L324.2,884.2z"/>
			<path id="Path_243" class="st3" d="M594.7,994.3c-6.2-0.7-12.6-1.4-19.3-2.1l0,0l-13-108h19.1L594.7,994.3z"/>
			<path id="Path_244" class="st3" d="M107.1,561.6h19.1V602l-19.1-2.1V561.6z"/>
			<path id="Path_245" class="st3" d="M385.6,561.6v69l-19.1-2.1v-66.9H385.6z"/>
		</g>
	</g>
	<g id="Group_80" transform="translate(1825.163 598.127)">
		<path id="Rectangle_18" class="st2" d="M52.7,489.9h221.5l0,0v996.6l0,0H52.7c-2.6,0-4.8-2.1-4.8-4.8l0,0v-987
			C48,492.1,50.1,489.9,52.7,489.9z"/>
		<path id="Rectangle_19" class="st3" d="M274.2,489.9h596.2c2.6,0,4.8,2.1,4.8,4.8l0,0v987.1c0,2.6-2.1,4.8-4.8,4.8l0,0H274.2l0,0
			V489.9L274.2,489.9z"/>
		<rect id="Rectangle_20" x="336.8" y="572.8" class="st1" width="475.6" height="229.9"/>
		<rect id="Rectangle_21" x="102.4" y="1486.5" class="st1" width="54.5" height="95.7"/>
		<rect id="Rectangle_22" x="274.2" y="1486.5" class="st1" width="54.5" height="95.7"/>
		<rect id="Rectangle_23" x="615.9" y="1486.5" class="st1" width="54.5" height="95.7"/>
		<rect id="Rectangle_24" x="787.7" y="1486.5" class="st1" width="54.5" height="95.7"/>
		<path id="Rectangle_25" class="st3" d="M495.4,755.8h181.9c0.7,0,1.3,0.6,1.3,1.3v12.6c0,0.7-0.6,1.3-1.3,1.3H495.4
			c-0.7,0-1.3-0.6-1.3-1.3v-12.6C494.1,756.4,494.7,755.8,495.4,755.8z"/>
		<rect id="Rectangle_26" x="336.8" y="873.3" class="st1" width="475.6" height="229.9"/>
		<path id="Rectangle_27" class="st3" d="M495.4,1056.2h181.9c0.7,0,1.3,0.6,1.3,1.3v12.6c0,0.7-0.6,1.3-1.3,1.3H495.4
			c-0.7,0-1.3-0.6-1.3-1.3v-12.6C494.1,1056.8,494.7,1056.2,495.4,1056.2z"/>
		<rect id="Rectangle_28" x="336.8" y="1173.7" class="st1" width="475.6" height="229.9"/>
		<path id="Rectangle_29" class="st3" d="M495.4,1356.7h181.9c0.7,0,1.3,0.6,1.3,1.3v12.6c0,0.7-0.6,1.3-1.3,1.3H495.4
			c-0.7,0-1.3-0.6-1.3-1.3V1358C494.1,1357.3,494.7,1356.7,495.4,1356.7z"/>
		<path id="Path_250" class="st3" d="M102.4,1486.5h54.5v24.7l-54.5-2.7C102.4,1508.5,102.4,1486.5,102.4,1486.5z"/>
		<path id="Path_251" class="st3" d="M274.2,1486.5h54.5v33.1l-54.5-2.7V1486.5z"/>
		<path id="Path_252" class="st3" d="M615.9,1486.5h54.5v54.3l-54.5-2.7V1486.5z"/>
		<path id="Path_253" class="st3" d="M842.1,1486.5v62.8l-54.5-2.7v-60.1L842.1,1486.5z"/>
		<path id="Path_254" class="st1" d="M635.3,414.5h86.6c3.9,0,7.1,3.2,7.1,7.1c0,0.3,0,0.6-0.1,0.8l-7.3,61.2
			c-0.4,3.6-3.5,6.3-7.1,6.3h-71.9c-3.6,0-6.6-2.7-7.1-6.3l-7.3-61.2c-0.5-3.9,2.3-7.4,6.2-7.9C634.7,414.5,635,414.5,635.3,414.5z"
			/>
		<path id="Path_255" class="st4" d="M708.3,389.5v-27.8l-16.6,31.6V342l-13.1,32.3L665.5,342v51.4l-16.6-31.6v27.8l-24.3-39
			l10.7,64h86.6l10.7-64L708.3,389.5z"/>
	</g>
	<g id="Group_96" transform="translate(376.03 1166.069)">
		<path id="Path_315" class="st5" d="M254.3,616.5C321.8,493,108.8,434.9,57.5,483.9S176.3,759.3,254.3,616.5z"/>
		<path id="Path_316" class="st5" d="M343.9,578.8c132.4,0,72.5-236.8,15.9-236.8C288.8,342,190.9,578.8,343.9,578.8z"/>
		<path id="Path_317" class="st5" d="M445.9,664.7c109.2,88.9,205.1-110,166.3-169.4S319.8,562,445.9,664.7z"/>
		<path id="Path_318" class="st6" d="M306.7,723.5c-18.4-42.6-45.4-82.4-80.2-118.1c-59.1-60.7-121.3-89.2-122-89.5
			c-1.9-0.8-4,0-4.8,1.9c-0.8,1.8,0,4,1.8,4.8c0.6,0.3,61.7,28.3,119.9,88.1c34.1,35,60.5,74,78.6,115.8c2,4.7,3.9,9.5,5.8,14.4h7.9
			C311.5,735.1,309.2,729.3,306.7,723.5z"/>
		<path id="Path_319" class="st6" d="M356.5,390.6c0.2-2-1.2-3.8-3.2-4.1c-2-0.2-3.8,1.2-4.1,3.2c-0.2,2-18.8,160.7-17.9,351.3h7.4
			C337.7,550.9,356.2,392.6,356.5,390.6z"/>
		<path id="Path_320" class="st6" d="M575.5,522c-1.1-1.7-3.4-2.1-5.1-1l0,0c-0.5,0.4-53.6,36.1-108.3,94.8
			c-29.8,32-63.6,74.9-88.4,125.2h8.2c24.2-48.1,56.7-89.2,85.4-120.1c54.1-58.2,106.6-93.5,107.1-93.9
			C576.1,525.9,576.6,523.6,575.5,522z"/>
		<path id="Path_321" class="st1" d="M338.7,741H203.1c-3.2,0-5.8,2.6-5.8,5.8c0,0.6,0.1,1.2,0.3,1.8l6.5,19.9l3.3,10.1l46.9,144
			c1.3,3.9,4.9,6.6,9,6.6h169.2c4.1,0,7.8-2.6,9-6.6l46.9-144l3.3-10.1l6.5-19.9c1-3-0.7-6.3-3.7-7.3c-0.6-0.2-1.2-0.3-1.8-0.3
			H338.7L338.7,741z"/>
		<path id="Path_322" class="st3" d="M491.7,768.5l-3.3,10.1H207.3l-3.3-10.1H491.7z"/>
	</g>
	<g id="Group_26" transform="translate(6.926 83.774)">
		<path id="Path_86" class="st7" d="M1101,374.9c74.4,12.4,167-15.3,178.7-32.9c26.9,41,40.6,39.7,40.6,39.7v30.8l6.1-6.1
			c1.9-4.2,4.9-8.4,9.3-8.4c24.5,0,26.2,68.1-15,72c-0.8,2.7-1.6,5.2-2.5,7.4v109h-93v-42.9c-5.8,1.7-11.7,2.6-17.7,2.7
			c-36.7,0-99.1-53.9-106.2-139.9C1100.8,390.2,1101,374.9,1101,374.9z"/>
	</g>
	<path id="Path_87" class="st8" d="M1220.8,342c64.1,0,76.9,34.2,76.9,34.2c27.4,0,69.2,50,44,105.6l-0.1,0.1l-14.4,14.4v-30.8
		c0,0-13.7,1.3-40.6-39.7c-11.6,17.6-104.3,45.3-178.7,32.9c0,0-0.2,15.3,0.2,31.5l0,0C1080.4,409.9,1136.1,342,1220.8,342z"/>
	<g id="Group_27" transform="translate(142.24 151.844)">
		<path id="Path_88" class="st8" d="M1106.1,361.8c2.8,0,5.1-2.3,5.1-5.1v-9.6c0-2.8-2.4-5.1-5.2-5.1c-2.8,0-5,2.3-5.1,5.1v9.6
			C1101,359.5,1103.3,361.8,1106.1,361.8z"/>
	</g>
	<g id="Group_28" transform="translate(47.143 151.844)">
		<path id="Path_89" class="st8" d="M1106.1,361.8c2.8,0,5.1-2.3,5.1-5.1v-9.6c0-2.8-2.4-5.1-5.2-5.1c-2.8,0-5,2.3-5.1,5.1v9.6
			C1101,359.5,1103.3,361.8,1106.1,361.8z"/>
	</g>
	<ellipse id="Ellipse_11" class="st9" cx="1282.4" cy="530.8" rx="25.4" ry="25.4"/>
	<path id="Path_91" class="st9" d="M1110.8,509.8c3,16.1,8.2,31.7,15.4,46.4c14-0.7,24.8-12.6,24-26.6s-12.6-24.8-26.6-24
		C1119,505.8,1114.6,507.2,1110.8,509.8z"/>
	<g id="Group_30" transform="translate(16.338 111.715)">
		<ellipse id="Ellipse_12" class="st10" cx="1232" cy="377.9" rx="31.2" ry="31.2"/>
		<ellipse id="Ellipse_13" class="st10" cx="1136.9" cy="377.9" rx="31.2" ry="31.2"/>
		<path id="Path_92" class="st11" d="M1136.9,342c18.3,0,33.7,13.8,35.7,32.1c7.5-3.5,16.2-3.6,23.6,0c2.1-19.8,19.8-34.1,39.6-32
			c19.8,2.1,34.1,19.8,32,39.6c-2.1,19.8-19.8,34.1-39.6,32c-17.8-1.9-31.5-16.5-32.2-34.4c-7.2-4.1-16.1-4.1-23.3,0
			c-0.8,19.8-17.4,35.3-37.3,34.5s-35.3-17.4-34.5-37.3C1101.7,357.3,1117.6,342,1136.9,342L1136.9,342z M1232,409.2
			c17.3,0,31.2-14,31.2-31.2s-14-31.2-31.2-31.2s-31.2,14-31.2,31.2l0,0C1200.8,395.2,1214.7,409.2,1232,409.2L1232,409.2z
			 M1136.9,409.2c17.3,0,31.2-14,31.2-31.2s-14-31.2-31.2-31.2s-31.2,14-31.2,31.2l0,0C1105.7,395.2,1119.6,409.2,1136.9,409.2z"/>
	</g>
	<path id="Path_93" class="st9" d="M1232.1,670.2v-42.9c21-5.8,45-19.9,62.9-33.4L1232.1,670.2z"/>
	<path id="Path_94" class="st4" d="M1009.9,2054.9h98.5l165.5-728l169.6,728h98.5l-91.7-816.7h-363.7L1009.9,2054.9z"/>
	<path id="Path_95" class="st12" d="M1100.5,2094.5v69.6c0,8.1-6.6,14.7-14.7,14.7H888.5c-1.9,0-3.4-1.5-3.4-3.4l0,0V2162
		c0-5.9,3.4-11.2,8.6-13.7l111.3-53.7h95.5V2094.5z"/>
	<path id="Path_96" class="st12" d="M1454.2,2094.5v69.6c0,8.1,6.6,14.7,14.7,14.7l0,0h197.3c1.9,0,3.4-1.5,3.4-3.4l0,0V2162
		c0-5.9-3.4-11.2-8.6-13.7l-111.3-53.7h-95.5V2094.5z"/>
	<path id="Path_97" class="st13" d="M1108.3,2054.9l-7.4,39.6H1005l4.9-39.6H1108.3z"/>
	<path id="Path_98" class="st13" d="M1541.9,2054.9l7.8,39.6h-95.5l-10.7-39.6H1541.9z"/>
	<path id="Path_99" class="st14" d="M1452.2,1255.7l-369.3,20.9l3.6-38.4h363.7"/>
	<path id="Path_100" class="st13" d="M1432.8,853.5"/>
	<line id="Line_2" class="st10" x1="1535.7" y1="807.8" x2="1451.7" y2="872.3"/>
	<path id="Path_101" class="st15" d="M1110.6,886.2l-24.1,352h363.7l-22.3-250.8l4.9-133.9l18.9,18.8l83.9-64.5l-45.1-73.5
		c-11.2-18.2-27.3-32.8-46.5-42.1L1340.6,642l-3.8-1.8l-11.8-5.7c0,0-54,35.4-92.8,0l-20.7,7.8l-4.2,1.6l-109.6,41.3
		c-17.2,6.5-31.2,19.4-39,36l-46.5,98.9L1110.6,886.2z"/>
	<g id="Group_32" transform="translate(395.574 298.137)">
		<path id="Path_102" class="st11" d="M815.9,344.1c37.8,26.7,88.5,25.8,125.3-2.1l3.8,1.8c-39,30.6-93.6,31.3-133.3,1.8
			L815.9,344.1z"/>
	</g>
	<path id="Path_103" class="st16" d="M1448.6,704.2c0,17.3,14,31.3,31.3,31.3c3.5,0,7-0.6,10.3-1.7c-10-16-23.8-29.3-40.3-38.5
		C1449,698.1,1448.6,701.1,1448.6,704.2z"/>
	<ellipse id="Ellipse_14" class="st14" cx="1429.7" cy="1563" rx="47.1" ry="47.1"/>
	<ellipse id="Ellipse_15" class="st14" cx="1115.3" cy="1563" rx="47.1" ry="47.1"/>
	<path id="Rectangle_4" class="st14" d="M1573.3,1278.2l-310.8-88.7c-0.9-0.2-1.4-1.1-1.1-2l57.3-200.6c0.2-0.9,1.1-1.4,2-1.1
		l310.8,88.7c0.9,0.2,1.4,1.1,1.1,2l-57.3,200.6C1575.1,1277.9,1574.2,1278.4,1573.3,1278.2z"/>
	<path id="Rectangle_5" class="st14" d="M1159,719.5h87.4c0.5,0,0.8,0.4,0.8,0.8v156.6c0,0.5-0.4,0.8-0.8,0.8H1159
		c-0.5,0-0.8-0.4-0.8-0.8V720.3C1158.2,719.8,1158.6,719.5,1159,719.5z"/>
	<path id="Path_104" class="st7" d="M945.9,976.8l66.3-156.7l50.6,33.8l71.1-62.3l14.5-49.8c0.2-1.6,1.5-2.8,3-3.1
		c5.9-0.8,11.3,3.4,12.1,9.3c0.1,0.9,0.1,1.8,0,2.6l-2.5,21.8l26.4,3.5c7.1,0.9,14.3,0.3,21.2-1.8l24.5-7.7c7.3-2.3,15,1.8,17.3,9
		c0,0.1,0,0.2,0.1,0.2l0,0l9.5-2.2c4.6-1.1,9.3,1.7,10.4,6.3l0.1,0.3c1,3.9-0.8,8.1-4.4,10l0,0c1.9,7.6-2.6,15.3-10.1,17.3l-0.2,0.1
		l0,0c2,7.6-1.7,15.6-8.9,18.8l-18.6,8.5c-7,3.2-14.6,4.6-22.3,4.2l-42.2-3.4l-143.2,187.2l0,0l0,0c-12.9,15.4-34.6,20.2-52.8,11.7
		l0,0C946.2,1024.3,936.5,998.8,945.9,976.8z"/>
	<path id="Path_105" class="st16" d="M1057.6,723.4c15.6,6,33.1-1.7,39.1-17.3c2.6-6.7,2.7-14,0.4-20.8
		c-16.9,6.5-30.7,19.4-38.4,35.8L1057.6,723.4z"/>
	<path id="Path_106" class="st9" d="M1053.7,861.8L977,903.2l-17.3,41L1053.7,861.8z"/>
	<path id="Path_107" class="st12" d="M1450.4,1243.1l108.6-189.3l-23-6.6L1450.4,1243.1z"/>
	<ellipse id="Ellipse_16" class="st9" cx="989.5" cy="997.8" rx="29.8" ry="29.8"/>
	<path id="Path_108" class="st17" d="M1556.1,912.9c0,15.1,10.7,28.1,25.6,31l5.3-12.4c5.4-12.4,4.5-26.7-2.2-38.4l-6.1-10.6
		C1565.3,886.6,1556.1,898.9,1556.1,912.9z"/>
	<path id="Path_109" class="st7" d="M1369.3,1208.8l37-16.5c2.6-1.1,4.5-3.3,5.5-5.9l5.4-14.8l-18.7,4.6l-6,12.8
		c-2,4.3-7.1,6.2-11.4,4.4l7.8-23.5c1.5-3.7,4.3-6.8,7.9-8.6l39.1-19.2l67.4-218.6l-51.5-51.2l83.9-64.5l49.1,85.4
		c6.7,11.7,7.6,26,2.2,38.4l-136.2,311.5l-27,1.3c-3.2,0.1-6.3-1.5-8-4.3l-2.9-4.9l-14.2,1.2c-3,0.3-6-1.1-7.8-3.6l-3.3-4.5l-2,0.5
		c-5.4,1.4-11.2-1-13.8-6l-9.9,3.3C1359.4,1219.2,1362.7,1211.7,1369.3,1208.8z"/>
	<path id="Path_110" class="st13" d="M811.7,853.5"/>
	
		<rect x="1289.8" y="1071.7" transform="matrix(0.2554 -0.9668 0.9668 0.2554 -66.0798 2088.418)" class="st11" width="66" height="30.9"/>
	
		<rect x="1294.9" y="1078.5" transform="matrix(0.2554 -0.9668 0.9668 0.2554 -63.407 2094.6125)" class="st18" width="66.5" height="20"/>
	<path class="st19" d="M1122,553.8l58.5-38.1c0,0,13.2-8.5,33.8,0c20.5,8.5,24.9,18.7,58.9,20.9h27.2l-2.2,57.2
		c0,0-53.9,44.5-86.7,40.4C1211.4,634.1,1153.2,618.6,1122,553.8z"/>
	<polygon class="st11" points="1300.3,536.6 1327.2,489.6 1333.3,490.2 1300.3,545.8 	"/>
	<polygon class="st11" points="1327.6,553.8 1298.4,585.7 1298,593.8 1325,561.2 	"/>
	<path class="st10" d="M1145.5,559.3l32.9-23c0,0,14.3-12.2,38.7,0s48.1,16.7,60,17.2"/>
</g>
</svg>
