<?xml version="1.0" encoding="utf-8"?>
<!-- Generator: Adobe Illustrator 24.0.2, SVG Export Plug-In . SVG Version: 6.00 Build 0)  -->
<svg version="1.1"
	 id="svg8" inkscape:export-filename="./muhnaufals - Covid-19 Heal the World.png" inkscape:export-xdpi="25.400002" inkscape:export-ydpi="25.400002" inkscape:version="0.92.4 (5da689c313, 2019-01-14)" sodipodi:docname="Virus Set.svg" xmlns:cc="http://creativecommons.org/ns#" xmlns:dc="http://purl.org/dc/elements/1.1/" xmlns:inkscape="http://www.inkscape.org/namespaces/inkscape" xmlns:rdf="http://www.w3.org/1999/02/22-rdf-syntax-ns#" xmlns:sodipodi="http://sodipodi.sourceforge.net/DTD/sodipodi-0.dtd" xmlns:svg="http://www.w3.org/2000/svg"
	 xmlns="http://www.w3.org/2000/svg" xmlns:xlink="http://www.w3.org/1999/xlink" x="0px" y="0px" viewBox="0 0 3000 3000"
	 style="enable-background:new 0 0 3000 3000;" xml:space="preserve">
<style type="text/css">
	.st0{fill-rule:evenodd;clip-rule:evenodd;fill:#ED3C43;}
	.st1{fill:#E91920;}
	.st2{fill-rule:evenodd;clip-rule:evenodd;fill:#A3CE33;}
	.st3{fill:#89AE2A;}
	.st4{fill-rule:evenodd;clip-rule:evenodd;fill:#396CB0;}
	.st5{fill:#2F5991;}
</style>
<defs>
	
		<inkscape:path-effect  copytype="repeated_stretched" effect="skeletal" fuse_tolerance="10" id="path-effect1524" is_visible="true" normal_offset="0" pattern="m -1307.4449,206.29394 c -2.1556,0 -3.8908,1.73526 -3.8908,3.89086 0,2.09099 1.6341,3.78145 3.6995,3.88122 v 6.66845 c 0,2.1556 1.7352,3.89086 3.8908,3.89086 2.1556,0 3.8916,-1.73526 3.8916,-3.89086 v -6.66845 c 2.0654,-0.0998 3.6995,-1.79023 3.6995,-3.88122 0,-2.1556 -1.7352,-3.89086 -3.8908,-3.89086 z" prop_scale="1" prop_units="false" scale_y_rel="true" spacing="15" tang_offset="0" vertical_pattern="false">
		</inkscape:path-effect>
	
		<inkscape:path-effect  copytype="repeated_stretched" effect="skeletal" fuse_tolerance="10" id="path-effect921" is_visible="true" normal_offset="0" pattern="m -1307.4449,206.29394 c -2.1556,0 -3.8908,1.73526 -3.8908,3.89086 0,2.09099 1.6341,3.78145 3.6995,3.88122 v 6.66845 c 0,2.1556 1.7352,3.89086 3.8908,3.89086 2.1556,0 3.8916,-1.73526 3.8916,-3.89086 v -6.66845 c 2.0654,-0.0998 3.6995,-1.79023 3.6995,-3.88122 0,-2.1556 -1.7352,-3.89086 -3.8908,-3.89086 z" prop_scale="1" prop_units="false" scale_y_rel="true" spacing="15" tang_offset="0" vertical_pattern="false">
		</inkscape:path-effect>
	
		<inkscape:path-effect  copytype="repeated_stretched" effect="skeletal" fuse_tolerance="10" id="path-effect864" is_visible="true" normal_offset="0" pattern="m -1307.4449,206.29394 c -2.1556,0 -3.8908,1.73526 -3.8908,3.89086 0,2.09099 1.6341,3.78145 3.6995,3.88122 v 6.66845 c 0,2.1556 1.7352,3.89086 3.8908,3.89086 2.1556,0 3.8916,-1.73526 3.8916,-3.89086 v -6.66845 c 2.0654,-0.0998 3.6995,-1.79023 3.6995,-3.88122 0,-2.1556 -1.7352,-3.89086 -3.8908,-3.89086 z" prop_scale="1" prop_units="false" scale_y_rel="true" spacing="15" tang_offset="0" vertical_pattern="false">
		</inkscape:path-effect>
	
		<inkscape:path-effect  copytype="repeated_stretched" effect="skeletal" fuse_tolerance="10" id="path-effect836" is_visible="true" normal_offset="0" pattern="m -1307.4449,206.29394 c -2.1556,0 -3.8908,1.73526 -3.8908,3.89086 0,2.09099 1.6341,3.78145 3.6995,3.88122 v 6.66845 c 0,2.1556 1.7352,3.89086 3.8908,3.89086 2.1556,0 3.8916,-1.73526 3.8916,-3.89086 v -6.66845 c 2.0654,-0.0998 3.6995,-1.79023 3.6995,-3.88122 0,-2.1556 -1.7352,-3.89086 -3.8908,-3.89086 z" prop_scale="1" prop_units="false" scale_y_rel="true" spacing="15" tang_offset="0" vertical_pattern="false">
		</inkscape:path-effect>
</defs>
<sodipodi:namedview  bordercolor="#666666" borderopacity="1.0" id="base" inkscape:bbox-nodes="true" inkscape:bbox-paths="true" inkscape:current-layer="layer2" inkscape:cx="1410.2862" inkscape:cy="1412.4731" inkscape:document-units="mm" inkscape:guide-bbox="true" inkscape:object-nodes="false" inkscape:pageopacity="0.0" inkscape:pageshadow="2" inkscape:snap-bbox="true" inkscape:snap-global="true" inkscape:snap-midpoints="false" inkscape:snap-nodes="true" inkscape:snap-others="false" inkscape:snap-page="true" inkscape:window-height="706" inkscape:window-maximized="1" inkscape:window-width="1366" inkscape:window-x="-8" inkscape:window-y="-8" inkscape:zoom="0.16375479" pagecolor="#ffffff" showgrid="false" showguides="true" units="px">
	<inkscape:grid  id="grid911" type="xygrid"></inkscape:grid>
</sodipodi:namedview>
<g id="g846" transform="matrix(0.4317459,0,0,0.4317459,-56.258029,431.75969)" inkscape:export-filename="./Covid-19.png" inkscape:export-xdpi="25.400002" inkscape:export-ydpi="25.400002">
	<g id="g834">
		<path id="path901" inkscape:connector-curvature="0" class="st0" d="M1144.7,1453.8c-32.7,0.1-65.5,1.8-98.2,5
			c-59.2,5.9-95.2,52.1-85.8,97.3c9.1,43.7,54,71.5,98.2,68.9l9.6,91.5c-148.3,16-288.6,75.2-403.6,170.1l-57.9-70.4
			c32.8-29.7,44.2-81.1,19.2-118.1c-25.8-38.2-83.6-45.1-129-7.4c-50.2,41.7-96.5,88.3-138.1,139.1c-37.7,46-30.4,104.2,8.1,129.5
			c37.3,24.5,88.8,12.3,118.2-20.7l71.4,57.8c-93.6,116.2-151.1,257.3-165.3,405.8l-90.4-8.8c2.2-44.2-26.1-88.6-70-97.1
			c-45.2-8.7-91,27.2-96.4,86c-6,65-5.8,130.6,0.7,196c5.9,59.2,52.1,95.2,97.3,85.8c43.7-9.1,71.5-54,68.9-98.2l91.5-9.6
			c16,148.3,75.2,288.6,170.1,403.6l-70.4,57.9c-29.7-32.8-81.1-44.2-118.1-19.2c-38.2,25.8-45.1,83.6-7.4,129
			c41.7,50.2,88.3,96.5,139.1,138.1c46,37.7,104.2,30.4,129.5-8.1c24.5-37.3,12.4-88.8-20.7-118.2l57.8-71.4
			c116.2,93.6,257.3,151.1,405.8,165.3l-8.8,90.4c-44.2-2.2-88.6,26.1-97.1,70c-8.7,45.2,27.3,91,86,96.4c65,6,130.6,5.8,196-0.7
			c59.2-5.9,95.2-52.1,85.8-97.3c-9.1-43.7-54-71.5-98.2-68.9l-9.6-91.5c148.3-16,288.6-75.2,403.6-170.1l57.9,70.4
			c-32.8,29.7-44.2,81.1-19.2,118.1c25.8,38.2,83.6,45.1,129,7.4c50.2-41.7,96.5-88.3,138.1-139.1c37.7-46,30.4-104.2-8.1-129.5
			c-37.3-24.5-88.8-12.4-118.2,20.7l-71.4-57.8c93.6-116.2,151.1-257.3,165.3-405.8l90.4,8.8c-2.2,44.2,26.1,88.6,70,97.1
			c45.2,8.7,91-27.3,96.4-86c6-65,5.8-130.6-0.7-196c-5.9-59.2-52.1-95.2-97.3-85.8c-43.7,9.1-71.5,54-68.9,98.2l-91.5,9.6
			c-16-148.3-75.2-288.6-170.1-403.6l70.4-57.9c29.7,32.8,81.1,44.2,118.1,19.2c38.2-25.8,45.1-83.6,7.4-129
			c-41.7-50.2-88.3-96.5-139.1-138.1c-46-37.7-104.2-30.4-129.5,8.1c-24.5,37.3-12.3,88.8,20.7,118.2l-57.8,71.4
			c-116.2-93.6-257.3-151.1-405.8-165.3l8.8-90.4c44.2,2.2,88.6-26.1,97.1-70c8.7-45.2-27.3-91-86-96.4
			C1210.1,1455.1,1177.5,1453.7,1144.7,1453.8L1144.7,1453.8z"/>
		<circle id="path923" class="st1" cx="809.5" cy="2140.8" r="93.7"/>
		<circle id="circle925" class="st1" cx="678.8" cy="2588.9" r="164.6"/>
		<circle id="circle927" class="st1" cx="1033.6" cy="2958.6" r="104.9"/>
		<circle id="circle929" class="st1" cx="1595.2" cy="2387.1" r="172.1"/>
		<circle id="circle931" class="st1" cx="1253.9" cy="1946.6" r="41.4"/>
		<circle id="circle933" class="st1" cx="1154.8" cy="2319.2" r="131"/>
		<circle id="circle935" class="st1" cx="1356.7" cy="2846.3" r="71.3"/>
	</g>
</g>
<g id="g849" transform="matrix(0.4317459,0,0,0.4317459,224.04558,431.75969)" inkscape:export-filename="./Covid-19.png" inkscape:export-xdpi="25.400002" inkscape:export-ydpi="25.400002">
	<g id="g847">
		<path id="path831" inkscape:connector-curvature="0" class="st2" d="M2949.3,1453.8c-32.7,0.1-65.5,1.8-98.2,5
			c-59.2,5.9-95.2,52.1-85.8,97.3c9.1,43.7,54,71.5,98.2,68.9l9.6,91.5c-148.3,16-288.6,75.2-403.6,170.1l-57.9-70.4
			c32.8-29.7,44.2-81.1,19.2-118.1c-25.8-38.2-83.6-45.1-129-7.4c-50.2,41.7-96.5,88.3-138.1,139.1c-37.7,46-30.4,104.2,8.1,129.5
			c37.3,24.5,88.8,12.3,118.2-20.7l71.4,57.8c-93.6,116.2-151.1,257.3-165.3,405.8l-90.4-8.8c2.2-44.2-26.1-88.6-70-97.1
			c-45.2-8.7-91,27.2-96.4,86c-6,65-5.8,130.6,0.7,196c5.9,59.2,52.1,95.2,97.3,85.8c43.7-9.1,71.5-54,68.9-98.2l91.5-9.6
			c16,148.3,75.2,288.6,170.1,403.6l-70.4,57.9c-29.7-32.8-81.1-44.2-118.1-19.2c-38.2,25.8-45.1,83.6-7.4,129
			c41.7,50.2,88.3,96.5,139.1,138.1c46,37.7,104.2,30.4,129.5-8.1c24.5-37.3,12.4-88.8-20.7-118.2l57.8-71.4
			c116.2,93.6,257.3,151.1,405.8,165.3l-8.8,90.4c-44.2-2.2-88.6,26.1-97.1,70c-8.7,45.2,27.3,91,86,96.4c65,6,130.6,5.8,196-0.7
			c59.2-5.9,95.2-52.1,85.8-97.3c-9.1-43.7-54-71.5-98.2-68.9l-9.6-91.5c148.3-16,288.6-75.2,403.6-170.1l57.9,70.4
			c-32.8,29.7-44.2,81.1-19.2,118.1c25.8,38.2,83.6,45.1,129,7.4c50.2-41.7,96.5-88.3,138.1-139.1c37.7-46,30.4-104.2-8.1-129.5
			c-37.3-24.5-88.8-12.4-118.2,20.7l-71.4-57.8c93.6-116.2,151.1-257.3,165.3-405.8l90.4,8.8c-2.2,44.2,26.1,88.6,70,97.1
			c45.2,8.7,91-27.3,96.4-86c6-65,5.8-130.6-0.7-196c-5.9-59.2-52.1-95.2-97.3-85.8c-43.7,9.1-71.5,54-68.9,98.2l-91.5,9.6
			c-16-148.3-75.2-288.6-170.1-403.6l70.4-57.9c29.7,32.8,81.1,44.2,118.1,19.2c38.2-25.8,45.1-83.6,7.4-129
			c-41.7-50.2-88.3-96.5-139.1-138.1c-46-37.7-104.2-30.4-129.5,8.1c-24.5,37.3-12.3,88.8,20.7,118.2l-57.8,71.4
			c-116.2-93.6-257.3-151.1-405.8-165.3l8.8-90.4c44.2,2.2,88.6-26.1,97.1-70c8.7-45.2-27.3-91-86-96.4
			C3014.7,1455.1,2982,1453.7,2949.3,1453.8L2949.3,1453.8z"/>
		<circle id="circle833" class="st3" cx="2614.1" cy="2140.8" r="93.7"/>
		<circle id="circle835" class="st3" cx="2483.4" cy="2588.9" r="164.6"/>
		<circle id="circle837" class="st3" cx="2838.2" cy="2958.6" r="104.9"/>
		<circle id="circle839" class="st3" cx="3399.8" cy="2387.1" r="172.1"/>
		<circle id="circle841" class="st3" cx="3058.5" cy="1946.6" r="41.4"/>
		<circle id="circle843" class="st3" cx="2959.3" cy="2319.2" r="131"/>
		<circle id="circle845" class="st3" cx="3161.3" cy="2846.3" r="71.3"/>
	</g>
</g>
<g id="g869" transform="matrix(0.4317459,0,0,0.4317459,504.34918,431.75969)" inkscape:export-filename="./Covid-19.png" inkscape:export-xdpi="25.400002" inkscape:export-ydpi="25.400002">
	<g id="g867">
		<path id="path851" inkscape:connector-curvature="0" class="st4" d="M4753.9,1453.8c-32.7,0.1-65.5,1.8-98.2,5
			c-59.2,5.9-95.2,52.1-85.8,97.3c9.1,43.7,54,71.5,98.2,68.9l9.6,91.5c-148.3,16-288.6,75.2-403.6,170.1l-57.9-70.4
			c32.8-29.7,44.2-81.1,19.2-118.1c-25.8-38.2-83.6-45.1-129-7.4c-50.2,41.7-96.5,88.3-138.1,139.1c-37.7,46-30.4,104.2,8.1,129.5
			c37.3,24.5,88.8,12.3,118.2-20.7l71.4,57.8c-93.6,116.2-151.1,257.3-165.3,405.8l-90.4-8.8c2.2-44.2-26.1-88.6-70-97.1
			c-45.2-8.7-91,27.2-96.4,86c-6,65-5.8,130.6,0.7,196c5.9,59.2,52.1,95.2,97.3,85.8c43.7-9.1,71.5-54,68.9-98.2l91.5-9.6
			c16,148.3,75.2,288.6,170.1,403.6l-70.4,57.9c-29.7-32.8-81.1-44.2-118.1-19.2c-38.2,25.8-45.1,83.6-7.4,129
			c41.7,50.2,88.3,96.5,139.1,138.1c46,37.7,104.2,30.4,129.5-8.1c24.5-37.3,12.4-88.8-20.7-118.2l57.8-71.4
			c116.2,93.6,257.3,151.1,405.8,165.3l-8.8,90.4c-44.2-2.2-88.6,26.1-97.1,70c-8.7,45.2,27.3,91,86,96.4c65,6,130.6,5.8,196-0.7
			c59.2-5.9,95.2-52.1,85.8-97.3c-9.1-43.7-54-71.5-98.2-68.9l-9.6-91.5c148.3-16,288.6-75.2,403.6-170.1l57.9,70.4
			c-32.8,29.7-44.2,81.1-19.2,118.1c25.8,38.2,83.6,45.1,129,7.4c50.2-41.7,96.5-88.3,138.1-139.1c37.7-46,30.4-104.2-8.1-129.5
			c-37.3-24.5-88.8-12.4-118.2,20.7L5354,2952c93.6-116.2,151.1-257.3,165.3-405.8l90.4,8.8c-2.2,44.2,26.1,88.6,70,97.1
			c45.2,8.7,91-27.3,96.4-86c6-65,5.8-130.6-0.7-196c-5.9-59.2-52.1-95.2-97.3-85.8c-43.7,9.1-71.5,54-68.9,98.2l-91.5,9.6
			c-16-148.3-75.2-288.6-170.1-403.6l70.4-57.9c29.7,32.8,81.1,44.2,118.1,19.2c38.2-25.8,45.1-83.6,7.4-129
			c-41.7-50.2-88.3-96.5-139.1-138.1c-46-37.7-104.2-30.4-129.5,8.1c-24.5,37.3-12.3,88.8,20.7,118.2l-57.8,71.4
			c-116.2-93.6-257.3-151.1-405.8-165.3l8.8-90.4c44.2,2.2,88.6-26.1,97.1-70c8.7-45.2-27.3-91-86-96.4
			C4819.2,1455.1,4786.6,1453.7,4753.9,1453.8L4753.9,1453.8z"/>
		<circle id="circle853" class="st5" cx="4418.7" cy="2140.8" r="93.7"/>
		<circle id="circle855" class="st5" cx="4288" cy="2588.9" r="164.6"/>
		<circle id="circle857" class="st5" cx="4642.7" cy="2958.6" r="104.9"/>
		<circle id="circle859" class="st5" cx="5204.3" cy="2387.1" r="172.1"/>
		<circle id="circle861" class="st5" cx="4863.1" cy="1946.6" r="41.4"/>
		<circle id="circle863" class="st5" cx="4763.9" cy="2319.2" r="131"/>
		<circle id="circle865" class="st5" cx="4965.8" cy="2846.3" r="71.3"/>
	</g>
</g>
</svg>
